<?xml version="1.0" encoding="utf-8"?>
<!-- Generator: Adobe Illustrator 23.1.1, SVG Export Plug-In . SVG Version: 6.00 Build 0)  -->
<svg version="1.1" id="Layer_1" xmlns="http://www.w3.org/2000/svg" xmlns:xlink="http://www.w3.org/1999/xlink" x="0px" y="0px"
	 viewBox="0 0 400 78.1" style="enable-background:new 0 0 400 78.1;" xml:space="preserve">
<style type="text/css">
	.st0{enable-background:new    ;}
	.st1{fill:#0273CE;}
</style>
<title>Artboard 1</title>
<g class="st0">
	<path class="st1" d="M26.7,62.3c0.1,0.2,0.2,0.5,0.2,0.7c0,0.2,0,0.5,0,0.8c0,0.3,0,0.5,0,0.7c0,0.2,0.1,0.4,0.1,0.5
		c0.1,0.1,0.3,0.3,0.6,0.4c0.3,0.1,0.6,0.3,0.8,0.6c0.2,0.3,0.3,0.5,0.2,0.8c-0.1,0.2-0.1,0.3-0.3,0.4c-0.2,0.1-0.4,0.1-0.7,0
		c-0.3-0.1-0.5-0.3-0.7-0.4c-0.2-0.2-0.4-0.3-0.6-0.5c-0.2-0.1-0.3-0.2-0.4-0.1c-0.1,0.1-0.1,0.2,0,0.5c0.1,0.3,0.1,0.4-0.1,0.5
		c-0.4,0.2-0.7,0.1-1-0.4c-0.2-0.3-0.3-0.5-0.4-0.8c-0.1-0.3-0.3-0.6-0.5-0.9c-0.1-0.2-0.3-0.3-0.5-0.1c-0.3,0.2-0.2,0.6,0.2,1.2
		c0.2,0.3,0.4,0.5,0.6,0.8c0.2,0.2,0.3,0.3,0.4,0.4c0.4,0.7,0.6,1.3,0.4,1.7s-0.4,0.7-0.7,0.9C24.3,70,24.2,70,24,70
		c-0.2,0-0.3-0.1-0.5-0.2c-0.5-0.5-1-0.8-1.3-0.8c-0.3,0-0.6,0.1-0.8,0.2c-0.1,0.1-0.2,0.1-0.3,0.3c-0.1,0.1-0.3,0.3-0.4,0.4
		c-0.1,0.1-0.2,0.3-0.3,0.5c-0.1,0.2,0,0.4,0.1,0.5c0.5,0.8,1,1.5,1.3,2.2c0.4,0.6,0.4,1.1,0.1,1.3c-0.4,0.3-0.8,0.1-1.1-0.3
		c0-0.1-0.1-0.2-0.2-0.3c-0.1-0.2-0.2-0.3-0.2-0.4c-0.7-1.1-1.2-1.8-1.6-2C18.4,71,18.2,71,18,71.1c-0.1,0.1-0.2,0.2-0.2,0.5
		s-0.1,0.4-0.3,0.5c-0.2,0.1-0.4,0.2-0.7,0.1s-0.5-0.2-0.7-0.5c-0.1-0.2-0.2-0.5-0.3-0.9c-0.1-0.3-0.1-0.6-0.2-0.6
		c-0.1-0.2-0.3-0.2-0.5-0.1c-0.1,0.1-0.1,0.1-0.1,0.3c0,0.1,0,0.3,0,0.5c0,0.2,0,0.3,0,0.5c0,0.1-0.1,0.3-0.2,0.3
		c-0.2,0.1-0.4,0.1-0.5-0.2c-0.1-0.2-0.2-0.4-0.3-0.8c-0.1-0.4-0.3-0.8-0.6-1.2c-0.2-0.3-0.5-0.7-1-1.1s-0.8-0.8-1-1
		c-0.1-0.2-0.2-0.3-0.2-0.6c-0.1-0.2-0.1-0.4-0.2-0.6c-0.1-0.1-0.2-0.3-0.3-0.4c-0.1-0.2-0.3-0.3-0.4-0.5c-0.1-0.2-0.2-0.3-0.3-0.4
		c-0.1-0.1-0.2-0.2-0.2-0.2c-0.1-0.2-0.2-0.4-0.3-0.6c-0.1-0.3-0.3-0.4-0.3-0.6c-0.2-0.3-0.4-0.5-0.6-0.7c-0.2-0.1-0.4-0.3-0.6-0.4
		c-0.2-0.1-0.4-0.2-0.6-0.3c-0.2-0.1-0.3-0.3-0.5-0.5c-0.2-0.4-0.3-0.8-0.3-1.2c0-0.4-0.1-0.9-0.4-1.4c-0.1-0.2-0.3-0.4-0.5-0.7
		c-0.2-0.3-0.3-0.5-0.3-0.5c-0.1-0.2-0.3-0.6-0.5-1c-0.2-0.4-0.3-0.7-0.4-0.9c-0.2-0.3-0.3-0.5-0.5-0.6c-0.1-0.1-0.3-0.3-0.5-0.6
		c-0.1-0.1-0.1-0.2-0.2-0.4S3,53.8,3,53.6c-0.1-0.2-0.2-0.5-0.3-0.7c-0.1-0.2-0.2-0.4-0.3-0.6l-1-1.6c-0.4-0.8-0.7-1.5-1-2.1
		C0.1,48,0,47.5,0,47.1c0-0.5,0.1-0.9,0.3-1.4s0.5-1,1-1.7c0.3-0.4,0.5-0.8,0.7-1.1s0.3-0.6,0.5-0.9s0.4-0.5,0.7-0.8
		c0.3-0.3,0.6-0.5,1.1-0.8c1.1-0.7,2.1-1,3.1-1.1c1-0.1,2,0.1,3,0.4c1,0.3,1.8,0.9,2.6,1.6c0.8,0.7,1.5,1.6,2.1,2.5
		c0.1,0.2,0.3,0.6,0.6,1.4c0.3,0.7,0.6,1.5,1.1,2.3c0.1,0.2,0.3,0.5,0.6,1s0.5,0.8,0.8,1.2c0.1,0.2,0.2,0.4,0.3,0.6
		c0,0.2-0.1,0.4-0.3,0.5c-0.2,0.1-0.3,0.1-0.5-0.1c-0.2-0.2-0.3-0.4-0.5-0.6c-0.1-0.1-0.2-0.3-0.3-0.5s-0.2-0.5-0.5-0.9
		c-0.2-0.3-0.5-0.4-0.9-0.2c-0.2,0.1-0.3,0.3-0.2,0.5s0.1,0.5,0.2,0.7c0.1,0.2,0.2,0.5,0.3,0.7c0.1,0.2,0,0.3-0.1,0.4
		C15.4,50.9,15.2,51,15,51c-0.1,0-0.3-0.1-0.3-0.2c-0.1-0.1-0.1-0.3-0.2-0.5c-0.1-0.3-0.2-0.5-0.2-0.5c-0.2-0.3-0.4-0.5-0.7-0.5
		S13,49,12.7,49s-0.6-0.1-0.9-0.1c-0.3-0.1-0.5-0.3-0.8-0.6c-0.1-0.2-0.3-0.5-0.4-1c-0.1-0.5-0.3-0.8-0.4-1c-0.3-0.4-0.5-0.8-0.8-1
		c-0.3-0.2-0.5-0.3-0.7-0.4c-0.2-0.1-0.4-0.1-0.5,0C8.1,44.9,8,44.9,8,45c-0.4,0.3-0.5,0.5-0.3,0.8c0.1,0.1,0.3,0.3,0.5,0.6
		c0.3,0.3,0.5,0.5,0.6,0.8c0.2,0.4,0.4,0.8,0.5,1.2c0.1,0.4,0.1,0.7-0.1,0.8c-0.1,0.1-0.3,0.1-0.5,0.1c-0.2,0-0.3-0.1-0.4-0.3
		c-0.1-0.2-0.2-0.5-0.3-0.7c-0.1-0.3-0.1-0.5-0.3-0.7c-0.1-0.2-0.3-0.3-0.4-0.4c-0.1,0-0.3,0-0.3,0c-0.1,0.1-0.2,0.2-0.2,0.5
		c0,0.2,0,0.5,0.1,0.8C6.9,48.8,7,49,7.1,49.3c0.1,0.3,0.2,0.5,0.3,0.7c0.3,0.4,0.5,0.8,0.7,1c0.2,0.3,0.4,0.5,0.5,0.6
		C8.8,51.9,8.9,52,9,52.1c0.1,0.1,0.3,0.3,0.4,0.5C9.7,53,9.7,53.4,9.7,54c-0.1,0.5,0.1,1,0.3,1.4c0,0.1,0.2,0.2,0.4,0.5
		s0.5,0.6,0.8,1c0.3,0.4,0.6,0.8,1,1.2c0.3,0.5,0.6,0.9,0.9,1.3c0.4,0.7,0.8,1.3,0.9,1.8c0.1,0.5,0.3,0.8,0.4,1
		c0.1,0.2,0.3,0.5,0.5,0.7c0.2,0.2,0.5,0.5,0.9,0.8c0.3,0.3,0.5,0.5,0.8,0.8c0.2,0.3,0.5,0.5,0.7,0.7c0.2,0.2,0.5,0.3,0.8,0.3
		c0.3,0,0.6-0.1,1-0.3c0.5-0.3,0.7-0.8,0.8-1.4c0.1-0.7-0.1-1.3-0.5-1.9c-0.1-0.2-0.4-0.5-0.7-0.7c-0.3-0.2-0.5-0.5-0.6-0.6
		c-0.1-0.1-0.1-0.3-0.2-0.5c-0.1-0.2-0.1-0.5-0.2-0.7s-0.1-0.5-0.1-0.7c-0.1-0.2-0.1-0.3-0.2-0.4c-0.3-0.4-0.6-0.6-1-0.5
		c-0.4,0-0.7,0.1-0.8,0.1c-0.1,0.1-0.2,0.2-0.3,0.3c-0.1,0.1-0.1,0.3,0,0.4c0.2,0.3,0.4,0.6,0.7,0.9c0.3,0.3,0.5,0.5,0.7,0.9
		c0.3,0.5,0.3,0.9-0.1,1.1c-0.3,0.2-0.7,0.1-1-0.4c-0.1-0.1-0.1-0.2-0.3-0.5c-0.1-0.2-0.2-0.4-0.3-0.5c-0.3-0.4-0.6-0.8-1-1
		c-0.4-0.3-0.8-0.7-1.2-1.2c-0.4-0.7-0.6-1.3-0.6-1.9c0-0.6,0.3-1.1,0.8-1.4c0.1-0.1,0.2-0.1,0.4-0.2s0.2-0.1,0.3-0.1
		c0.1-0.1,0.3-0.3,0.6-0.5c0.3-0.3,0.6-0.5,0.8-0.6c0.2-0.1,0.4-0.2,0.7-0.2c0.3,0,0.5-0.1,0.8-0.1c0.3,0,0.5-0.1,0.8-0.1
		c0.3,0,0.5-0.1,0.7-0.2c0.6-0.3,1-0.5,1.2-0.5s0.4,0.2,0.7,0.6c0.2,0.3,0.4,0.8,0.6,1.3c0.2,0.5,0.3,0.9,0.5,1.2
		c0.1,0.1,0.2,0.3,0.4,0.5s0.4,0.4,0.6,0.7c0.2,0.2,0.4,0.5,0.6,0.7c0.2,0.2,0.3,0.4,0.5,0.6c0.3,0.5,0.6,1.1,1,1.8s0.7,1.4,1,1.8
		c0.1,0.2,0.4,0.5,0.8,0.8C26.3,61.7,26.6,62.1,26.7,62.3z"/>
</g>
<g class="st0">
	<path class="st1" d="M20.3,31.8c0.3-0.1,0.7-0.1,1.2-0.1c0.5,0,1-0.1,1.4-0.3c0.6-0.3,1-0.6,1.3-0.9c0.3-0.3,0.6-0.6,1-0.8
		c0.4-0.2,0.7-0.2,0.9,0.1c0.2,0.2,0.5,0.6,1,1.2l1,1.2c0.2,0.3,0.4,0.5,0.6,0.8c0.2,0.3,0.3,0.5,0.5,0.8c0.1,0.2,0.2,0.5,0.3,0.9
		c0.1,0.4,0.2,0.7,0.3,0.9c0.5,1.1,1.1,2.1,1.7,3.1c0,0.1,0.2,0.3,0.6,0.7s0.8,1,1.3,1.6c0.5,0.7,1,1.4,1.6,2.1
		c0.5,0.8,0.9,1.5,1.3,2.2c0.3,0.6,0.6,1.1,0.9,1.5c0.3,0.4,0.6,0.8,0.9,1c0.3,0.3,0.5,0.6,0.8,0.9c0.3,0.3,0.5,0.7,0.7,1.1
		c0.1,0.3,0.4,0.8,0.8,1.3c0.3,0.6,0.9,1.2,1.5,2c0.6,0.7,1,1.3,1.4,1.7c0.4,0.4,0.7,0.8,0.9,1.1s0.4,0.6,0.5,0.8
		c0.1,0.2,0.3,0.5,0.4,0.8c0.5,1.2,0.5,1.9-0.3,2.3c-0.5,0.2-0.8,0.1-1-0.4c-0.1-0.1-0.1-0.3-0.2-0.5c-0.1-0.2-0.1-0.3-0.2-0.5
		c-0.2-0.3-0.4-0.5-0.6-0.3c-0.2,0.1-0.3,0.2-0.2,0.5c0,0.2,0.1,0.5,0.1,0.7s0.1,0.5,0.2,0.7c0,0.2,0,0.4-0.2,0.5
		c-0.1,0.1-0.3,0-0.5-0.1c-0.2-0.2-0.3-0.3-0.5-0.6c-0.2-0.2-0.3-0.4-0.5-0.6c-0.2-0.2-0.3-0.2-0.4-0.2c-0.1,0.1-0.1,0.4,0.1,0.9
		c0.1,0.1,0.2,0.3,0.3,0.6c0.2,0.3,0.3,0.5,0.4,0.8c0.1,0.3,0.2,0.5,0.1,0.7c0,0.2-0.1,0.3-0.3,0.4c-0.2,0.1-0.4,0-0.7-0.2
		c-0.2-0.2-0.5-0.5-0.7-0.8c-0.2-0.3-0.4-0.8-0.6-1.2c-0.2-0.4-0.4-0.8-0.6-1.2c-0.3-0.5-0.6-1-1-1.5c-0.4-0.5-0.8-1.1-1.1-1.8
		c-0.3-0.7-0.6-1.2-1-1.6s-0.7-0.5-1-0.4c-0.1,0.1-0.2,0.2-0.2,0.5c0,0.2,0,0.5,0.1,0.8c0.1,0.3,0.1,0.5,0.1,0.8
		c0,0.3-0.1,0.4-0.3,0.5c-0.1,0.1-0.3,0.1-0.5,0c-0.2-0.1-0.5-0.2-0.7-0.3s-0.5-0.3-0.7-0.3c-0.2-0.1-0.3-0.1-0.4-0.1
		c-0.2,0.1-0.2,0.3-0.1,0.7c0.1,0.3,0.3,0.5,0.4,0.6c0.1,0.1,0.3,0.3,0.4,0.6c0.1,0.2,0,0.4-0.2,0.7c-0.2,0.3-0.3,0.5-0.1,0.8
		c0.1,0.2,0.2,0.4,0.5,0.6c0.2,0.2,0.4,0.5,0.5,0.7c0.2,0.4,0.2,0.6,0.1,0.8c-0.1,0.2-0.3,0.3-0.4,0.5c-0.1,0.2-0.3,0.4-0.3,0.7
		c-0.1,0.3,0.1,0.8,0.3,1.5c0.2,0.3,0.3,0.7,0.4,1c0.1,0.3,0,0.5-0.3,0.7c-0.3,0.1-0.5,0.1-0.7-0.1c-0.2-0.2-0.4-0.4-0.5-0.7
		c-0.2-0.3-0.3-0.5-0.5-0.7c-0.2-0.2-0.3-0.3-0.5-0.2c-0.1,0-0.1,0.1-0.2,0.3c-0.1,0.2-0.1,0.3-0.1,0.5c0,0.2-0.1,0.3-0.1,0.5
		c-0.1,0.2-0.1,0.3-0.2,0.3c-0.3,0.1-0.5,0-0.7-0.3c-0.1-0.2-0.1-0.4-0.2-0.5c0-0.2-0.1-0.3-0.1-0.6c-0.1-0.3-0.1-0.5-0.3-0.8
		c-0.1-0.3-0.3-0.8-0.5-1.3c-0.3-0.5-0.5-1.1-0.8-1.7s-0.4-1.1-0.5-1.5l-0.5-2.1L25.6,52c-0.1-0.5-0.2-0.9-0.3-1.1
		c-0.1-0.1-0.1-0.2-0.3-0.3c-0.1,0-0.2-0.2-0.3-0.3c-0.1-0.2-0.2-0.5-0.3-0.9c-0.1-0.3-0.1-0.8-0.2-1.2c-0.1-0.5-0.2-0.9-0.3-1.3
		s-0.2-0.8-0.4-1.3c-0.2-0.5-0.3-1-0.6-1.8c-0.2-0.7-0.5-1.7-0.8-2.9c-0.2-0.8-0.5-1.6-0.9-2.6c-0.4-1-0.7-1.9-1-2.9
		c-0.3-0.9-0.5-1.7-0.6-2.4C19.8,32.4,19.9,32,20.3,31.8z M28.4,44.7c-0.1,0.1-0.2,0.2-0.2,0.5s0.1,0.5,0.1,0.9
		c0.1,0.3,0.2,0.7,0.3,1c0.1,0.3,0.3,0.7,0.4,0.9c0.1,0.3,0.3,0.5,0.5,0.7c0.2,0.1,0.3,0.3,0.4,0.4c0,0.1,0.1,0.2,0,0.4
		c0,0.2,0,0.5,0.2,0.8c0.2,0.3,0.7,0.3,1.6-0.1c0.5-0.2,0.8-0.4,0.9-0.6c0.1-0.2,0.2-0.4,0.1-0.5c-0.1-0.1-0.2-0.3-0.3-0.5
		c-0.2-0.2-0.3-0.5-0.5-0.8C31.5,47,31.2,46.4,31,46c-0.2-0.4-0.4-0.8-0.5-0.9c-0.1-0.2-0.3-0.3-0.3-0.3c-0.1,0-0.1-0.1-0.1,0
		c-0.1,0.1-0.1,0.2-0.1,0.3c0,0.2,0.1,0.3,0.1,0.5s0.1,0.4,0.1,0.6c0,0.2-0.1,0.3-0.2,0.4c-0.1,0.1-0.3,0-0.4-0.2
		c-0.1-0.2-0.3-0.4-0.4-0.7c-0.1-0.3-0.3-0.5-0.4-0.7C28.6,44.7,28.5,44.7,28.4,44.7z"/>
</g>
<g class="st0">
	<path class="st1" d="M60.8,50c0.2,0.5,0.1,0.8,0,1.2c-0.2,0.3-0.4,0.7-0.6,1c-0.3,0.3-0.5,0.6-0.7,0.9c-0.2,0.3-0.2,0.6-0.1,0.9
		c0,0.1,0.1,0.2,0.3,0.4c0.1,0.2,0.3,0.5,0.4,0.8c0.3,0.8,0.4,1.4,0.5,2.1c0,0.6-0.1,1-0.3,1.1c-0.3,0.1-0.5-0.1-0.7-0.6
		c-0.1-0.3-0.2-0.7-0.3-1c-0.1-0.3-0.1-0.5-0.2-0.7c-0.1-0.2-0.2-0.5-0.3-0.9c-0.1-0.3-0.3-0.7-0.5-1c-0.2-0.3-0.3-0.6-0.5-0.8
		c-0.1-0.2-0.3-0.3-0.4-0.3c-0.2,0.1-0.3,0.1-0.4,0.3c-0.1,0.1-0.2,0.2-0.2,0.3c0,0.1-0.1,0.2-0.1,0.3s-0.1,0.2-0.2,0.2
		c-0.1,0-0.2,0-0.3,0c-0.1,0-0.2-0.1-0.2-0.3c0-0.1-0.1-0.4-0.1-0.8c0-0.4-0.1-0.8-0.2-1.1c-0.3-0.7-0.7-1.4-1.4-2.1
		c-0.7-0.7-1.3-1.4-1.7-2c-0.4-0.6-0.7-1.1-0.8-1.4c-0.1-0.2-0.1-0.4-0.1-0.5c0-0.2-0.1-0.3-0.1-0.5c-0.2-0.5-0.5-0.9-1-1.2
		c-0.5-0.3-0.7-0.6-0.9-1c-0.1-0.3-0.2-0.6-0.2-0.8c0-0.2,0-0.4-0.1-0.7c-0.1-0.3-0.3-0.5-0.6-0.3c-0.2,0.1-0.4,0.2-0.6,0.5
		c-0.1,0.2-0.1,0.6,0.1,1.1c0.1,0.3,0.2,0.6,0.3,0.7c0.1,0.1,0.1,0.2,0.2,0.4c0,0.1,0,0.2,0,0.3c0,0.1-0.1,0.1-0.2,0.1
		c-0.1,0.1-0.3,0-0.4-0.2c-0.1-0.2-0.3-0.4-0.4-0.6s-0.2-0.4-0.3-0.5c-0.1-0.1-0.2-0.2-0.4-0.2c-0.2,0.1-0.2,0.4,0,0.9
		c0,0.1,0.1,0.3,0.3,0.6c0.1,0.3,0.3,0.6,0.4,0.9c0.1,0.3,0.3,0.6,0.4,0.9s0.2,0.4,0.2,0.5c0.1,0.1,0.1,0.4,0.2,0.7
		c0.1,0.3,0.2,0.8,0.3,1.2c0.1,0.5,0.2,0.9,0.4,1.4c0.1,0.5,0.3,0.9,0.4,1.3c0.2,0.6,0.5,1.2,0.9,1.7c0.4,0.5,0.7,1.2,0.9,1.8
		c0.3,0.8,0.5,1.4,0.5,1.7c0.1,0.3,0,0.5-0.3,0.6c-0.2,0.1-0.4,0.1-0.6-0.1c-0.2-0.2-0.3-0.3-0.4-0.5c-0.1-0.2-0.3-0.4-0.4-0.6
		C50,56,49.9,55.9,49.7,56c-0.3,0.1-0.5,0.3-0.6,0.7c-0.1,0.4-0.1,0.7,0,1s0.3,0.7,0.5,1.1c0.2,0.4,0.4,0.6,0.4,0.8
		c0.1,0.3,0,0.5-0.4,0.6c-0.2,0.1-0.4,0-0.5-0.1c-0.1-0.2-0.2-0.4-0.3-0.6c0-0.1-0.1-0.3-0.2-0.5c-0.1-0.3-0.1-0.5-0.2-0.6
		c-0.1-0.3-0.3-0.6-0.4-0.9c-0.2-0.3-0.6-0.5-1.2-0.6c-0.5-0.1-0.8-0.2-1-0.4c-0.1-0.2-0.2-0.3-0.3-0.5c0-0.1-0.1-0.3-0.1-0.5
		c0-0.2,0-0.5,0-0.8c0-0.3,0-0.5,0-0.8c0-0.3,0-0.5-0.1-0.6c-0.1-0.4-0.3-0.8-0.6-1.2s-0.5-0.8-0.7-1.2c-0.2-0.4-0.5-0.8-0.7-1
		c-0.2-0.3-0.3-0.5-0.4-0.7c-0.2-0.5-0.3-0.9-0.4-1.5c-0.1-0.5-0.2-1-0.2-1.5c-0.1-0.5-0.1-0.9-0.1-1.3c0-0.4-0.1-0.6-0.1-0.8
		c-0.1-0.3-0.3-0.7-0.5-1.2s-0.5-1-0.8-1.4c-0.3-0.5-0.5-1-0.8-1.4c-0.2-0.4-0.4-0.7-0.5-0.9c-0.2-0.7-0.3-1.4-0.2-2.2
		s0-1.6-0.2-2.3c-0.2-0.6-0.5-1.2-1-1.8s-0.8-0.9-0.9-1.2c-0.1-0.3-0.4-0.7-0.8-1.2c-0.3-0.4-0.6-0.8-0.7-1.1
		c-0.1-0.3-0.2-0.7-0.3-1.2c-0.1-0.5-0.2-0.9-0.3-1.2c0-0.1-0.1-0.2-0.2-0.4c-0.1-0.2-0.2-0.3-0.3-0.5c-0.1-0.2-0.1-0.5,0.1-0.6
		s0.3-0.3,0.5-0.4c0.1-0.1,0.3-0.1,0.5-0.1s0.5,0,0.7,0c0.2,0,0.5,0,0.7,0c0.2,0,0.4,0,0.5,0c0.2-0.1,0.5-0.2,0.9-0.4
		c0.3-0.2,0.6-0.3,0.9-0.4c0.5-0.2,1.1-0.3,1.8-0.5c0.7-0.2,1.3-0.3,1.8-0.5l-0.1,0C44.8,23,46,22.9,47,23c1,0.1,1.7,0.3,2.3,0.5
		c0.5,0.3,1,0.5,1.2,0.9c0.2,0.3,0.5,0.6,0.6,0.9c0.3,0.6,0.6,1.1,0.9,1.6c0.3,0.5,0.5,1.1,0.8,1.8c0.1,0.3,0.2,0.9,0.3,1.5
		s0.1,1.2,0.3,1.5c0.2,0.5,0.4,1.2,0.6,2.1c0.2,0.9,0.4,1.6,0.6,2.1c0.1,0.3,0.2,0.5,0.3,0.6c0.1,0.1,0.2,0.3,0.2,0.3
		c0.1,0.3,0.1,0.5,0,0.8c-0.1,0.3-0.3,0.4-0.5,0.5c-0.2,0.1-0.5,0-0.8-0.3c-0.3-0.2-0.6-0.3-0.8-0.3c-0.1,0.1-0.2,0.1-0.1,0.3
		c0.1,0.3,0.3,0.6,0.7,0.8s0.5,0.5,0.7,0.8c0.1,0.2,0.1,0.4,0.1,0.6s0,0.4,0.1,0.7c0.1,0.3,0.3,0.7,0.7,1c0.4,0.5,0.8,0.8,0.9,1
		c0.1,0.1,0.3,0.3,0.5,0.6c0.1,0.2,0.3,0.5,0.4,0.8c0.1,0.3,0.3,0.7,0.4,1c0.1,0.3,0.3,0.7,0.4,1c0.1,0.3,0.3,0.5,0.4,0.7
		c0.1,0.2,0.3,0.3,0.6,0.6c0.3,0.2,0.6,0.5,0.9,0.7c0.3,0.3,0.6,0.5,0.8,0.8C60.6,49.5,60.7,49.7,60.8,50z M47.9,33.3
		c-0.3-0.8-0.5-1.2-0.7-1.4c-0.2-0.1-0.3-0.3-0.4-0.5c-0.1-0.3-0.2-0.6-0.2-0.7c0-0.1,0-0.3-0.1-0.5c-0.2-0.6-0.5-1.1-1-1.4
		c-0.5-0.3-1-0.4-1.6-0.1c-0.3,0.1-0.4,0.3-0.4,0.7s0.1,0.7,0.2,1c0,0.1,0.1,0.2,0.2,0.4c0.1,0.2,0.1,0.3,0.1,0.3
		c0.1,0.3,0.1,0.5-0.1,0.6c-0.2,0.1-0.3,0-0.5-0.1c-0.1-0.1-0.2-0.3-0.3-0.5c-0.1-0.2-0.2-0.3-0.4-0.5c-0.1-0.1-0.3-0.2-0.4-0.1
		c-0.1,0.1-0.1,0.3,0,0.7c0,0.1,0.1,0.3,0.3,0.6c0.1,0.3,0.3,0.7,0.5,1c0.2,0.3,0.3,0.7,0.5,1s0.2,0.5,0.3,0.6
		c0.1,0.3,0.1,0.5,0.1,0.8s0,0.5,0.1,0.7c0.1,0.4,0.4,0.5,0.8,0.4c0.2-0.1,0.3-0.1,0.4-0.2c0.1-0.1,0.2-0.2,0.3-0.2
		c0.1,0,0.3,0,0.4,0.1c0.1,0.1,0.3,0.2,0.5,0.3c0.2,0.1,0.3,0.2,0.5,0.3c0.2,0.1,0.4,0.1,0.5,0c0.4-0.1,0.6-0.5,0.7-1.2
		C48.3,34.9,48.2,34.2,47.9,33.3z"/>
</g>
<g class="st0">
	<path class="st1" d="M76.4,40.5c0,0.1,0.1,0.3,0.2,0.5s0.2,0.4,0.3,0.6c0.1,0.2,0.2,0.4,0.3,0.6c0.1,0.2,0.2,0.3,0.2,0.4
		c0.2,0.6,0,1-0.4,1.2c-0.3,0.1-0.4,0.1-0.5,0c-0.1-0.1-0.2-0.1-0.2-0.1c-0.1,0-0.2,0.2-0.2,0.6c0,0.4,0.1,0.7,0.1,1.1
		c0,0.4,0.1,0.8,0.1,1.2s-0.1,0.6-0.3,0.6c-0.3,0.1-0.5,0-0.7-0.2s-0.5-0.2-0.7-0.2c-0.3,0.1-0.3,0.3-0.3,0.8c0.1,0.5,0.2,1,0.3,1.5
		c0.1,0.5,0.3,1,0.3,1.5c0.1,0.5,0,0.7-0.1,0.8c-0.2,0.1-0.3,0-0.5-0.2C74.1,51,74,50.8,74,50.7c0-0.1-0.1-0.3-0.1-0.5
		c-0.1-0.2-0.1-0.4-0.2-0.7c-0.1-0.2-0.1-0.4-0.1-0.6c-0.1-0.2-0.1-0.3-0.1-0.4c-0.1-0.3-0.3-0.5-0.6-0.4c-0.2,0.1-0.3,0.2-0.3,0.5
		c0,0.3-0.1,0.4-0.3,0.5c-0.2,0.1-0.4,0-0.7-0.2c-0.3-0.2-0.5-0.3-0.8-0.2c-0.2,0.1-0.3,0.1-0.4,0.3c0,0.1-0.1,0.2-0.3,0.3
		c-0.2,0.1-0.4,0-0.6-0.2c-0.2-0.2-0.4-0.3-0.7-0.2c-0.2,0.1-0.3,0.2-0.3,0.4c0,0.2,0,0.4,0.1,0.6c0.1,0.3,0.2,0.6,0.3,0.9
		c0.1,0.3,0.2,0.5,0.3,0.7c0.1,0.3,0.1,0.5,0.1,0.7c0,0.2-0.2,0.4-0.5,0.5c-0.3,0.1-0.6,0-0.8-0.3c-0.2-0.3-0.4-0.6-0.5-1
		c-0.1-0.4-0.3-0.7-0.4-1c-0.1-0.3-0.3-0.4-0.5-0.4c-0.3,0.1-0.4,0.3-0.4,0.6c0,0.3,0.1,0.7,0.1,1s0.1,0.7,0.1,1
		c0,0.3-0.1,0.5-0.3,0.6c-0.1,0-0.4,0-0.7,0c-0.3,0-0.5-0.3-0.7-0.8c-0.1-0.4-0.2-0.6-0.4-0.7s-0.3-0.2-0.5-0.3s-0.3-0.1-0.4-0.2
		c-0.1-0.1-0.2-0.2-0.3-0.4c-0.2-0.6-0.3-1.3-0.3-1.9c0-0.6-0.1-1.3-0.4-2.1c-0.1-0.3-0.1-0.5-0.2-0.6c-0.1-0.1-0.2-0.2-0.3-0.3
		s-0.2-0.2-0.3-0.3c-0.1-0.1-0.1-0.2-0.2-0.4c-0.1-0.3-0.1-0.5-0.1-0.8c0-0.3-0.1-0.6-0.1-1c0-0.4-0.1-1-0.2-1.6
		c-0.1-0.7-0.2-1.6-0.4-2.7c-0.3-1.4-0.5-2.6-0.6-3.6c-0.2-1-0.3-1.8-0.5-2.4c-0.1-0.6-0.3-1.1-0.3-1.5C59,31,59,30.8,58.9,30.6
		c-0.2-0.9-0.5-1.3-0.6-1.2c-0.1,0.1-0.3,0.2-0.3,0.4c0,0.2-0.1,0.5-0.1,0.7c0,0.3,0,0.5-0.1,0.7c0,0.2-0.1,0.3-0.2,0.4
		c-0.1,0-0.3-0.1-0.4-0.3c-0.1-0.3-0.2-0.5-0.3-0.9c-0.1-0.5-0.2-1-0.1-1.6c0.1-0.5,0-1.2-0.2-1.9c-0.1-0.2-0.1-0.6-0.2-1
		c0-0.4-0.1-0.8-0.1-0.9c-0.2-0.8-0.5-1.6-0.8-2.3s-0.5-1-0.5-1.1c-0.1-0.5-0.1-1,0.1-1.6c0.2-0.5,0.5-0.9,1-1
		c0.1-0.1,0.4-0.1,0.7,0c0.3,0,0.6,0,0.8,0c0.1-0.1,0.4-0.2,0.7-0.4c0.3-0.2,0.6-0.3,1-0.4c0.1,0,0.3,0,0.6,0c0.4,0,0.6,0,0.8-0.1
		c0.2-0.1,0.5-0.2,0.8-0.4c0.4-0.2,0.7-0.4,1-0.4c0.3-0.1,0.8-0.1,1.3,0.1c0.5,0.1,0.9,0.2,1,0.2c1.6-0.1,2.9,0.2,3.9,0.9
		c1,0.7,1.7,1.5,1.9,2.4c0.3,0.9,0.5,1.6,0.8,2.1c0.3,0.5,0.4,0.8,0.4,0.9c0.1,0.3,0.2,0.7,0.3,1.1s0.1,1,0.2,1.6
		c0,0.6,0.1,1.2,0.2,1.6c0.1,0.5,0.2,0.9,0.2,1.2s0.1,0.6,0,0.8c0,0.2-0.2,0.3-0.4,0.4c-0.1,0-0.3,0-0.3-0.1
		c-0.1-0.1-0.2-0.1-0.3-0.1c-0.2,0.1-0.3,0.2-0.3,0.4c0,0.2-0.2,0.4-0.5,0.5c-0.3,0.1-0.4,0.1-0.5,0.1c-0.1,0-0.1,0.1,0,0.3
		c0.1,0.3,0.3,0.6,0.6,0.7s0.6,0.2,1,0.3c0.3,0.1,0.7,0.1,1,0.2c0.3,0.1,0.5,0.2,0.5,0.4c0.1,0.2,0.1,0.3,0,0.5
		c-0.1,0.1-0.1,0.2-0.1,0.3c0,0.1,0.2,0.3,0.6,0.5c0.5,0.3,0.9,0.7,1.1,1.2c0.2,0.5,0.4,1,0.5,1.6c0.1,0.5,0.3,1,0.3,1.5
		C76.1,39.3,76.3,39.9,76.4,40.5z M66.5,25.6c-0.1-0.4-0.2-0.5-0.3-0.5c-0.1,0-0.1,0.2-0.2,0.5c-0.1,0.3-0.2,0.5-0.4,0.6
		c-0.1,0-0.2,0-0.3,0S65,26,64.9,25.8c-0.1-0.4-0.1-0.8,0-1.2c0.1-0.4,0.1-0.9-0.1-1.4c-0.1-0.2-0.2-0.4-0.5-0.5
		c-0.3-0.1-0.5-0.1-0.8,0c-0.2,0.1-0.3,0.1-0.3,0.3c0,0.1-0.1,0.3-0.1,0.5s0,0.3,0.1,0.4c0,0.1,0,0.2-0.1,0.2c-0.1,0-0.2,0-0.3-0.2
		c-0.1-0.1-0.2-0.3-0.3-0.5c-0.1-0.2-0.2-0.3-0.3-0.5c-0.1-0.1-0.2-0.2-0.3-0.2c-0.1,0.1-0.2,0.2-0.3,0.4s0,0.5,0,0.8
		c0.1,0.3,0.1,0.6,0.2,0.9c0.1,0.3,0.1,0.5,0.2,0.8c0.1,0.2,0.1,0.5,0.2,0.6c0.1,0.2,0.1,0.3,0.2,0.5c0.1,0.4,0.1,0.8,0,1.2
		c-0.1,0.4-0.1,0.8,0,1.1c0.1,0.4,0.3,0.8,0.7,1c0.3,0.2,0.7,0.4,1.1,0.5c0.4,0.1,0.8,0.2,1.1,0.2c0.4,0,0.7,0,0.9-0.1
		c0.4-0.1,0.7-0.4,0.9-1c0.1-0.5,0.1-1.1,0-1.6c0-0.1-0.1-0.3-0.2-0.5c-0.1-0.1-0.2-0.3-0.2-0.5c-0.1-0.2-0.1-0.5,0-0.9
		C66.5,26,66.5,25.8,66.5,25.6z M71.4,41.6c-0.1-0.2-0.1-0.3-0.3-0.3c-0.2-0.1-0.3-0.1-0.5-0.1c-0.2,0-0.3-0.1-0.5-0.1
		c-0.1,0-0.2-0.1-0.3-0.3c-0.1-0.5-0.2-1.1-0.2-1.7c0-0.6-0.1-1.1-0.1-1.4c-0.2-0.7-0.5-1-1-0.8c-0.1,0-0.2,0.2-0.2,0.4
		c0,0.2,0.1,0.4,0.1,0.7c0.1,0.2,0.1,0.5,0.1,0.7c0,0.2,0,0.3-0.2,0.4c-0.3,0.1-0.5,0-0.7-0.3c-0.2-0.3-0.4-0.6-0.5-1.1
		c0-0.1-0.1-0.3-0.1-0.5c0-0.2-0.1-0.5-0.1-0.8c-0.1-0.4-0.3-0.5-0.5-0.5c-0.2,0.1-0.4,0.3-0.5,0.9c-0.1,0.5,0,1.2,0.2,2
		c0.2,0.6,0.4,1.1,0.8,1.4c0.4,0.3,0.6,0.6,0.6,0.8c0.1,0.2,0,0.3-0.3,0.4c-0.1,0-0.3,0-0.5-0.1c-0.2-0.1-0.4-0.1-0.5,0
		c-0.3,0.1-0.3,0.3-0.2,0.6c0.1,0.3,0.2,0.5,0.3,0.7c0.2,0.2,0.3,0.5,0.5,1c0.1,0.2,0.1,0.3,0.3,0.5c0.1,0.1,0.3,0.1,0.4,0.1
		c0.1,0,0.1-0.1,0.2-0.1c0.1-0.1,0.2-0.1,0.2-0.1c0.3-0.1,0.5,0,0.7,0.2c0.1,0.2,0.3,0.3,0.4,0.3c0.9-0.3,1.6-0.6,2-1.2
		C71.3,42.4,71.5,42,71.4,41.6z"/>
</g>
<g class="st0">
	<path class="st1" d="M77.8,12.8c0.3,0,0.7,0.1,1.2,0.1c0.5,0.1,1,0.1,1.4,0c0.6-0.1,1.2-0.3,1.5-0.6c0.3-0.3,0.7-0.5,1.1-0.5
		c0.4-0.1,0.7,0,0.8,0.3c0.1,0.3,0.3,0.7,0.7,1.4l0.8,1.4c0.1,0.3,0.3,0.6,0.4,0.9c0.1,0.3,0.2,0.6,0.3,0.8c0.1,0.2,0.1,0.5,0.1,0.9
		c0,0.4,0.1,0.7,0.1,1c0.3,1.2,0.6,2.3,1,3.4c0,0.1,0.1,0.3,0.4,0.8c0.3,0.5,0.6,1.1,1,1.9c0.4,0.8,0.7,1.6,1.1,2.4
		c0.3,0.8,0.6,1.6,0.8,2.4c0.1,0.6,0.3,1.2,0.5,1.6c0.2,0.4,0.4,0.8,0.6,1.2c0.2,0.3,0.4,0.7,0.6,1.1s0.3,0.8,0.4,1.2
		c0.1,0.3,0.2,0.8,0.4,1.5c0.2,0.6,0.6,1.4,1.1,2.3c0.4,0.8,0.8,1.5,1,2c0.3,0.5,0.5,0.9,0.6,1.3c0.1,0.3,0.3,0.7,0.3,0.9
		c0.1,0.3,0.2,0.5,0.3,0.9c0.3,1.3,0,2-0.8,2.2c-0.5,0.1-0.8-0.1-0.9-0.6c0-0.1-0.1-0.3-0.1-0.5s0-0.4-0.1-0.5
		c-0.1-0.4-0.3-0.5-0.5-0.5c-0.2,0-0.3,0.2-0.3,0.4c0,0.2,0,0.5,0,0.7c0,0.3,0,0.5,0,0.7c0,0.2-0.1,0.3-0.3,0.4
		c-0.1,0-0.3-0.1-0.4-0.2c-0.1-0.2-0.3-0.4-0.4-0.7c-0.1-0.3-0.2-0.5-0.4-0.7c-0.1-0.2-0.3-0.3-0.4-0.3c-0.2,0.1-0.2,0.4-0.1,0.9
		c0,0.1,0.1,0.4,0.2,0.7s0.2,0.6,0.3,0.8c0.1,0.3,0.1,0.5,0,0.7c-0.1,0.2-0.2,0.3-0.3,0.3c-0.2,0.1-0.4-0.1-0.6-0.3
		c-0.2-0.3-0.3-0.6-0.5-1c-0.1-0.4-0.3-0.8-0.4-1.3c-0.1-0.5-0.2-0.9-0.3-1.3c-0.1-0.5-0.4-1.1-0.7-1.6s-0.5-1.2-0.7-1.9
		c-0.2-0.8-0.4-1.4-0.6-1.8c-0.3-0.5-0.5-0.7-0.9-0.6c-0.1,0-0.3,0.2-0.3,0.4c0,0.2-0.1,0.5-0.1,0.8c0,0.3,0,0.5-0.1,0.8
		c-0.1,0.2-0.2,0.4-0.4,0.4c-0.1,0-0.3,0-0.5-0.1c-0.2-0.1-0.4-0.3-0.6-0.5c-0.2-0.2-0.4-0.3-0.6-0.5c-0.2-0.1-0.3-0.2-0.4-0.2
		c-0.2,0.1-0.3,0.3-0.2,0.6c0.1,0.3,0.2,0.5,0.3,0.6c0.1,0.1,0.2,0.3,0.3,0.6c0,0.2-0.1,0.4-0.3,0.6c-0.3,0.2-0.4,0.5-0.3,0.8
		c0,0.2,0.1,0.4,0.3,0.7c0.2,0.3,0.3,0.5,0.3,0.8c0.1,0.4,0.1,0.7-0.1,0.8c-0.2,0.1-0.3,0.3-0.5,0.4c-0.2,0.1-0.3,0.3-0.5,0.6
		c-0.1,0.3-0.1,0.8,0,1.5c0.1,0.4,0.1,0.7,0.1,1s-0.1,0.5-0.5,0.6c-0.3,0.1-0.5,0-0.7-0.2c-0.1-0.2-0.3-0.5-0.4-0.8
		c-0.1-0.3-0.2-0.5-0.3-0.8c-0.1-0.2-0.3-0.3-0.5-0.3c-0.1,0-0.2,0.1-0.3,0.3c-0.1,0.1-0.1,0.3-0.2,0.5c-0.1,0.1-0.1,0.3-0.2,0.5
		c-0.1,0.1-0.2,0.2-0.3,0.3c-0.3,0.1-0.5-0.1-0.6-0.4c-0.1-0.2-0.1-0.4-0.1-0.6s0-0.4,0-0.6c0-0.2,0-0.5-0.1-0.9
		c0-0.3-0.1-0.8-0.3-1.4c-0.1-0.6-0.3-1.2-0.4-1.8c-0.1-0.6-0.2-1.2-0.2-1.6l0-2.1l0.1-4.5c0-0.5,0-0.9-0.1-1.2
		c0-0.1-0.1-0.3-0.2-0.3c-0.1-0.1-0.2-0.2-0.2-0.4c-0.1-0.3-0.1-0.5-0.1-0.9c0-0.3,0-0.8,0.1-1.2c0-0.5,0-0.9,0-1.3
		c0-0.4-0.1-0.8-0.1-1.3c-0.1-0.5-0.1-1.1-0.2-1.8c-0.1-0.7-0.1-1.7-0.2-3c-0.1-0.8-0.1-1.7-0.3-2.8c-0.1-1-0.3-2.1-0.4-3
		s-0.1-1.8-0.1-2.5C77.2,13.3,77.4,12.9,77.8,12.8z M83,27.1c-0.1,0-0.3,0.2-0.3,0.4c0,0.3-0.1,0.5-0.1,0.9c0,0.3,0,0.7,0.1,1.1
		c0.1,0.4,0.1,0.7,0.2,1c0.1,0.3,0.2,0.6,0.3,0.8c0.1,0.2,0.2,0.3,0.3,0.5c0,0.1,0,0.2-0.1,0.4c-0.1,0.2-0.1,0.5,0,0.8
		c0.1,0.4,0.6,0.5,1.6,0.2c0.5-0.1,0.9-0.3,1-0.4c0.2-0.2,0.3-0.3,0.2-0.5c-0.1-0.2-0.1-0.3-0.2-0.6s-0.2-0.5-0.3-0.9
		c-0.2-0.8-0.3-1.4-0.4-1.8c-0.1-0.5-0.2-0.8-0.3-1s-0.2-0.3-0.2-0.4c-0.1-0.1-0.1-0.1-0.1-0.1c-0.1,0-0.2,0.1-0.2,0.3
		c0,0.2,0,0.4,0,0.6s0,0.4,0,0.6s-0.1,0.3-0.3,0.3c-0.1,0-0.3-0.1-0.4-0.3s-0.2-0.5-0.3-0.8c-0.1-0.3-0.1-0.5-0.2-0.8
		C83.2,27.1,83.1,27.1,83,27.1z"/>
</g>
<g class="st0">
	<path class="st1" d="M112.2,37.1c0,0.3,0,0.5,0,0.7c-0.1,0.2-0.1,0.5-0.3,0.7c-0.1,0.2-0.2,0.4-0.3,0.7c-0.1,0.2-0.1,0.4-0.1,0.5
		c0,0.1,0.2,0.3,0.4,0.6c0.3,0.2,0.4,0.5,0.5,0.8c0.1,0.3,0,0.6-0.1,0.8c-0.1,0.2-0.3,0.3-0.4,0.3c-0.3,0-0.5,0-0.6-0.2
		c-0.2-0.2-0.3-0.4-0.5-0.7c-0.1-0.3-0.3-0.5-0.3-0.7c-0.1-0.2-0.2-0.3-0.3-0.3c-0.1,0-0.1,0.2-0.2,0.4c0,0.3-0.1,0.4-0.2,0.5
		c-0.4,0.1-0.7-0.2-0.8-0.8c-0.1-0.3-0.1-0.6-0.1-0.9c0-0.3,0-0.6-0.1-1c0-0.3-0.2-0.3-0.4-0.3c-0.3,0.1-0.5,0.5-0.3,1.2
		c0.1,0.3,0.1,0.7,0.3,1c0.1,0.3,0.2,0.5,0.2,0.5c0.1,0.8,0.1,1.4-0.3,1.7c-0.3,0.3-0.6,0.5-0.9,0.6c-0.1,0-0.3,0-0.4-0.1
		c-0.1-0.1-0.3-0.2-0.3-0.4c-0.3-0.7-0.6-1.1-0.9-1.2s-0.6-0.2-0.8-0.1c-0.1,0-0.2,0.1-0.4,0.1c-0.2,0.1-0.3,0.1-0.5,0.2
		c-0.2,0.1-0.3,0.2-0.4,0.4c-0.1,0.2-0.1,0.3-0.1,0.5c0.2,0.9,0.3,1.8,0.4,2.5c0.1,0.7,0,1.2-0.4,1.2c-0.5,0.1-0.8-0.2-0.9-0.7
		c0-0.1,0-0.2-0.1-0.4s0-0.3-0.1-0.5c-0.2-1.3-0.5-2.1-0.7-2.5c-0.2-0.3-0.5-0.5-0.7-0.5c-0.1,0-0.3,0.1-0.4,0.3s-0.2,0.3-0.4,0.4
		c-0.2,0-0.4,0-0.7-0.1c-0.2-0.1-0.4-0.3-0.4-0.7c0-0.3,0-0.5,0-0.9c0.1-0.3,0.1-0.6,0.1-0.7c0-0.2-0.2-0.3-0.4-0.3
		c-0.1,0-0.2,0.1-0.2,0.2s-0.1,0.3-0.2,0.5c-0.1,0.2-0.1,0.3-0.2,0.5c-0.1,0.1-0.2,0.2-0.3,0.3c-0.3,0-0.4-0.1-0.5-0.3
		c0-0.2,0-0.5,0-0.9c0-0.4,0-0.9-0.1-1.4c-0.1-0.4-0.2-0.8-0.5-1.4c-0.3-0.5-0.5-1-0.5-1.3c0-0.2,0-0.4,0-0.6c0-0.2,0.1-0.4,0-0.6
		c0-0.1-0.1-0.3-0.1-0.5C96.1,34,96,33.7,96,33.6c-0.1-0.2-0.1-0.4-0.2-0.5c-0.1-0.1-0.1-0.2-0.1-0.3c0-0.2-0.1-0.4-0.1-0.7
		c-0.1-0.3-0.1-0.5-0.1-0.7c-0.1-0.4-0.2-0.7-0.3-0.9c-0.1-0.2-0.3-0.4-0.4-0.6c-0.1-0.2-0.3-0.3-0.4-0.5c-0.1-0.2-0.2-0.4-0.3-0.7
		c-0.1-0.4,0-0.9,0.2-1.3c0.2-0.4,0.2-0.9,0.1-1.4c0-0.2-0.1-0.5-0.2-0.8c-0.1-0.3-0.1-0.5-0.1-0.6c-0.1-0.3-0.1-0.6-0.1-1.1
		s0-0.8-0.1-1c-0.1-0.3-0.1-0.6-0.2-0.7c-0.1-0.1-0.2-0.4-0.2-0.8c0-0.1,0-0.3,0-0.5c0-0.2,0-0.5,0-0.7c0-0.2,0-0.5,0-0.7
		s0-0.5,0-0.6l-0.3-1.9c-0.1-0.9-0.1-1.7-0.1-2.3c0-0.6,0-1.1,0.2-1.6c0.1-0.4,0.4-0.8,0.8-1.2c0.3-0.4,0.9-0.8,1.6-1.2
		c0.4-0.3,0.8-0.5,1.1-0.8c0.3-0.2,0.5-0.4,0.8-0.6c0.3-0.2,0.6-0.3,0.9-0.5c0.3-0.1,0.8-0.3,1.4-0.3c1.2-0.2,2.3-0.2,3.3,0.1
		c1,0.3,1.8,0.8,2.6,1.5c0.8,0.7,1.4,1.5,1.8,2.5c0.5,1,0.8,2,1,3.2c0,0.2,0,0.7,0,1.5c0,0.8,0,1.6,0.2,2.5c0,0.3,0.1,0.6,0.3,1.1
		c0.1,0.5,0.2,1,0.3,1.4c0,0.3,0.1,0.5,0,0.7c0,0.2-0.2,0.3-0.5,0.4c-0.2,0-0.3-0.1-0.4-0.3s-0.2-0.5-0.2-0.7c0-0.1,0-0.3,0-0.6
		c0-0.2,0-0.6-0.1-1c-0.1-0.4-0.3-0.6-0.8-0.5c-0.2,0-0.3,0.2-0.4,0.4c-0.1,0.2-0.1,0.5,0,0.7c0,0.3,0,0.5,0,0.7s-0.1,0.3-0.3,0.3
		c-0.4,0.1-0.6,0.1-0.8,0c-0.1-0.1-0.2-0.2-0.2-0.3c0-0.1,0-0.3,0-0.6c0-0.3,0-0.5,0-0.6c-0.1-0.3-0.2-0.6-0.4-0.8
		c-0.2-0.1-0.5-0.3-0.8-0.4c-0.3-0.1-0.5-0.3-0.8-0.5c-0.2-0.2-0.4-0.5-0.5-0.9c0-0.3,0-0.6,0-1.1c0.1-0.5,0.1-0.8,0-1.1
		c-0.1-0.5-0.2-0.9-0.4-1.2c-0.2-0.3-0.3-0.5-0.5-0.6c-0.2-0.1-0.3-0.2-0.5-0.2s-0.3,0-0.3,0c-0.5,0.1-0.7,0.3-0.6,0.6
		c0,0.1,0.1,0.4,0.3,0.8c0.2,0.4,0.3,0.7,0.3,0.9c0.1,0.4,0.1,0.9,0.1,1.3s-0.2,0.6-0.4,0.7c-0.1,0-0.3,0-0.5,0s-0.3-0.2-0.3-0.4
		c0-0.3,0-0.5,0-0.8c0.1-0.3,0.1-0.5,0-0.7c0-0.3-0.1-0.4-0.3-0.5c-0.1-0.1-0.2-0.1-0.3-0.1c-0.1,0-0.3,0.1-0.4,0.3
		c-0.1,0.2-0.2,0.4-0.2,0.7c-0.1,0.3-0.1,0.6-0.1,0.9s0,0.5,0,0.8c0.1,0.5,0.2,0.9,0.3,1.2s0.2,0.6,0.3,0.8c0.1,0.2,0.2,0.4,0.2,0.5
		c0.1,0.2,0.1,0.3,0.2,0.6c0.1,0.5,0,1-0.2,1.4c-0.2,0.5-0.3,0.9-0.2,1.4c0,0.1,0.1,0.3,0.2,0.6c0.1,0.3,0.2,0.8,0.4,1.2
		c0.1,0.5,0.3,1,0.4,1.5c0.1,0.5,0.3,1,0.3,1.5c0.1,0.8,0.2,1.5,0.2,2c0,0.5,0,0.8,0,1c0,0.3,0.1,0.5,0.2,0.8c0.1,0.3,0.3,0.6,0.5,1
		c0.1,0.3,0.3,0.7,0.4,1c0.1,0.3,0.2,0.6,0.4,0.9c0.1,0.3,0.4,0.5,0.6,0.6c0.3,0.1,0.6,0.1,1.1,0.1c0.5-0.1,1-0.4,1.2-1
		c0.3-0.6,0.4-1.2,0.3-1.9c0-0.3-0.2-0.5-0.4-0.9c-0.2-0.3-0.3-0.6-0.3-0.8c0-0.1,0-0.3,0-0.5c0-0.2,0.1-0.5,0.1-0.7
		c0.1-0.3,0.1-0.5,0.1-0.7c0-0.2,0-0.4,0-0.5c-0.1-0.5-0.3-0.8-0.7-0.9c-0.4-0.1-0.6-0.2-0.7-0.2c-0.1,0-0.3,0.1-0.4,0.2
		c-0.1,0.1-0.2,0.2-0.2,0.4c0.1,0.4,0.2,0.7,0.3,1.1c0.1,0.3,0.3,0.7,0.3,1c0.1,0.6-0.1,0.9-0.5,1c-0.4,0.1-0.7-0.2-0.8-0.8
		c0-0.1,0-0.3-0.1-0.5c0-0.3-0.1-0.4-0.1-0.6c-0.1-0.5-0.3-0.9-0.6-1.3c-0.3-0.4-0.5-0.9-0.6-1.5c-0.1-0.8-0.1-1.4,0.1-2
		c0.2-0.5,0.6-0.9,1.3-1c0.1,0,0.3,0,0.4-0.1c0.1,0,0.3,0,0.3,0c0.1,0,0.4-0.1,0.8-0.3c0.4-0.2,0.7-0.3,0.9-0.3c0.2,0,0.4,0,0.7,0.1
		c0.3,0.1,0.5,0.1,0.8,0.2c0.3,0.1,0.5,0.1,0.8,0.2c0.3,0.1,0.5,0.1,0.7,0.1c0.7-0.1,1.1-0.1,1.3-0.1c0.2,0.1,0.3,0.3,0.4,0.8
		c0.1,0.4,0.1,0.8,0.1,1.4c0,0.5,0,1,0,1.4c0,0.1,0.1,0.4,0.2,0.6c0.1,0.3,0.2,0.5,0.3,0.8s0.2,0.6,0.3,0.9c0.1,0.3,0.2,0.5,0.2,0.7
		c0.1,0.5,0.1,1.2,0.2,2.1c0,0.8,0.1,1.5,0.2,2.1c0,0.2,0.2,0.5,0.4,1C112,36.3,112.2,36.7,112.2,37.1z"/>
</g>
<g class="st0">
	<path class="st1" d="M129.3,33.7c0,0.3,0,0.5-0.1,0.9c-0.1,0.3-0.1,0.6-0.1,0.9c0,0.1,0.1,0.3,0.1,0.6c0.1,0.3,0.1,0.6,0.2,0.9
		c0.1,0.5-0.1,0.8-0.6,0.9c-0.1,0-0.3,0-0.5,0c-0.2,0-0.4,0-0.7-0.1c-0.3,0-0.5-0.1-0.7-0.1c-0.2,0-0.4,0-0.5,0
		c-0.3,0-0.5,0.2-0.7,0.4c-0.1,0.2-0.2,0.5-0.2,0.8c0.1,0.4,0.3,0.7,0.4,0.9c0.2,0.2,0.3,0.6,0.4,1.3c0,0.2,0,0.3,0,0.4
		c0,0.1-0.2,0.1-0.4,0.2c-0.2,0-0.4-0.1-0.6-0.5c-0.2-0.3-0.4-0.7-0.6-1.1c-0.2-0.4-0.4-0.8-0.7-1.1c-0.2-0.3-0.4-0.5-0.7-0.5
		c-0.3,0.1-0.6,0.3-0.8,0.6c-0.2,0.3-0.3,0.6-0.2,0.8c0,0.2,0.1,0.3,0.2,0.5s0.2,0.3,0.2,0.5c0.1,0.4,0,0.7-0.1,0.9
		c-0.1,0.1-0.3,0.2-0.4,0.3c-0.4,0.1-0.7-0.1-0.9-0.3s-0.4-0.6-0.6-1c-0.2-0.3-0.3-0.7-0.5-1c-0.1-0.3-0.3-0.4-0.5-0.4
		c-0.1,0-0.1,0.1-0.3,0.4c-0.1,0.3-0.3,0.4-0.5,0.4c-0.1,0-0.4-0.1-0.7-0.3s-0.6-0.3-0.7-0.3c-0.1,0-0.2,0.1-0.3,0.2
		c-0.1,0.1-0.3,0.2-0.3,0.2c-0.2,0-0.4,0-0.5-0.2s-0.2-0.3-0.3-0.6c-0.1-0.2-0.1-0.5-0.1-0.7c0-0.2-0.1-0.4-0.1-0.5l-0.1-0.9
		c0-0.1,0-0.3-0.1-0.6c0-0.3,0-0.5-0.1-0.6l-0.1-1c-0.1-0.4-0.1-0.8-0.1-1.4c-0.1-0.6-0.1-1.2-0.1-1.8c0-0.6-0.1-1.2-0.1-1.8
		c-0.1-0.6-0.1-1-0.1-1.4c0-0.3-0.1-0.6,0-0.9c0-0.3,0-0.7,0.1-1c0-0.3,0.1-0.5,0.1-0.8s0.1-0.3,0-0.4c-0.1-0.4-0.3-0.6-0.8-0.5
		c-0.1,0-0.2,0.1-0.3,0.1c-0.1,0.1-0.2,0.1-0.3,0.1c-0.2,0-0.3-0.1-0.4-0.2c-0.1-0.2-0.1-0.3-0.1-0.5c0-0.1,0-0.3,0-0.4
		s0-0.3,0.1-0.5c0.2-0.5,0.3-1.1,0.3-1.8c0-0.6-0.1-1.2-0.1-1.8c-0.1-0.8-0.1-1.6,0-2.2c0.1-0.6,0.1-1.3,0.1-1.8
		c0-0.1-0.1-0.2-0.1-0.4c-0.1-0.1-0.1-0.3-0.3-0.6c-0.1-0.2-0.2-0.4-0.3-0.7c-0.1-0.2-0.1-0.4-0.1-0.6c0-0.3-0.1-0.5-0.1-0.9
		s0-0.6-0.1-0.8c0-0.2-0.1-0.4-0.2-0.8c-0.1-0.3-0.2-0.6-0.2-0.9c0-0.1,0-0.3,0-0.4s0-0.3,0-0.4c0-0.1-0.1-0.3-0.3-0.6
		c-0.2-0.2-0.3-0.4-0.3-0.6c-0.1-0.4,0.1-0.7,0.4-0.9s0.7-0.4,1.3-0.4c0.1,0,0.2,0,0.4,0s0.4,0,0.5-0.1c0.4-0.1,0.8-0.2,0.9-0.3
		c0.2-0.2,0.4-0.3,0.8-0.3c0.2,0,0.5,0,0.7,0.1c0.2,0.1,0.4,0.1,0.6,0.1c0.2,0,0.3-0.1,0.4-0.2c0.1-0.1,0.3-0.2,0.5-0.2
		c0.3-0.1,0.7,0,1.2,0.2c0.4,0.2,0.8,0.3,1.2,0.2c0.3,0,0.5-0.1,0.7-0.4c0.2-0.2,0.5-0.3,0.8-0.4c0.3,0,0.4,0,0.6,0
		c0.1,0.1,0.3,0.1,0.4,0.1c0.1,0,0.3-0.1,0.4-0.2s0.4-0.2,0.7-0.3c0.1,0,0.3,0.1,0.5,0.5c0.1,0.3,0.3,0.9,0.4,1.8
		c0,0.3,0.1,0.8,0.3,1.4c0.1,0.6,0.3,1.3,0.5,2c0.2,0.7,0.4,1.4,0.5,2.1c0.2,0.7,0.3,1.2,0.3,1.7c0.1,0.6-0.2,1-0.8,1
		c-0.4,0.1-0.7-0.1-0.8-0.6c0-0.1,0-0.2,0-0.4c0-0.2,0-0.4-0.1-0.6c0-0.2,0-0.3-0.1-0.5c0-0.2,0-0.3,0-0.3c-0.1-0.8-0.3-1.5-0.4-2.1
		s-0.3-0.9-0.5-0.9c-0.2,0-0.3,0.2-0.3,0.5c0,0.3,0,0.7,0.1,1.1c0,0.4,0.1,0.8,0,1.1c0,0.3-0.1,0.5-0.3,0.5c-0.3,0-0.5-0.1-0.6-0.3
		c-0.2-0.5-0.3-0.9-0.4-1.1s-0.2-0.4-0.3-0.5c-0.3-0.2-0.7-0.3-1-0.5c-0.3-0.1-0.6-0.2-0.9-0.1c-0.3,0-0.4,0.1-0.6,0.3
		c-0.1,0.2-0.3,0.3-0.3,0.5c-0.1,0.2-0.2,0.3-0.3,0.4c-0.1,0.1-0.2,0.2-0.3,0.2c-0.1,0-0.3,0-0.3,0c-0.1,0-0.2,0-0.3,0
		c-0.5,0.1-0.8,0.4-0.9,0.9c-0.1,0.5-0.1,1.1,0,1.8c0.1,0.7,0.3,1.3,0.5,1.8c0.3,0.5,0.5,1,0.9,1.3s0.6,0.6,1,0.7
		c0.3,0.1,0.5,0.2,0.8,0.2c0,0,0.1,0,0.3-0.1c0.2-0.1,0.3-0.1,0.5-0.2c0.2-0.1,0.4-0.1,0.5-0.2c0.2-0.1,0.3-0.1,0.3-0.1
		c0.3-0.1,0.7-0.2,1.1-0.3c0.4-0.1,0.7-0.1,0.8-0.1c0.3,0,0.5,0.1,0.6,0.2c0.2,0.2,0.3,0.5,0.3,0.8c0,0.2,0,0.4-0.1,0.8
		c-0.1,0.4-0.1,0.7-0.1,0.9c0,0.3,0.1,0.6,0.3,1c0.1,0.4,0.3,0.8,0.5,1.2c0.2,0.4,0.3,0.8,0.5,1.1c0.1,0.3,0.2,0.6,0.3,0.8
		c0.1,0.4,0,0.9-0.2,1.4c-0.2,0.5-0.4,0.8-0.6,0.8c-0.3,0-0.4-0.1-0.5-0.3c-0.1-0.3-0.2-0.5-0.3-0.9s-0.2-0.6-0.3-0.9
		c-0.1-0.3-0.3-0.3-0.6-0.3c-0.3,0-0.4,0.1-0.4,0.3c0,0.2,0,0.4,0,0.6c0,0.2,0,0.4,0,0.6c0,0.2-0.1,0.3-0.3,0.3
		c-0.1,0-0.3,0-0.4-0.2c-0.1-0.1-0.2-0.3-0.3-0.5c-0.1-0.2-0.2-0.3-0.3-0.5c-0.1-0.1-0.2-0.2-0.4-0.2c-0.1,0-0.3,0-0.5,0
		c-0.2,0-0.3-0.1-0.5,0c-0.4,0.1-0.6,0.2-0.5,0.5c0,0.2,0.1,0.5,0.3,0.8c0.2,0.3,0.3,1.1,0.5,2.1c0.1,0.3,0,0.8-0.1,1.4
		c-0.1,0.6-0.2,1-0.2,1.2c0.1,0.4,0.3,0.8,0.8,1.1c0.4,0.3,1.2,0.4,2.2,0.3c0.1,0,0.3-0.1,0.5-0.1c0.2,0,0.4-0.1,0.6-0.1
		c0.3-0.1,0.8-0.1,1.3,0s0.9,0.1,1.2,0c0.1,0,0.2,0,0.3-0.1c0.1,0,0.2-0.1,0.3-0.1c0.3-0.1,0.7,0.1,1.1,0.3
		C129.1,33.1,129.3,33.4,129.3,33.7z"/>
</g>
<g class="st0">
	<path class="st1" d="M144.9,3.3c0.7-0.1,1.3-0.2,1.8-0.3c0.5-0.2,0.9-0.3,1.3-0.3c1.4-0.1,2.6,0.2,3.5,0.9s1.6,1.6,2,2.7
		c0.4,1.1,0.8,1.9,1.1,2.5c0.6,0.9,1.1,1.8,1.4,2.5c0.3,0.7,0.4,1.2,0.5,1.4c0.1,0.7-0.1,1.3-0.5,1.7s-0.6,0.7-0.8,0.8
		c-0.3,0.3-0.5,0.6-0.7,0.9c-0.1,0.3-0.2,0.7-0.2,1.1c0,0.4-0.1,0.8-0.1,1.2c-0.1,0.4-0.1,0.8-0.3,1.2c-0.1,0.3-0.3,0.6-0.6,0.9
		c-0.2,0.3-0.5,0.6-0.7,0.9s-0.5,0.6-0.6,1c-0.2,0.3-0.3,0.7-0.2,1.1c0,0.2,0,0.3-0.1,0.6c-0.1,0.2-0.2,0.3-0.4,0.4
		c-0.1,0-0.3-0.1-0.3-0.3c-0.1-0.2-0.2-0.5-0.5-0.9c-0.1-0.1-0.3-0.3-0.6-0.3c-0.3-0.1-0.6-0.1-1-0.1c-0.4,0-0.7,0-1.1,0
		c-0.3,0-0.6,0-0.8,0.1c-0.8,0.1-1.1,0.4-1.1,1c0,0.2,0.1,0.5,0.2,0.8c0.1,0.4,0.2,0.7,0.2,0.9c0,0.3,0,0.5,0,0.9
		c0,0.4,0,0.7-0.1,1.1c0,0.3-0.1,0.7-0.1,1s0,0.6,0,0.8c0,0.2,0.1,0.4,0.2,0.6s0.3,0.5,0.5,0.8c0.2,0.3,0.3,0.5,0.5,0.8
		c0.1,0.3,0.2,0.5,0.3,0.7c0,0.4-0.1,0.7-0.3,1s-0.3,0.6-0.3,0.8c0,0.3,0.1,0.5,0.3,0.8c0.1,0.2,0.2,0.4,0.2,0.6
		c0,0.3,0,0.5-0.1,0.7c-0.1,0.2-0.3,0.4-0.4,0.6c-0.1,0.2-0.3,0.4-0.4,0.6c-0.1,0.2-0.2,0.4-0.1,0.7c0.1,0.5,0.1,1,0.2,1.4
		c0.1,0.4,0.2,0.8,0.2,1.2c0,0.2-0.1,0.3-0.3,0.4c-0.2,0.1-0.3,0.1-0.5,0.2c-0.3,0-0.5,0-0.7-0.2s-0.4-0.3-0.4-0.6
		c-0.1-0.5,0-1.1,0.2-1.6c0.2-0.5,0.3-1.1,0.2-1.7c0-0.3-0.2-0.5-0.4-0.6c-0.3-0.1-0.5-0.1-0.8-0.1c-0.4,0-0.6,0.1-0.8,0.4
		c-0.1,0.2-0.2,0.5-0.2,0.7s-0.1,0.5-0.1,0.6c0,0.2-0.1,0.3-0.3,0.3c-0.2,0-0.3-0.1-0.5-0.3s-0.2-0.5-0.3-0.9
		c-0.1-0.3-0.1-0.6-0.2-1c-0.1-0.3-0.1-0.5-0.1-0.7c-0.1-0.5-0.1-0.9,0-1.2c0-0.3,0-0.7,0-1.2c0-0.2-0.1-0.4-0.2-0.7
		c-0.1-0.3-0.3-0.6-0.4-0.9s-0.3-0.6-0.4-1c-0.1-0.3-0.2-0.6-0.2-0.9c0-0.2,0-0.3,0-0.4c0-0.1,0.1-0.3,0.1-0.5
		c0.3-0.7,0.4-1.5,0.4-2.3c0-0.8,0-1.6-0.1-2.5l-0.1-1.5c0-0.3-0.2-0.8-0.6-1.3c-0.3-0.5-0.5-1.1-0.6-1.8c0,0,0-0.2,0.1-0.4
		c0-0.3,0.1-0.5,0.1-0.9c0.1-0.3,0.1-0.6,0.1-1c0-0.3,0.1-0.6,0-0.8c0-0.6,0-1.3,0-2s0-1.3-0.1-1.8c0-0.2-0.1-0.4-0.2-0.7
		c-0.1-0.3-0.3-0.6-0.5-1c-0.2-0.3-0.3-0.7-0.5-1c-0.1-0.3-0.2-0.7-0.2-0.9c0-0.3,0.1-0.8,0.3-1.2c0.2-0.4,0.3-0.9,0.2-1.3
		c0-0.1-0.1-0.4-0.3-0.7c-0.2-0.3-0.3-0.6-0.3-0.8c-0.1-0.5,0.1-1,0.5-1.4s0.9-0.6,1.6-0.6c0.7-0.1,1.4,0,2.2,0.1
		C143.2,3.3,144,3.4,144.9,3.3z M149.2,13.5c-0.1-1-0.2-1.6-0.3-1.9s-0.3-0.4-0.5-0.4c-0.2,0-0.3,0.1-0.4,0.3
		c-0.1,0.2-0.2,0.4-0.3,0.6c-0.1,0.2-0.1,0.4-0.2,0.6c-0.1,0.2-0.2,0.3-0.3,0.3c-0.1,0-0.3-0.1-0.4-0.2c-0.1-0.2-0.2-0.3-0.2-0.5
		c0-0.4,0-1,0-1.6c0.1-0.6,0.1-1.1,0.1-1.4c0-0.4-0.2-0.7-0.6-0.8c-0.3-0.1-0.8-0.1-1.2-0.1c-0.6,0.1-0.9,0.2-1,0.4
		c-0.1,0.2-0.1,0.5-0.1,0.8c0.1,0.6,0.2,1,0.4,1.2c0.2,0.3,0.4,0.5,0.6,0.6c0.2,0.1,0.4,0.3,0.6,0.3c0.2,0.1,0.3,0.2,0.3,0.5
		c0,0.3-0.1,0.5-0.3,0.8s-0.3,0.5-0.3,0.8c0,0.2,0.1,0.3,0.2,0.5c0.1,0.1,0.1,0.3,0.1,0.5c0,0.3-0.1,0.6-0.3,1
		c-0.2,0.4-0.3,0.8-0.3,1c0,0.1,0,0.2,0.1,0.3c0.1,0.2,0.1,0.3,0.3,0.5c0.1,0.1,0.3,0.3,0.6,0.4c0.3,0.1,0.6,0.1,1,0.1
		c0.4,0,0.8-0.2,1.1-0.5c0.3-0.3,0.6-0.7,0.8-1.1c0.2-0.4,0.4-0.9,0.5-1.4C149.2,14.5,149.3,14,149.2,13.5z"/>
</g>
<g class="st0">
	<path class="st1" d="M159.8,1.4c0.3,0.1,0.7,0.1,1.2,0.3s1,0.3,1.4,0.2c0.7,0,1.2-0.2,1.6-0.4c0.4-0.2,0.8-0.3,1.2-0.4
		c0.4,0,0.7,0.1,0.8,0.4c0.1,0.3,0.2,0.8,0.5,1.5l0.5,1.6c0.1,0.3,0.2,0.6,0.3,1c0.1,0.3,0.1,0.6,0.2,0.9c0,0.2,0,0.5,0,0.9
		s-0.1,0.7,0,1c0.1,1.2,0.2,2.4,0.5,3.5c0,0.1,0.1,0.3,0.3,0.9c0.2,0.5,0.4,1.2,0.6,2c0.2,0.8,0.5,1.6,0.7,2.5
		c0.2,0.9,0.3,1.7,0.4,2.5c0,0.7,0.1,1.2,0.3,1.7c0.1,0.5,0.3,0.9,0.4,1.3c0.1,0.4,0.3,0.8,0.4,1.2c0.1,0.4,0.2,0.8,0.2,1.3
		c0,0.3,0.1,0.9,0.2,1.5c0.1,0.7,0.3,1.5,0.7,2.5c0.3,0.9,0.5,1.6,0.7,2.1c0.2,0.5,0.3,1,0.4,1.4s0.1,0.7,0.2,1
		c0.1,0.3,0.1,0.6,0.1,0.9c0.1,1.3-0.3,2-1.1,2c-0.5,0-0.8-0.2-0.8-0.8c0-0.2,0-0.3,0-0.5c0-0.2,0-0.4,0-0.5c0-0.4-0.2-0.5-0.5-0.5
		c-0.2,0-0.3,0.1-0.4,0.3c-0.1,0.2-0.1,0.5-0.1,0.7s-0.1,0.5-0.1,0.7s-0.1,0.3-0.3,0.3c-0.1,0-0.3-0.1-0.4-0.3
		c-0.1-0.2-0.2-0.5-0.3-0.7c-0.1-0.3-0.2-0.5-0.3-0.7s-0.2-0.3-0.3-0.3c-0.2,0.1-0.3,0.4-0.2,0.9c0,0.2,0.1,0.4,0.1,0.7
		c0.1,0.3,0.1,0.6,0.1,0.9c0,0.3,0,0.5-0.1,0.7c-0.1,0.1-0.2,0.2-0.4,0.2c-0.2,0-0.4-0.1-0.5-0.4c-0.1-0.3-0.3-0.6-0.3-1
		c-0.1-0.4-0.1-0.8-0.2-1.3c-0.1-0.5-0.1-0.9-0.1-1.3c-0.1-0.5-0.2-1.1-0.4-1.7c-0.2-0.6-0.3-1.3-0.4-2c-0.1-0.8-0.1-1.4-0.3-1.9
		c-0.2-0.5-0.4-0.8-0.8-0.7c-0.1,0-0.3,0.1-0.3,0.3c-0.1,0.2-0.1,0.5-0.2,0.8s-0.1,0.5-0.2,0.8c-0.1,0.2-0.2,0.3-0.4,0.3
		c-0.1,0-0.3-0.1-0.5-0.2c-0.2-0.2-0.4-0.3-0.5-0.5c-0.2-0.2-0.3-0.4-0.5-0.6c-0.2-0.2-0.3-0.2-0.4-0.2c-0.2,0-0.3,0.2-0.3,0.6
		c0,0.3,0.1,0.6,0.2,0.7c0.1,0.1,0.2,0.3,0.2,0.7c0,0.2-0.1,0.4-0.4,0.5c-0.3,0.2-0.5,0.4-0.4,0.8c0,0.2,0.1,0.4,0.2,0.7
		c0.1,0.3,0.2,0.5,0.2,0.8c0,0.4-0.1,0.7-0.2,0.8s-0.4,0.2-0.6,0.3c-0.2,0.1-0.4,0.3-0.6,0.5s-0.2,0.8-0.2,1.5c0,0.4,0,0.7,0,1
		s-0.2,0.5-0.6,0.5c-0.3,0-0.5-0.1-0.6-0.3c-0.1-0.3-0.2-0.5-0.3-0.8c-0.1-0.3-0.1-0.6-0.2-0.8c-0.1-0.3-0.2-0.4-0.5-0.3
		c-0.1,0-0.2,0.1-0.3,0.2c-0.1,0.1-0.2,0.3-0.3,0.4c-0.1,0.1-0.2,0.3-0.3,0.4c-0.1,0.1-0.2,0.2-0.3,0.2c-0.3,0-0.5-0.2-0.5-0.5
		c0-0.2,0-0.4,0-0.6c0-0.2,0.1-0.3,0.1-0.6c0-0.2,0.1-0.5,0.1-0.9c0-0.3,0-0.8,0-1.4c0-0.6-0.1-1.2-0.1-1.8c0-0.6,0-1.2,0.1-1.6
		l0.3-2.1l0.8-4.4c0.1-0.5,0.1-0.9,0.1-1.2c0-0.2-0.1-0.3-0.1-0.3c-0.1-0.1-0.1-0.2-0.1-0.4c0-0.3,0-0.5,0.1-0.9
		c0.1-0.3,0.1-0.8,0.3-1.2c0.1-0.5,0.2-0.9,0.2-1.3c0-0.4,0.1-0.8,0.1-1.3c0-0.5,0.1-1.1,0.1-1.8s0.1-1.7,0.3-3
		c0.1-0.8,0.1-1.7,0.1-2.8c0-1.1,0.1-2.1,0.1-3c0.1-1,0.2-1.8,0.3-2.4C159.2,1.8,159.4,1.4,159.8,1.4z M162.8,16.4
		c-0.1,0-0.3,0.1-0.3,0.4c-0.1,0.2-0.1,0.5-0.2,0.9c-0.1,0.3-0.1,0.7-0.1,1.1c0,0.4,0,0.7,0,1c0,0.3,0.1,0.6,0.2,0.8
		c0.1,0.2,0.2,0.3,0.2,0.5c0,0.1-0.1,0.2-0.1,0.4c-0.1,0.2-0.1,0.5-0.1,0.8c0,0.4,0.5,0.5,1.5,0.5c0.5,0,0.9-0.1,1.1-0.3
		c0.2-0.1,0.3-0.3,0.3-0.5c0-0.2-0.1-0.4-0.1-0.6c-0.1-0.3-0.1-0.5-0.1-0.9c-0.1-0.8-0.1-1.4-0.1-1.9c-0.1-0.5-0.1-0.8-0.1-1.1
		c-0.1-0.2-0.1-0.4-0.2-0.4c-0.1-0.1-0.1-0.1-0.1-0.1c-0.1,0-0.2,0.1-0.2,0.3c0,0.2-0.1,0.4-0.1,0.6c0,0.2-0.1,0.4-0.1,0.6
		c-0.1,0.2-0.1,0.3-0.3,0.3c-0.1,0-0.3-0.1-0.3-0.3c-0.1-0.2-0.1-0.5-0.1-0.8c0-0.3-0.1-0.6-0.1-0.8C163,16.5,162.9,16.4,162.8,16.4
		z"/>
</g>
<g class="st0">
	<path class="st1" d="M181,13.4c-0.1,0-0.1,0-0.2,0c-0.1,0-0.2,0-0.2,0c-0.1,0-0.3,0.1-0.5,0.2c-0.2,0.1-0.3,0.3-0.3,0.7
		c0,0.4,0.1,0.8,0.2,1.2s0.2,0.8,0.2,1.3c0,1.2,0,2-0.1,2.5c-0.1,0.5-0.1,0.9-0.1,1c0,0.2,0.1,0.5,0.1,0.8c0.1,0.3,0.2,0.7,0.3,1.1
		c0.1,0.4,0.2,0.8,0.3,1.2c0.1,0.4,0.1,0.8,0.1,1.1c0,0.4-0.1,0.9-0.2,1.5s-0.2,1.2-0.1,1.9c0,0.3,0,0.5,0.1,0.9
		c0,0.4,0.1,0.6,0.1,0.8c0,0.4,0,0.9-0.1,1.3c-0.1,0.5-0.1,0.8-0.1,1.1c0,0.1,0,0.2,0.1,0.4c0.1,0.1,0.1,0.3,0.2,0.5
		c0.1,0.1,0.2,0.3,0.2,0.4c0.1,0.1,0.1,0.2,0.1,0.3c0,0.3-0.1,0.5-0.3,0.5c-0.2,0.1-0.5,0.1-0.7,0.1c-0.3,0-0.5,0.1-0.7,0.1
		c-0.2,0-0.3,0.2-0.3,0.4c0,0.1,0,0.3,0.1,0.6c0,0.3,0.1,0.5,0.1,0.8c0,0.3,0.1,0.5,0.1,0.8c0,0.2,0.1,0.4,0.1,0.5
		c0,0.1,0,0.3,0,0.5c0,0.2-0.1,0.4-0.1,0.6c-0.1,0.2-0.2,0.3-0.3,0.5c-0.1,0.1-0.3,0.2-0.4,0.2c-0.2,0-0.3-0.4-0.4-1.2
		c0-0.3,0-0.6,0-1.2s0-0.9,0-1.2c0-0.8-0.1-1.1-0.3-1.1s-0.3,0.1-0.4,0.4s-0.1,0.5-0.2,0.9s-0.1,0.6-0.2,0.9s-0.2,0.4-0.4,0.4
		c-0.3,0-0.5-0.2-0.5-0.5c0-0.4,0-0.8,0-1.1s0-0.5,0-0.6c0-0.2-0.1-0.3-0.2-0.5c-0.1-0.1-0.3-0.4-0.6-0.7c-0.4-0.5-0.7-1-0.8-1.3
		c-0.1-0.3-0.2-0.7-0.2-1.1c0-0.1,0.1-0.5,0.2-1.3c0.1-0.8,0.2-1.6,0.2-2.5c0-1,0-1.8,0.1-2.5c0.1-0.7,0.2-1.2,0.2-1.5
		c0-0.2-0.1-0.4-0.2-0.6c-0.1-0.2-0.2-0.3-0.3-0.5c-0.1-0.2-0.2-0.4-0.3-0.6c-0.1-0.2-0.2-0.5-0.2-0.8c0-0.4,0-0.8,0.1-1.1
		c0.1-0.4,0.2-0.8,0.4-1.1c0.1-0.4,0.3-0.8,0.4-1.2s0.2-0.8,0.1-1.2c0-1.2-0.1-2.1-0.2-2.9c-0.1-0.7-0.2-1.2-0.2-1.3
		c0-0.1,0-0.2,0-0.4c0-0.2,0.1-0.4,0.1-0.6c0-0.2,0-0.4,0.1-0.6c0-0.2,0-0.4,0-0.5c-0.1-0.1-0.1-0.3-0.2-0.6c0-0.2-0.2-0.6-0.6-1.1
		c-0.2-0.3-0.4-0.5-0.4-0.5s-0.1-0.3-0.1-0.6c0-0.3,0.1-0.8,0.3-1.4s0.3-1,0.3-1.4C174.1,3.7,174,3.4,174,3
		c-0.1-0.3-0.1-0.6-0.1-0.9c0-0.7,0.3-1,1-1c0.2,0,0.5,0.1,0.9,0.2c0.4,0.1,0.8,0.2,1.1,0.2c0.3,0,0.5-0.1,0.7-0.2
		c0.2-0.1,0.5-0.2,0.7-0.2c0.2,0,0.5,0,0.8,0.1c0.3,0.1,0.6,0.2,0.8,0.4c0.3,0.2,0.5,0.4,0.7,0.7c0.2,0.3,0.3,0.6,0.3,1
		c0,0.6-0.1,1.2-0.3,1.7c-0.2,0.6-0.3,1.1-0.3,1.6c0,0.3,0.1,0.8,0.2,1.4c0.1,0.6,0.2,1.2,0.4,1.8c0.1,0.6,0.3,1.2,0.4,1.8
		c0.1,0.6,0.2,1,0.2,1.4C181.2,13.2,181.2,13.4,181,13.4z"/>
</g>
<g class="st0">
	<path class="st1" d="M197,28.2c0.6,0,1,0.1,1.2,0.3c0.2,0.2,0.3,0.5,0.3,0.8c0,0.3-0.1,0.5-0.3,0.9c-0.2,0.3-0.3,0.5-0.3,0.6
		c0,0.2,0.1,0.4,0.2,0.8c0.1,0.3,0.2,0.5,0.2,0.7c0,0.3-0.3,0.7-0.8,0.9c-0.5,0.2-0.9,0.5-1.1,0.8c-0.2,0.3-0.3,0.5-0.3,0.6
		c0,0.3,0.1,0.5,0.2,0.8c0.1,0.3,0.2,0.7,0.2,1.1c0,0.3-0.1,0.4-0.2,0.6c-0.1,0.1-0.3,0.2-0.5,0.2s-0.3,0-0.4-0.1
		c-0.1-0.1-0.2-0.2-0.2-0.5c0-0.2,0-0.3,0-0.6c0-0.2,0-0.5,0-0.8c0-0.4-0.1-0.8-0.2-1.2c-0.1-0.4-0.4-0.6-0.9-0.6
		c-0.2,0-0.3,0.2-0.3,0.5c0,0.3-0.1,0.7-0.1,1.1c0,0.4,0,0.8-0.1,1.1c0,0.3-0.1,0.5-0.3,0.5c-0.3,0-0.4-0.1-0.5-0.4
		c-0.1-0.3-0.1-0.6-0.1-1c-0.1-0.3-0.1-0.7-0.3-1c-0.1-0.3-0.4-0.4-0.9-0.4c-0.1,0-0.3,0.1-0.5,0.2c-0.2,0.1-0.3,0.2-0.5,0.2
		c-0.3,0-0.5-0.1-0.9-0.3c-0.3-0.2-0.6-0.3-0.8-0.3c-0.6,0-1.1,0.1-1.5,0.3c-0.4,0.2-0.6,0.6-0.6,1.1c0,0.1,0,0.3,0.1,0.5
		s0.1,0.4,0.1,0.5c0,0.3-0.1,0.5-0.5,0.5c-0.3,0-0.5-0.2-0.5-0.7c-0.1-0.5-0.2-1-0.2-1.5c0-0.2-0.2-0.4-0.4-0.6
		c-0.3-0.3-0.4-0.5-0.5-0.8s-0.1-0.6-0.2-1c-0.1-0.4-0.1-0.8-0.1-1.1l-0.1-3.2c0-0.9-0.1-1.8-0.3-2.6c-0.2-0.8-0.3-1.6-0.3-2.3
		c0-0.3,0-0.6,0.1-1c0.1-0.3,0.2-0.7,0.3-1c0.1-0.3,0.2-0.7,0.3-1c0.1-0.3,0.1-0.6,0.1-0.9c0-0.3,0-0.5,0-0.7c0-0.2,0-0.4,0-0.6
		c0-0.5,0-0.9-0.1-1.4c0-0.5,0-0.8,0-1.2c0-0.3,0-0.5,0.1-0.9s0.1-0.7,0.2-1c0.1-0.3,0.1-0.7,0.2-1c0.1-0.3,0.1-0.6,0.1-0.9
		c0-0.5-0.1-0.9-0.2-1.2c-0.1-0.3-0.3-0.7-0.4-1s-0.3-0.6-0.4-0.9c-0.1-0.3-0.2-0.6-0.2-0.9c0-0.1,0.1-0.6,0.2-1.3
		c0.1-0.7,0.2-1.5,0.2-2.3c0-0.3-0.1-0.6-0.3-1.1c-0.2-0.5-0.3-0.8-0.3-1c0-1,0.4-1.5,1.4-1.5c0.4,0,0.9,0.1,1.4,0.4
		c0.5,0.3,1.2,0.4,1.8,0.4c0.5,0,1,0.1,1.4,0.3c0.4,0.2,0.6,0.6,0.6,1.2c0,0.1-0.1,0.4-0.2,0.8s-0.2,0.7-0.2,0.9
		c0,0.3,0.1,0.6,0.1,1.1c0.1,0.5,0.1,0.8,0.1,1.1c0,0.2-0.1,0.5-0.2,0.9c-0.2,0.3-0.2,0.7-0.2,0.9c0,0.1,0.1,0.2,0.1,0.4
		c0.1,0.2,0.2,0.4,0.3,0.6c0.1,0.2,0.2,0.4,0.3,0.6c0.1,0.2,0.1,0.4,0.1,0.6c0,0.3-0.2,0.7-0.5,1c-0.3,0.4-0.5,0.7-0.5,1.1
		c0,0.2,0.1,0.5,0.1,0.9c0.1,0.4,0.1,0.6,0.1,0.7c0,0.3-0.1,0.7-0.3,1c-0.2,0.3-0.3,0.7-0.3,1.1c0,0,0,0.2,0.1,0.4
		c0,0.2,0.1,0.5,0.1,0.8c0.1,0.3,0.1,0.6,0.1,0.9c0,0.3,0.1,0.5,0.1,0.7c0,0.5,0,1.1-0.1,1.9c-0.1,0.8-0.1,1.4-0.1,1.9
		c0,0.5,0.1,1,0.2,1.3c0.1,0.3,0.2,0.6,0.2,0.9c0,0.3,0,0.5,0,0.6c0,0.2,0,0.4,0,0.7c0,0.7,0.2,1.2,0.6,1.7c0.4,0.4,0.9,0.6,1.5,0.6
		c0.3,0,0.6-0.1,1.1-0.2c0.5-0.1,0.9-0.2,1.2-0.2c0.2,0,0.3,0,0.5,0s0.2,0,0.4,0c0.3,0,0.5,0,0.8,0C196.6,28.2,196.8,28.2,197,28.2z
		"/>
</g>
<g class="st0">
	<path class="st1" d="M216.5,0c0.2,0,0.5,0.1,1,0.2s0.9,0.3,1.4,0.5c0.5,0.2,1,0.4,1.5,0.6c0.5,0.2,1,0.4,1.4,0.6
		c0.4,0.2,0.9,0.5,1.3,1s0.8,1,1.1,1.6s0.6,1.3,0.8,2c0.2,0.7,0.3,1.3,0.3,1.9c0,0.3-0.1,0.8-0.2,1.5c-0.1,0.6-0.2,1.1-0.2,1.5
		c0,0.5,0,0.9,0.1,1.1c0.1,0.2,0.1,0.4,0.1,0.7c0,0.2-0.1,0.4-0.2,0.6c-0.1,0.2-0.3,0.3-0.5,0.3c-0.1,0-0.2-0.1-0.3-0.2
		c-0.1-0.1-0.2-0.3-0.3-0.4c-0.1-0.2-0.2-0.3-0.3-0.4c-0.1-0.1-0.1-0.2-0.2-0.2c-0.1,0-0.2,0.1-0.3,0.1c-0.1,0.1-0.2,0.2-0.3,0.2
		c-0.1,0-0.3-0.1-0.4-0.4c-0.1-0.3-0.3-0.4-0.4-0.4c-0.3,0-0.5,0.1-0.5,0.4c-0.1,0.3-0.1,0.5-0.1,0.9s0,0.6-0.1,0.9
		c-0.1,0.3-0.2,0.4-0.5,0.4c-0.2,0-0.3-0.1-0.4-0.2s-0.1-0.3-0.1-0.4c0-0.2,0-0.3,0-0.5s0-0.3-0.1-0.5c-0.2-0.3-0.4-0.7-0.6-0.9
		c-0.2-0.3-0.3-0.8-0.3-1.6c0-0.1,0-0.3,0-0.4s0-0.3,0-0.6c0-1.1,0-2,0-2.7C219,6.3,218.8,6,218.5,6c-0.2,0-0.4,0.2-0.5,0.6
		c-0.1,0.4-0.2,0.9-0.3,1.5c0,0.3,0,0.7,0.1,1.2c0.1,0.5,0.1,0.9,0.1,1.2c0,0.3-0.1,0.5-0.1,0.7c-0.1,0.2-0.3,0.3-0.5,0.3
		c-0.2,0-0.3-0.1-0.4-0.3c-0.1-0.2-0.2-0.4-0.2-0.7c-0.1-0.3-0.1-0.5-0.1-0.8c0-0.2,0-0.4,0-0.5c0-0.3,0-0.5,0.1-0.8
		c0-0.3,0.1-0.5,0.1-0.8c0-0.6-0.1-1-0.5-1c-0.2,0-0.3,0.1-0.5,0.2c-0.1,0.1-0.2,0.3-0.2,0.5c0,0.3,0.1,0.7,0.3,1.1
		c0.2,0.4,0.3,0.7,0.3,0.9c0,0.3-0.1,0.5-0.2,0.6c-0.1,0.1-0.3,0.2-0.4,0.2c-0.1,0-0.3,0-0.4-0.1c-0.1-0.1-0.2-0.1-0.4-0.1
		c-0.1,0-0.3,0.1-0.3,0.2c0,0.1-0.1,0.3-0.1,0.4c0,0.4,0,0.7,0.1,0.9c0.1,0.2,0.1,0.3,0.1,0.5s0.1,0.3,0.1,0.4
		c0.1,0.1,0.1,0.3,0.1,0.5c0,0.3-0.1,0.5-0.1,0.9s-0.2,0.6-0.3,1c-0.1,0.3-0.2,0.6-0.3,0.9c-0.1,0.3-0.1,0.5-0.1,0.8
		c0,0.3,0.1,0.5,0.2,0.8c0.1,0.3,0.3,0.7,0.7,1.1c0.3,0.5,0.5,1.1,0.5,1.7c0,0.8,0,1.4,0.1,1.8c0.1,0.4,0.1,0.6,0.1,0.7
		c0,0.2-0.1,0.4-0.2,0.7s-0.4,0.5-0.8,0.6c-0.3,0.1-0.5,0.2-0.5,0.3c-0.1,0.1-0.1,0.2-0.1,0.3c0,0.2,0.1,0.3,0.3,0.6
		c0.2,0.2,0.3,0.5,0.3,0.8c0,0.2-0.1,0.4-0.3,0.5c-0.2,0.3-0.3,0.5-0.3,0.8s0,0.5-0.1,0.8c0,0.4,0.1,0.8,0.3,0.9
		c0.2,0.2,0.4,0.3,0.7,0.3c0.1,0,0.3,0,0.5-0.1c0.3-0.1,0.5-0.1,0.6-0.1c0.1,0,0.3,0.1,0.5,0.2c0.2,0.1,0.4,0.2,0.5,0.2
		c0.4,0,0.8-0.3,1.1-0.7c0.3-0.5,0.5-1,0.7-1.6c0.2-0.6,0.3-1.3,0.4-1.9c0.1-0.6,0.1-1.2,0.1-1.6c0-0.3,0-0.6,0-0.8
		c0-0.2,0-0.4,0-0.6c0-0.5,0.2-0.7,0.5-0.7c0.2,0,0.4,0.1,0.6,0.3c0.2,0.2,0.4,0.3,0.5,0.3c0.2,0,0.3-0.1,0.5-0.2
		c0.1-0.1,0.3-0.2,0.5-0.2c0.2,0,0.4,0.1,0.5,0.2c0.1,0.1,0.3,0.1,0.6,0.2c0.1,0,0.3-0.1,0.5-0.2c0.2-0.1,0.3-0.2,0.4-0.2
		c0.4,0.1,0.7,0.3,0.9,0.6s0.3,0.7,0.3,1.1c0,0.3-0.1,0.6-0.2,0.9c-0.1,0.3-0.2,0.6-0.3,0.9c-0.1,0.3-0.2,0.6-0.3,1
		c-0.1,0.3-0.2,0.7-0.2,1.1c0,0.3,0,0.5,0,0.8c0,0.3,0,0.6,0,1c0,0.7-0.3,1.4-0.8,2c-0.5,0.6-1.2,1.4-2.3,2.3
		c-0.2,0.2-0.6,0.4-1.1,0.6s-0.9,0.5-1.1,0.8c-0.1,0.1-0.1,0.2-0.2,0.3c-0.1,0.2-0.1,0.3-0.1,0.5c-0.1,0.2-0.1,0.3-0.2,0.5
		c-0.1,0.1-0.2,0.2-0.3,0.2s-0.2-0.1-0.3-0.3c-0.1-0.2-0.3-0.4-0.4-0.7c-0.1-0.2-0.3-0.5-0.4-0.7c-0.1-0.2-0.3-0.3-0.4-0.3
		c-0.3,0-0.4,0.1-0.5,0.4c-0.1,0.3-0.1,0.5-0.2,0.8c-0.1,0.3-0.1,0.5-0.2,0.8c-0.1,0.3-0.3,0.4-0.6,0.4c-0.1,0-0.3-0.2-0.3-0.5
		c0-0.3-0.1-0.7-0.1-1s-0.1-0.7-0.2-1c-0.1-0.3-0.3-0.5-0.5-0.5c-0.2,0-0.3,0.1-0.3,0.2c0,0.2-0.1,0.3-0.1,0.5
		c0,0.2-0.1,0.4-0.1,0.5c0,0.1-0.1,0.2-0.3,0.2c-0.1,0-0.2-0.1-0.3-0.3c-0.1-0.2-0.1-0.5-0.2-0.7c-0.1-0.3-0.1-0.5-0.2-0.8
		c-0.1-0.2-0.2-0.4-0.4-0.5c-0.1-0.1-0.3-0.1-0.4-0.1c-0.1,0-0.2-0.1-0.3-0.2c-0.1-0.1-0.3-0.3-0.4-0.6c-0.1-0.3-0.2-0.6-0.3-0.9
		c-0.1-0.3-0.1-0.5-0.2-0.8c-0.1-0.2-0.1-0.3-0.2-0.3c-0.1,0-0.1,0.1-0.1,0.3c0,0.2-0.1,0.3-0.3,0.3c-0.3,0-0.4-0.5-0.4-1.4
		c0-0.3,0.1-0.6,0.1-0.8c0.1-0.1,0.1-0.3,0.1-0.6c0-0.3-0.1-0.5-0.2-0.5c-0.1-0.1-0.2-0.2-0.2-0.5s0.1-0.5,0.2-0.8
		c0.1-0.3,0.1-0.5,0.1-0.5c0-0.4,0-0.6-0.1-0.6s-0.2,0.1-0.2,0.1s-0.1,0.1-0.2,0.1c-0.1,0-0.2-0.1-0.2-0.3c0-0.3,0.1-0.5,0.1-0.8
		c0.1-0.2,0.1-0.5,0.2-0.8c0.1-0.3,0.1-0.7,0.2-1.1c0.1-0.4,0.1-0.9,0.1-1.6c0.1-1.7,0.1-3.6,0-5.7s0-4.3,0.1-6.6
		c0.1-3.4,1.1-5.4,2.9-6.2c0.8-0.3,1.4-0.6,1.9-0.8s0.9-0.5,1.2-0.7c0.3-0.2,0.5-0.3,0.7-0.4C216.2,0.1,216.4,0,216.5,0z"/>
</g>
<g class="st0">
	<path class="st1" d="M235.6,0.9c0.7,0,1.4,0.2,2.3,0.5s1.6,0.6,2.4,1c0.8,0.4,1.5,0.8,2.2,1.3s1.2,1,1.5,1.4c0.5,0.7,0.8,1.4,1,2.3
		s0.3,2.2,0.1,3.8c-0.1,1.2-0.2,2.3-0.3,3.3c-0.1,1-0.3,1.8-0.4,2.7c-0.2,0.8-0.3,1.6-0.4,2.4c-0.1,0.8-0.2,1.5-0.3,2.3l-0.1,1.8
		c-0.1,1-0.1,1.9-0.3,2.6c-0.1,0.7-0.2,1.2-0.3,1.6c-0.1,0.4-0.3,0.8-0.4,1.1c-0.1,0.3-0.3,0.5-0.4,0.8s-0.2,0.6-0.3,1
		c-0.1,0.3-0.1,0.8-0.2,1.4c-0.1,1.7-0.3,3-0.6,4c-0.3,1-0.6,1.4-1,1.4c-0.1,0-0.3-0.1-0.4-0.3c-0.1-0.2-0.1-0.4-0.2-0.6
		c-0.1-0.2-0.1-0.4-0.2-0.6c-0.1-0.2-0.2-0.3-0.3-0.3c-0.3,0-0.5,0.2-0.6,0.7c-0.1,0.5-0.1,1-0.2,1.5c0,0.5-0.1,1-0.2,1.5
		c-0.1,0.5-0.3,0.7-0.6,0.7c-0.1,0-0.3-0.1-0.5-0.3c-0.1-0.2-0.2-0.6-0.3-1.4c0-0.7,0-1.3-0.1-1.6c0-0.3-0.2-0.5-0.5-0.5
		c-0.3,0-0.4,0.1-0.6,0.3c-0.1,0.2-0.3,0.3-0.5,0.3c-0.2,0-0.4-0.2-0.6-0.5s-0.5-0.5-0.8-0.5c-0.3,0-0.4,0.1-0.6,0.4
		c-0.1,0.3-0.3,0.6-0.4,0.9c-0.1,0.3-0.2,0.6-0.3,0.9c-0.1,0.3-0.3,0.4-0.5,0.4c-0.3-0.1-0.5-0.2-0.6-0.3c-0.1-0.2-0.2-0.4-0.3-0.7
		c-0.1-0.3-0.1-0.7-0.2-1.1c-0.1-0.4-0.2-0.9-0.3-1.5c-0.1-0.6-0.3-1-0.4-1.4c-0.1-0.3-0.3-0.6-0.4-0.8c-0.1-0.2-0.2-0.3-0.3-0.3
		c-0.1-0.1-0.2-0.1-0.3-0.1c-0.3,0-0.5,0.1-0.6,0.3s-0.2,0.5-0.2,0.8c0,0.2,0,0.3,0,0.4c0,0.1,0,0.2,0,0.3c0,0.3-0.2,0.5-0.6,0.5
		c-0.1,0-0.3-0.2-0.4-0.7c-0.1-0.5-0.3-1-0.3-1.7c-0.1-0.7-0.2-1.3-0.2-2.1c0-0.7,0-1.3,0-1.8c0-0.4,0.1-0.9,0.2-1.4
		c0.1-0.5,0.2-1,0.4-1.6s0.3-1,0.4-1.4c0.1-0.5,0.2-0.8,0.2-1.1c0-0.3,0-0.7-0.1-1.1c-0.1-0.4-0.3-0.9-0.4-1.4
		c-0.2-0.5-0.3-1-0.4-1.5c-0.1-0.5-0.1-1-0.1-1.5c0-0.3,0.1-0.8,0.3-1.4s0.3-1.3,0.5-2c0.2-0.7,0.3-1.3,0.5-1.9s0.3-1,0.3-1.3
		c0-0.3,0-0.7-0.1-0.9c-0.1-0.3-0.1-0.7-0.1-1.2c0-0.3,0.1-0.6,0.2-1c0.1-0.3,0.2-0.7,0.3-1c0.1-0.3,0.2-0.6,0.3-0.9
		c0.1-0.3,0.2-0.4,0.2-0.5c0.2-0.7,0.7-1.4,1.3-1.9s1.3-1,2-1.3c0.7-0.3,1.4-0.6,2-0.8C235,0.9,235.4,0.9,235.6,0.9z M235.1,8
		c-0.3,0-0.5,0.1-0.7,0.5c-0.1,0.3-0.2,0.7-0.3,1c0,0.7,0,1.3,0.1,1.9c0.1,0.6,0.1,1.1,0.1,1.7c0,0.5-0.1,0.9-0.1,1.2
		c0,0.3-0.1,0.6-0.1,0.8c-0.1,0.2-0.1,0.4-0.1,0.5c0,0.2-0.1,0.3-0.1,0.5c0,0.3,0,0.6,0,1c0,0.5,0.1,0.9,0.1,1.4
		c0.1,0.5,0.1,0.9,0.1,1.4c0,0.4,0.1,0.7,0,0.9c-0.1,0.7-0.1,1.3-0.3,1.9c-0.1,0.5-0.3,1.1-0.4,1.6c-0.1,0.5-0.3,1-0.4,1.4
		c-0.1,0.5-0.2,0.9-0.2,1.4c0,0.3,0.1,0.7,0.3,1.1c0.2,0.5,0.4,0.9,0.5,1.2c0.1,0.3,0.2,0.5,0.3,0.8c0.1,0.2,0.2,0.3,0.3,0.3
		c0.1,0.1,0.3,0.1,0.6,0.1c0.5,0,1-0.1,1.4-0.5c0.4-0.3,0.6-0.8,0.7-1.3c0-0.1,0-0.3,0-0.6c0-0.3,0-0.5,0-0.7c0-0.1,0-0.3,0.1-0.5
		c0-0.3,0.1-0.6,0.1-1c0-0.4,0.1-1,0.1-1.6c0-0.7,0-1.2,0.1-1.6c0-0.2,0-0.4,0-0.6c0-0.2,0-0.3,0.1-0.5c0.1-0.1,0.1-0.3,0.1-0.5
		c0.1-0.2,0.1-0.5,0.3-0.8c0.2-0.5,0.3-1.1,0.4-1.7c0.1-1,0-1.9-0.1-2.9s-0.2-2.2-0.1-3.6c0-0.6,0.1-1.2,0.3-1.7s0.3-1,0.3-1.6
		c0-0.3,0-0.7-0.1-1c-0.1-0.3-0.4-0.5-0.8-0.5c-0.1,0-0.2,0.1-0.3,0.4c-0.1,0.3-0.2,0.5-0.3,0.9c-0.1,0.3-0.2,0.6-0.4,0.9
		c-0.1,0.3-0.3,0.4-0.4,0.4c-0.1,0-0.2-0.1-0.3-0.3c-0.1-0.2-0.1-0.4-0.2-0.6c-0.1-0.2-0.2-0.4-0.3-0.6C235.5,8.1,235.3,8,235.1,8z"
		/>
</g>
<g class="st0">
	<path class="st1" d="M264.4,3.7c0.3,0,0.7,0.2,1,0.4c0.3,0.3,0.7,0.4,1.2,0.5c0.6,0.1,1.2,0.1,1.6,0c0.4-0.1,0.8-0.1,1.1-0.1
		c0.1,0,0.2,0,0.4,0.1c0.2,0,0.3,0.1,0.5,0.2c0.2,0.1,0.3,0.3,0.4,0.5c0.1,0.2,0.1,0.5,0.1,0.8c0,0.1-0.1,0.3-0.1,0.4
		c-0.1,0.1-0.1,0.3-0.1,0.5c-0.1,0.2-0.1,0.4-0.1,0.6c-0.1,0.3-0.1,0.6-0.1,1c0,0.3,0,0.5,0.1,0.9c0.1,0.4,0.2,0.8,0.3,1.2
		c0.1,0.4,0.2,0.9,0.3,1.3c0.1,0.4,0.1,0.8,0.1,1.2c0,0.3-0.1,0.6-0.3,0.9c-0.1,0.2-0.3,0.5-0.5,0.8c-0.2,0.3-0.3,0.5-0.5,0.9
		c-0.1,0.3-0.3,0.7-0.3,1.2c-0.1,0.9-0.2,1.6-0.3,2.1c-0.1,0.4-0.1,0.9-0.2,1.2c0,0.3,0,0.6,0,1c0,0.4,0.1,0.8,0.2,1.2
		c0.1,0.4,0.1,0.8,0.2,1.3c0.1,0.4,0.1,0.8,0,1.1c0,0.3-0.1,0.5-0.2,0.6c-0.1,0.2-0.2,0.3-0.3,0.5c-0.1,0.1-0.2,0.3-0.3,0.5
		c-0.1,0.2-0.1,0.4-0.2,0.7c-0.1,0.6-0.1,1.1-0.1,1.5c0,0.4,0,0.8,0.1,1.1c0,0.3,0.1,0.6,0.1,0.9s0,0.6,0,1c0,0.3-0.2,0.7-0.5,1
		s-0.4,0.8-0.5,1.4c0,0.3,0.1,0.5,0.2,0.7c0.2,0.2,0.2,0.6,0.2,1.1c0,0.3-0.1,0.7-0.2,1.1s-0.2,0.8-0.4,1.1
		c-0.1,0.3-0.3,0.6-0.5,0.8c-0.2,0.2-0.5,0.3-0.8,0.2c-0.2,0-0.4-0.1-0.6-0.3c-0.2-0.2-0.4-0.4-0.5-0.6s-0.3-0.4-0.5-0.6
		c-0.2-0.2-0.3-0.3-0.5-0.3c-0.3,0-0.4,0-0.5,0.2c-0.1,0.1-0.2,0.3-0.2,0.4c0,0.2,0,0.3,0.1,0.5c0,0.2,0,0.5,0,1.1
		c-0.1,0.8-0.1,1.4-0.2,1.8c-0.1,0.4-0.1,0.8-0.2,1c-0.1,0.2-0.1,0.3-0.2,0.3s-0.2,0.1-0.4,0c-0.3,0-0.5-0.3-0.6-0.8
		c-0.1-0.5-0.1-0.9-0.1-1.4c0.1-0.4,0.1-0.9,0.3-1.3c0.1-0.4,0.2-0.7,0.2-0.9c0-0.3,0-0.6-0.1-0.8c-0.2-0.5-0.3-1-0.3-1.2
		s0-0.5,0-0.9c0.1-0.4,0.2-0.8,0.4-1.2c0.2-0.5,0.3-0.9,0.4-1.2c0.1-0.7,0.1-1.2,0.1-1.5c0-0.3-0.1-0.6-0.1-0.8
		c-0.1-0.2-0.1-0.4-0.2-0.5c-0.1-0.1-0.1-0.4,0-0.6c0.1-0.8,0.3-1.7,0.6-2.5c0.3-0.8,0.5-1.8,0.6-2.8c0-0.3,0.1-0.8,0.1-1.3
		c0.1-0.5,0.1-1,0.1-1.4c0-0.5,0-0.9-0.1-1.2c-0.1-0.3-0.2-0.5-0.3-0.5c-0.3,0-0.4,0.2-0.5,0.7c-0.1,0.5-0.1,1.2-0.3,2.2
		c-0.1,0.8-0.3,1.6-0.5,2.4c-0.3,0.8-0.5,1.4-0.8,2.1c-0.3,0.7-0.5,1.3-0.7,2c-0.2,0.6-0.3,1.2-0.4,1.8c-0.1,0.5-0.2,1-0.4,1.5
		c-0.2,0.5-0.4,1-0.6,1.4c-0.2,0.5-0.4,0.9-0.6,1.3c-0.2,0.4-0.3,0.8-0.3,1.2c0,0.3,0,0.5,0.1,0.9c0.1,0.3,0.1,0.8,0.1,1.4
		c0,0.3-0.1,0.7-0.3,1c-0.2,0.3-0.4,0.5-0.7,0.5c-0.3,0-0.5-0.3-0.4-0.7c0-0.3,0.1-0.7,0.2-1c0.1-0.3,0.1-0.5,0.1-0.7
		c0.1-0.9-0.1-1.4-0.7-1.4c-0.1,0-0.2,0-0.4,0.1c-0.2,0.1-0.3,0.1-0.5,0.1c-0.1,0-0.3-0.1-0.3-0.3c-0.1-0.2-0.1-0.4-0.1-0.7
		c0-0.3,0-0.5,0-0.8c0-0.3,0-0.5,0-0.7c0-0.2,0.1-0.5,0.1-0.9s0.1-0.7,0.2-1.1c0.1-0.3,0.1-0.7,0.2-1c0.1-0.3,0.1-0.5,0.1-0.5
		c0-0.7,0-1.3-0.2-1.6c-0.2-0.4-0.4-0.7-0.7-1s-0.5-0.5-0.7-0.9c-0.2-0.3-0.3-0.8-0.2-1.4c0-0.4,0.1-0.8,0.2-1.3
		c0.1-0.5,0.2-1,0.3-1.4c0.1-0.5,0.2-0.9,0.3-1.2c0.1-0.3,0.1-0.6,0.1-0.8c0-0.3,0-0.6-0.1-0.8c-0.1-0.2-0.3-0.3-0.6-0.3
		c-0.3,0.1-0.5,0.2-0.7,0.3c-0.2,0.1-0.3,0.3-0.5,0.6c-0.1,0.3-0.2,0.7-0.3,1.2c0,0.1,0,0.3,0,0.5s0,0.5,0,0.7c0,0.2,0,0.5,0,0.7
		s0,0.3,0,0.5c-0.1,0.4-0.1,0.9-0.2,1.3c-0.1,0.4-0.1,0.9-0.2,1.5c-0.2,1.9-0.2,3.4-0.1,4.5c0.1,1.1,0.2,1.8,0.1,2.3
		c-0.1,0.5-0.2,1-0.4,1.2c-0.2,0.3-0.5,0.4-1,0.3c-0.1,0-0.2,0-0.3-0.1s-0.2-0.1-0.3-0.1c-0.4,0-0.7,0.3-0.8,1
		c-0.1,0.4-0.1,0.9-0.1,1.4c0,0.5,0,1-0.1,1.4c-0.1,0.8-0.3,1.5-0.5,2.1c-0.3,0.6-0.6,0.9-0.9,0.8c-0.1,0-0.1-0.2-0.2-0.5
		c0-0.3,0-0.7,0.1-1.2l0.1-0.8c0-0.3,0.1-0.7,0.2-1.2c0.1-0.5,0.1-0.8,0.1-1.1c0.1-0.8,0.1-1.3,0.1-1.5c0-0.2-0.1-0.3-0.1-0.3
		c-0.1,0-0.2,0.1-0.4,0.2c-0.2,0.1-0.4,0.3-0.6,0.2c-0.3,0-0.5-0.3-0.5-0.7c0.1-1,0.3-1.9,0.6-2.8c0.3-0.9,0.5-1.7,0.5-2.4
		c0.1-1.1,0.1-2.1,0-3c-0.1-0.9-0.2-1.5-0.2-1.9c-0.2-0.6-0.2-1.2-0.1-1.8c0-0.4,0.1-0.8,0.3-1.4s0.3-1,0.3-1.4c0-0.2,0-0.5,0-0.8
		s0-0.8,0-1.2c0-0.4,0-0.9,0-1.3c0-0.4,0-0.8,0.1-1.1c0-0.2,0.1-0.6,0.2-1c0.1-0.5,0.3-1,0.4-1.5c0.1-0.5,0.3-1.1,0.4-1.6
		c0.1-0.5,0.2-1.1,0.3-1.5c0-0.1,0-0.3,0-0.5c0-0.2-0.1-0.5-0.1-0.7c0-0.3-0.1-0.5-0.1-0.8c0-0.3,0-0.5,0-0.6c0-0.4,0.1-0.8,0.3-1.1
		c0.2-0.3,0.3-0.9,0.4-1.6c0-0.2,0-0.5-0.2-0.8c-0.1-0.3-0.2-0.6-0.2-0.7c0.1-0.7,0.3-1.1,0.6-1.2c0.4-0.1,0.8-0.2,1.2-0.1
		c0.2,0,0.5,0.1,1,0.1c0.5,0,1,0.1,1.5,0.3c0.5,0.1,1,0.3,1.5,0.5c0.5,0.2,0.8,0.5,1,0.8c0.3,0.4,0.5,0.9,0.7,1.7
		c0.2,0.8,0.4,1.6,0.5,2.4c0.1,0.9,0.3,1.8,0.3,2.7c0.1,0.9,0.1,1.8,0,2.5c-0.1,0.8-0.1,1.7-0.2,2.6c-0.1,0.9-0.1,1.7-0.1,2.4
		c0,0.7,0.1,1.3,0.1,1.8c0.1,0.5,0.2,0.7,0.4,0.7c0.4,0,0.7-0.1,0.8-0.5c0.2-0.4,0.3-1.2,0.4-2.5c0.1-0.8,0.1-1.3,0.1-1.6
		c-0.1-0.2-0.1-0.4,0-0.5c0-0.2,0.1-0.4,0.2-0.8c0.1-0.3,0.4-0.7,0.9-1.2c0.1-0.2,0.3-0.5,0.4-0.9c0.1-0.4,0.3-0.9,0.4-1.4
		c0.1-0.5,0.2-1,0.3-1.4c0.1-0.5,0.2-0.8,0.3-1.1c0.1-0.2,0.1-0.4,0.3-0.6c0.1-0.2,0.2-0.5,0.3-0.7c0.1-0.3,0.2-0.5,0.3-0.7
		c0.1-0.2,0.2-0.4,0.2-0.6c0-0.3,0-0.5-0.1-0.8c-0.1-0.2-0.1-0.5-0.1-0.7c0-0.3,0.2-0.7,0.5-0.9C263.6,3.8,263.9,3.7,264.4,3.7z"/>
</g>
<g class="st0">
	<path class="st1" d="M282,6.7c0.7,0.1,1.3,0.1,1.8,0.1c0.5-0.1,0.9-0.1,1.3,0c1.4,0.2,2.5,0.8,3.2,1.7c0.7,0.9,1.2,1.9,1.3,3.1
		c0.1,1.2,0.3,2.1,0.5,2.7c0.4,1,0.6,2,0.8,2.7c0.1,0.8,0.1,1.3,0.1,1.5c-0.1,0.7-0.4,1.2-0.8,1.5c-0.4,0.3-0.8,0.5-1,0.6
		c-0.4,0.2-0.7,0.5-0.8,0.8c-0.2,0.3-0.3,0.6-0.5,1c-0.1,0.4-0.2,0.8-0.4,1.1c-0.1,0.4-0.3,0.8-0.6,1.1c-0.2,0.3-0.5,0.5-0.8,0.8
		c-0.3,0.2-0.6,0.5-0.9,0.7c-0.3,0.3-0.6,0.5-0.8,0.8c-0.3,0.3-0.4,0.6-0.5,1c0,0.2-0.1,0.3-0.2,0.5c-0.1,0.2-0.3,0.3-0.5,0.3
		c-0.1,0-0.2-0.1-0.3-0.3c0-0.2-0.1-0.5-0.3-1c-0.1-0.2-0.3-0.3-0.5-0.5c-0.3-0.1-0.6-0.3-1-0.3c-0.3-0.1-0.7-0.2-1-0.3
		s-0.6-0.1-0.8-0.1c-0.8-0.1-1.2,0.1-1.2,0.7c0,0.2,0,0.5,0,0.9s0,0.7,0,0.9c0,0.3-0.1,0.5-0.2,0.9c-0.1,0.4-0.2,0.7-0.3,1
		c-0.1,0.3-0.2,0.7-0.3,1s-0.1,0.5-0.2,0.8c0,0.2,0,0.4,0.1,0.7c0.1,0.3,0.1,0.6,0.3,0.9c0.1,0.3,0.2,0.6,0.3,0.9
		c0.1,0.3,0.1,0.5,0.1,0.7c-0.1,0.4-0.2,0.7-0.5,0.9c-0.3,0.2-0.5,0.5-0.5,0.8c0,0.3,0,0.5,0.1,0.8c0.1,0.2,0.1,0.5,0.1,0.6
		c0,0.3-0.1,0.5-0.3,0.6c-0.2,0.1-0.3,0.3-0.5,0.5c-0.2,0.2-0.3,0.3-0.5,0.5c-0.2,0.2-0.3,0.4-0.3,0.6c-0.1,0.5-0.1,1-0.1,1.4
		c0,0.4,0,0.8-0.1,1.2c0,0.2-0.1,0.3-0.4,0.3c-0.2,0.1-0.4,0.1-0.5,0.1c-0.3,0-0.5-0.1-0.7-0.3c-0.2-0.2-0.3-0.4-0.2-0.7
		c0.1-0.5,0.3-1,0.6-1.5c0.3-0.4,0.5-1,0.6-1.6c0.1-0.3-0.1-0.6-0.3-0.7c-0.2-0.1-0.5-0.2-0.7-0.3c-0.4-0.1-0.7,0-0.8,0.2
		c-0.2,0.2-0.3,0.4-0.4,0.6c-0.1,0.2-0.1,0.4-0.2,0.6c-0.1,0.2-0.2,0.3-0.4,0.2s-0.3-0.2-0.4-0.4c-0.1-0.3-0.1-0.6-0.1-0.9
		c0-0.3,0-0.7,0-1c0-0.3,0.1-0.5,0.1-0.7c0.1-0.5,0.1-0.9,0.3-1.1c0.1-0.3,0.2-0.6,0.3-1.2c0-0.2,0-0.4,0-0.7c0-0.3-0.1-0.6-0.2-1
		c-0.1-0.4-0.1-0.7-0.2-1c-0.1-0.3-0.1-0.7,0-1c0-0.1,0.1-0.3,0.1-0.4c0-0.1,0.1-0.3,0.2-0.5c0.4-0.6,0.7-1.4,0.9-2.2
		c0.2-0.8,0.3-1.6,0.5-2.4l0.2-1.5c0.1-0.3,0-0.8-0.3-1.4c-0.2-0.6-0.3-1.2-0.2-1.8c0,0,0.1-0.2,0.1-0.4c0.1-0.2,0.2-0.5,0.3-0.8
		s0.2-0.6,0.3-0.9c0.1-0.3,0.2-0.5,0.2-0.8c0.1-0.6,0.3-1.2,0.4-1.9c0.1-0.7,0.3-1.2,0.3-1.8c0-0.1,0-0.4-0.1-0.7
		c-0.1-0.3-0.1-0.7-0.2-1c-0.1-0.4-0.2-0.8-0.2-1.1c-0.1-0.4-0.1-0.7,0-1c0.1-0.3,0.2-0.7,0.5-1.1c0.3-0.4,0.5-0.8,0.5-1.2
		c0-0.1,0-0.4-0.1-0.8c-0.1-0.3-0.1-0.6-0.1-0.8c0.1-0.5,0.3-0.9,0.8-1.2c0.5-0.3,1-0.3,1.7-0.3c0.7,0.1,1.4,0.3,2.1,0.6
		C280.3,6.3,281.1,6.5,282,6.7z M283.9,17.6c0.1-1,0.2-1.6,0.1-2c-0.1-0.3-0.2-0.5-0.5-0.5c-0.2,0-0.3,0-0.5,0.2s-0.3,0.3-0.4,0.5
		c-0.1,0.2-0.2,0.4-0.4,0.5c-0.1,0.2-0.3,0.2-0.4,0.2c-0.1,0-0.2-0.1-0.3-0.3c-0.1-0.2-0.1-0.3-0.1-0.5c0.1-0.4,0.2-1,0.4-1.5
		c0.2-0.6,0.3-1,0.4-1.4c0.1-0.4-0.1-0.8-0.4-0.9s-0.7-0.3-1.2-0.3c-0.6-0.1-0.9,0-1.1,0.1c-0.1,0.2-0.2,0.4-0.3,0.7
		c-0.1,0.6-0.1,1,0.1,1.3c0.1,0.3,0.3,0.5,0.5,0.7s0.4,0.3,0.5,0.5c0.1,0.1,0.2,0.3,0.2,0.5c0,0.3-0.2,0.5-0.5,0.7
		c-0.3,0.2-0.5,0.4-0.5,0.7c0,0.2,0,0.4,0.1,0.5c0.1,0.2,0.1,0.3,0.1,0.5c0,0.3-0.2,0.6-0.5,0.9c-0.3,0.4-0.5,0.7-0.5,0.9
		c0,0.1,0,0.2,0,0.3s0.1,0.3,0.2,0.5c0.1,0.2,0.3,0.3,0.5,0.5c0.2,0.2,0.5,0.3,1,0.3c0.4,0.1,0.8,0,1.2-0.2c0.4-0.2,0.8-0.5,1.1-0.9
		c0.3-0.4,0.6-0.8,0.8-1.3C283.7,18.6,283.8,18.1,283.9,17.6z"/>
</g>
<g class="st0">
	<path class="st1" d="M300.9,8.5c0.7,0.1,1.4,0.4,2.2,0.8c0.8,0.4,1.5,0.8,2.3,1.3s1.4,1,2,1.6c0.6,0.5,1,1.1,1.3,1.6
		c0.4,0.7,0.6,1.5,0.7,2.4c0.1,0.9,0,2.2-0.3,3.8c-0.2,1.2-0.5,2.3-0.7,3.2c-0.3,0.9-0.5,1.8-0.8,2.6c-0.3,0.8-0.5,1.6-0.7,2.3
		c-0.2,0.7-0.4,1.5-0.5,2.3l-0.3,1.7c-0.2,1-0.4,1.9-0.5,2.5c-0.2,0.6-0.4,1.2-0.5,1.6c-0.2,0.4-0.3,0.8-0.5,1
		c-0.2,0.3-0.3,0.5-0.5,0.8c-0.1,0.3-0.3,0.6-0.4,0.9c-0.1,0.3-0.2,0.8-0.3,1.4c-0.3,1.7-0.7,3-1.1,3.9c-0.4,0.9-0.8,1.3-1.1,1.3
		c-0.1,0-0.3-0.1-0.3-0.3c-0.1-0.2-0.1-0.4-0.1-0.6c0-0.2-0.1-0.4-0.1-0.6c-0.1-0.2-0.1-0.3-0.3-0.3c-0.3-0.1-0.5,0.1-0.7,0.6
		c-0.1,0.4-0.3,0.9-0.4,1.5c-0.1,0.5-0.2,1-0.4,1.4c-0.2,0.4-0.4,0.6-0.7,0.6c-0.1,0-0.3-0.1-0.4-0.3c-0.1-0.2-0.1-0.6-0.1-1.4
		c0.1-0.7,0.1-1.3,0.1-1.6c0-0.3-0.1-0.5-0.4-0.6c-0.3-0.1-0.5,0-0.6,0.2s-0.3,0.3-0.5,0.2c-0.2,0-0.3-0.2-0.5-0.6
		c-0.1-0.3-0.4-0.5-0.7-0.6c-0.3-0.1-0.5,0.1-0.6,0.3c-0.2,0.3-0.3,0.5-0.5,0.9c-0.1,0.3-0.3,0.6-0.4,0.8c-0.1,0.3-0.3,0.3-0.5,0.3
		c-0.3-0.1-0.5-0.2-0.5-0.4c-0.1-0.2-0.2-0.5-0.2-0.8c0-0.3-0.1-0.7-0.1-1.1s-0.1-1-0.1-1.5c-0.1-0.6-0.2-1.1-0.3-1.4
		s-0.2-0.7-0.3-0.8c-0.1-0.2-0.2-0.3-0.3-0.4c-0.1-0.1-0.2-0.1-0.3-0.1c-0.3-0.1-0.5,0-0.6,0.3c-0.1,0.2-0.2,0.5-0.3,0.7
		c0,0.1-0.1,0.3-0.1,0.4c0,0.1,0,0.2,0,0.3c-0.1,0.3-0.3,0.5-0.7,0.4c-0.1,0-0.3-0.3-0.3-0.8c-0.1-0.5-0.1-1-0.1-1.7
		c0-0.7,0-1.4,0-2.1c0.1-0.7,0.1-1.3,0.2-1.8c0.1-0.4,0.2-0.9,0.4-1.4c0.2-0.5,0.4-1,0.6-1.5c0.2-0.5,0.4-1,0.5-1.4
		c0.2-0.4,0.3-0.8,0.3-1.1c0.1-0.3,0.1-0.7,0-1.1c-0.1-0.4-0.1-0.9-0.3-1.4c-0.1-0.5-0.2-1-0.2-1.5c-0.1-0.5,0-1,0.1-1.5
		c0.1-0.3,0.2-0.7,0.4-1.3c0.2-0.6,0.5-1.2,0.8-1.9c0.3-0.6,0.5-1.2,0.8-1.8c0.2-0.6,0.4-1,0.4-1.3c0.1-0.3,0.1-0.6,0-0.9
		c-0.1-0.3-0.1-0.7,0.1-1.2c0.1-0.3,0.1-0.6,0.3-0.9c0.1-0.3,0.3-0.7,0.5-1c0.1-0.3,0.3-0.6,0.4-0.8c0.1-0.3,0.2-0.4,0.3-0.5
		c0.3-0.7,0.8-1.2,1.5-1.7c0.7-0.5,1.4-0.8,2.2-1.1c0.8-0.3,1.4-0.4,2.1-0.5C300.3,8.5,300.7,8.5,300.9,8.5z M299.6,15.6
		c-0.3-0.1-0.5,0.1-0.7,0.4c-0.2,0.3-0.3,0.6-0.4,0.9c-0.1,0.7-0.2,1.3-0.1,1.8c0,0.6,0,1.2-0.1,1.7c-0.1,0.5-0.2,0.9-0.3,1.2
		s-0.1,0.5-0.2,0.8c-0.1,0.2-0.1,0.4-0.2,0.5c-0.1,0.1-0.1,0.3-0.1,0.5c-0.1,0.3-0.1,0.6-0.1,1c0,0.5,0,0.9,0,1.4c0,0.5,0,0.9,0,1.4
		c0,0.4,0,0.7-0.1,0.9c-0.1,0.7-0.3,1.3-0.5,1.8c-0.2,0.5-0.4,1-0.6,1.5c-0.2,0.5-0.4,0.9-0.6,1.4c-0.2,0.4-0.3,0.9-0.4,1.4
		c-0.1,0.3,0,0.7,0.2,1.2c0.1,0.5,0.3,1,0.4,1.3s0.2,0.6,0.3,0.8s0.2,0.3,0.3,0.4c0.1,0.1,0.3,0.1,0.5,0.2c0.5,0.1,1,0,1.5-0.3
		c0.5-0.3,0.7-0.7,0.8-1.2c0-0.1,0-0.3,0.1-0.6c0-0.3,0-0.5,0.1-0.7c0-0.1,0.1-0.3,0.1-0.5c0.1-0.3,0.1-0.6,0.2-1
		c0.1-0.4,0.2-1,0.3-1.6c0.1-0.7,0.2-1.2,0.2-1.5c0-0.2,0.1-0.4,0.1-0.6s0.1-0.3,0.1-0.5c0.1-0.1,0.1-0.3,0.2-0.5s0.2-0.4,0.3-0.7
		c0.3-0.5,0.5-1.1,0.6-1.6c0.2-0.9,0.2-1.9,0.2-2.9s0.1-2.2,0.3-3.6c0.1-0.6,0.3-1.2,0.5-1.6c0.2-0.5,0.4-1,0.5-1.5
		c0.1-0.3,0.1-0.7,0-1c-0.1-0.3-0.3-0.5-0.7-0.6c-0.1,0-0.3,0.1-0.4,0.3c-0.1,0.3-0.3,0.5-0.4,0.8s-0.3,0.6-0.5,0.8
		c-0.2,0.2-0.3,0.3-0.4,0.3c-0.1,0-0.2-0.1-0.3-0.3c-0.1-0.2-0.1-0.4-0.1-0.7c-0.1-0.2-0.1-0.5-0.2-0.7
		C299.9,15.7,299.8,15.6,299.6,15.6z"/>
</g>
<g class="st0">
	<path class="st1" d="M326,38.9c-0.1,0.2-0.1,0.4-0.3,0.6c-0.1,0.2-0.3,0.3-0.5,0.5c-0.3,0.3-0.6,0.8-0.8,1.3
		c-0.2,0.5-0.3,1-0.4,1.4c-0.2,0.8-0.3,1.4-0.4,1.9c-0.1,0.4-0.1,0.7-0.1,0.9c0,0.2,0,0.4,0,0.5c0,0.1,0,0.3-0.1,0.6
		c-0.1,0.3-0.2,0.5-0.3,0.8c-0.2,0.3-0.5,0.6-1,1.1c-0.2,0.2-0.3,0.3-0.4,0.5c-0.1,0.2-0.1,0.5-0.1,1s0,0.9-0.1,1.1
		c-0.1,0.3-0.2,0.5-0.4,0.5c-0.2,0.1-0.4,0.1-0.6,0c-0.5-0.1-0.7-0.5-0.5-1.1c0-0.1,0.1-0.3,0.1-0.5s0.1-0.3,0.1-0.4
		c0.2-0.8,0.3-1.4,0.2-1.7s-0.2-0.5-0.3-0.6c-0.1,0-0.3,0-0.4,0.1c-0.1,0.1-0.2,0.3-0.3,0.4s-0.2,0.3-0.3,0.4
		c-0.1,0.1-0.2,0.2-0.3,0.1c-0.1,0-0.3-0.2-0.3-0.5c-0.1-0.3-0.1-0.6-0.1-1c0-0.4-0.1-0.8-0.1-1.2c0-0.4-0.1-0.8-0.2-1
		c-0.2-0.6-0.4-1.1-0.6-1.4c-0.2-0.3-0.2-0.8,0-1.5c0.1-0.3,0.1-0.5,0.2-0.7c0.1-0.2,0.2-0.4,0.3-0.6s0.2-0.4,0.3-0.6
		c0.1-0.2,0.2-0.5,0.3-0.8c0.1-0.5,0-0.8-0.4-0.8c-0.7-0.2-1.2,0.4-1.5,1.6c-0.2,0.7-0.4,1.2-0.8,1.4c-0.3,0.3-0.6,0.3-0.8,0.3
		c-0.3-0.1-0.3-0.4-0.1-1.1c0.2-0.7,0.4-1.4,0.7-2.2s0.5-1.6,0.8-2.5c0.2-0.7,0.3-1.4,0.4-2.1c0.1-0.8,0.1-1.4,0.1-2.1
		s-0.1-1.2-0.1-1.6c-0.1-0.4-0.3-0.7-0.5-0.8c-0.2-0.1-0.4,0.1-0.6,0.3c-0.2,0.2-0.4,0.5-0.5,1c-0.1,0.4-0.1,0.8-0.1,1.3
		c0,0.4-0.1,0.8-0.1,1.2c-0.1,0.3-0.2,0.5-0.3,0.8c-0.1,0.3-0.2,0.6-0.3,1c-0.1,0.3-0.1,0.6-0.1,1.2c0,0.5-0.1,1-0.2,1.6
		c-0.1,0.3-0.3,0.6-0.6,0.9c-0.3,0.2-0.5,0.5-0.6,0.9c-0.1,0.3-0.1,0.8-0.1,1.3c0,0.5,0,1-0.1,1.3c-0.2,0.7-0.2,1.2-0.2,1.4
		c0.1,0.2,0,0.5-0.1,0.8c-0.1,0.5-0.3,0.8-0.8,1.2c-0.4,0.3-0.6,0.5-0.6,0.6c-0.1,0.3-0.1,0.7-0.2,0.9s-0.1,0.5-0.1,0.7
		c-0.1,0.5-0.4,0.6-0.8,0.5c-0.3-0.1-0.4-0.5-0.3-1.2c0.1-0.5,0.1-0.9,0-1.2c-0.1-0.3-0.2-0.6-0.4-0.8c-0.2-0.2-0.3-0.3-0.5-0.4
		c-0.2-0.1-0.3-0.1-0.4-0.2c-0.1,0-0.3,0-0.6,0c-0.2,0-0.4,0.2-0.4,0.4c0,0.1,0,0.4,0,0.8c0,0.4,0,0.7,0,0.9c-0.1,0.6-0.3,0.9-0.5,1
		c-0.2,0.1-0.3,0.2-0.4,0.1c-0.1,0-0.2-0.2-0.3-0.4c-0.1-0.2-0.1-0.5-0.2-0.8c0-0.3-0.1-0.6,0-1c0-0.3,0.1-0.6,0.1-0.9
		c0.1-0.5,0.3-1,0.3-1.2c0.1-0.3,0.2-0.5,0.2-0.7c0.1-0.3,0.1-0.5,0.1-0.8c0-0.3,0.1-0.5,0.1-0.8c0.2-0.7,0.4-1.3,0.8-1.8
		c0.4-0.5,0.7-1.2,0.9-2c0.1-0.2,0.1-0.6,0.1-1.3s0.1-1.2,0.2-1.7c0.1-0.3,0.2-0.6,0.4-0.9c0.2-0.3,0.4-0.5,0.7-0.8
		c0.2-0.3,0.5-0.6,0.7-0.9s0.3-0.6,0.4-1c0.1-0.3,0.1-0.6,0.1-1c0-0.4,0-0.8,0-1.1c0-0.3-0.1-0.7-0.1-1c0-0.3,0-0.5,0-0.6
		c0-0.1,0.1-0.4,0.3-0.7c0.1-0.3,0.3-0.7,0.5-1c0.2-0.4,0.4-0.8,0.5-1.1c0.2-0.4,0.3-0.7,0.3-1c0.1-0.5,0.1-1.1,0-1.6
		c-0.1-0.5-0.1-1.1,0-1.7c0.1-0.3,0.2-0.5,0.3-0.8s0.3-0.5,0.5-0.8c0.2-0.2,0.3-0.5,0.4-0.6c0.1-0.2,0.2-0.3,0.2-0.4
		c0.1-0.5,0.2-1,0.2-1.6s0.1-1.1,0.2-1.5c0.1-0.6,0.5-1.1,1.1-1.4c0.6-0.3,1.5-0.3,2.7-0.1c1.6,0.4,2.3,1,2.1,1.8
		c-0.1,0.3-0.2,0.6-0.3,0.9c-0.1,0.3-0.2,0.5-0.3,0.8c-0.1,0.5-0.2,0.9-0.1,1.2c0,0.3,0.1,0.7,0.2,1c0.1,0.4,0.3,0.8,0.4,1.2
		c0.2,0.5,0.4,1.1,0.6,1.9c0.1,0.4,0.1,0.8,0.1,1.4c0,0.5-0.1,1-0.2,1.5c-0.1,0.5-0.2,1-0.3,1.4c-0.1,0.4-0.1,0.8-0.1,1
		c0,0.2,0.1,0.5,0.2,0.9c0.1,0.4,0.2,0.9,0.1,1.3c0,0.1-0.1,0.3-0.2,0.4c-0.1,0.1-0.1,0.3-0.2,0.4c-0.2,0.7-0.2,1.2-0.2,1.6
		s0.2,0.6,0.5,0.6c0.4,0.1,0.7-0.1,0.8-0.5c0.1-0.4,0.3-0.8,0.5-1.1c0.2-0.3,0.4-0.7,0.5-1.2c0-0.1,0-0.3,0-0.5s0-0.6,0-1
		c0-0.4,0-0.8,0.1-1.3c0.1-0.5,0.1-0.9,0.2-1.4c0.3-1.3,0.6-2.3,1-3c0.3-0.7,0.6-1.3,0.7-1.8c0.1-0.3,0.1-0.5,0.1-0.9
		c0-0.3,0-0.7-0.1-1s0-0.7-0.1-1s0-0.6,0.1-0.8c0.1-0.4,0.3-0.7,0.6-0.9c0.3-0.2,0.6-0.3,1.1-0.4c0.4-0.1,0.9-0.1,1.3-0.1
		s0.9,0.1,1.4,0.2c0.8,0.2,1.4,0.6,1.6,1.4c0.3,0.7,0.3,1.5,0.1,2.5c0,0.1-0.1,0.3-0.2,0.5c-0.1,0.3-0.3,0.5-0.4,0.8
		c-0.2,0.3-0.3,0.5-0.4,0.8c-0.1,0.3-0.2,0.5-0.2,0.6c-0.1,0.4-0.1,0.9-0.1,1.3s0.1,0.9,0.1,1.3c0.1,0.5,0.1,0.9,0.1,1.4
		c0,0.5,0,0.9-0.1,1.4c-0.1,0.5-0.4,0.9-0.8,1.2c-0.4,0.3-0.8,0.5-1.1,0.8c-0.2,0.2-0.5,0.5-0.8,1.1c-0.3,0.5-0.4,0.9-0.5,1.2
		c0,0.1-0.1,0.4-0.1,0.8c0,0.3,0,0.8,0,1.2c0,0.4,0,0.8-0.1,1.2c0,0.4-0.1,0.7-0.1,0.9c-0.1,0.2-0.1,0.4-0.2,0.5
		c-0.1,0.1-0.1,0.3-0.2,0.6c0,0,0,0.1,0,0.3c0,0.2,0.1,0.4,0.1,0.7c0,0.3,0.1,0.5,0.1,0.8C326.1,38.6,326.1,38.8,326,38.9z"/>
</g>
<g class="st0">
	<path class="st1" d="M341.1,49.3c-0.1,0.2-0.2,0.5-0.5,0.8c-0.2,0.3-0.4,0.5-0.4,0.8c0,0.1-0.1,0.3-0.1,0.6
		c-0.1,0.3-0.1,0.6-0.2,0.9c-0.1,0.5-0.5,0.7-0.9,0.6c-0.1,0-0.2-0.1-0.4-0.2c-0.2-0.1-0.4-0.2-0.6-0.3c-0.2-0.1-0.4-0.3-0.6-0.4
		c-0.2-0.1-0.4-0.2-0.5-0.2c-0.3-0.1-0.5-0.1-0.8,0.1c-0.2,0.1-0.4,0.3-0.5,0.6c-0.1,0.4-0.1,0.8,0,1c0.1,0.3,0,0.7-0.2,1.3
		c-0.1,0.2-0.1,0.3-0.2,0.4c-0.1,0.1-0.2,0.1-0.4,0c-0.2-0.1-0.3-0.3-0.3-0.7c-0.1-0.4-0.1-0.8-0.1-1.3c0-0.5-0.1-0.9-0.1-1.3
		c-0.1-0.4-0.2-0.6-0.4-0.7c-0.3-0.1-0.7,0-1,0.2c-0.3,0.3-0.5,0.5-0.5,0.6c-0.1,0.2-0.1,0.4,0,0.5c0.1,0.2,0.1,0.3,0,0.5
		c-0.1,0.4-0.3,0.7-0.4,0.8c-0.2,0.1-0.3,0.1-0.5,0.1c-0.4-0.1-0.6-0.3-0.7-0.7c-0.1-0.3-0.1-0.7-0.1-1.1c0-0.4,0-0.8,0-1.1
		c0-0.3-0.1-0.5-0.3-0.5c-0.1,0-0.2,0.1-0.4,0.3c-0.2,0.2-0.4,0.2-0.6,0.2c-0.1-0.1-0.3-0.2-0.5-0.5c-0.2-0.3-0.4-0.5-0.5-0.5
		c-0.1,0-0.2,0-0.4,0c-0.2,0.1-0.3,0.1-0.4,0c-0.2-0.1-0.3-0.2-0.3-0.4s0-0.4,0-0.6c0.1-0.2,0.1-0.5,0.2-0.7
		c0.1-0.2,0.1-0.4,0.1-0.5l0.3-0.9c0-0.1,0.1-0.3,0.2-0.5c0.1-0.2,0.1-0.4,0.2-0.6l0.3-1c0.1-0.4,0.3-0.8,0.5-1.4
		c0.2-0.5,0.4-1.1,0.6-1.7s0.4-1.1,0.6-1.7c0.2-0.5,0.3-1,0.5-1.4c0.1-0.3,0.2-0.5,0.3-0.9c0.1-0.3,0.3-0.6,0.5-0.8
		c0.1-0.3,0.3-0.5,0.4-0.6c0.1-0.2,0.2-0.3,0.2-0.3c0.1-0.4,0-0.7-0.5-0.8c-0.1,0-0.2,0-0.3,0c-0.1,0-0.3,0-0.3,0
		c-0.2-0.1-0.3-0.2-0.3-0.4c0-0.2,0-0.4,0.1-0.5c0-0.1,0.1-0.2,0.1-0.3s0.1-0.3,0.3-0.5c0.4-0.4,0.8-0.9,1-1.5
		c0.3-0.6,0.5-1.1,0.6-1.6c0.2-0.8,0.5-1.4,0.9-2s0.6-1.1,0.8-1.7c0-0.1,0.1-0.2,0.1-0.4s0-0.4,0-0.6s0-0.5,0-0.7
		c0-0.3,0.1-0.4,0.1-0.6c0.1-0.2,0.2-0.5,0.3-0.8c0.1-0.3,0.2-0.5,0.3-0.8c0.1-0.2,0.1-0.4,0.1-0.8c0-0.3,0.1-0.6,0.1-0.9
		c0-0.1,0.1-0.3,0.2-0.4c0.1-0.1,0.1-0.3,0.2-0.4c0.1-0.1,0-0.4-0.1-0.7c-0.1-0.3-0.1-0.5,0-0.7c0.1-0.4,0.3-0.6,0.7-0.7
		s0.8,0,1.3,0.1c0.1,0,0.2,0.1,0.4,0.1c0.2,0.1,0.3,0.1,0.5,0.2c0.4,0.1,0.8,0.1,1,0.1c0.2-0.1,0.5-0.1,0.8,0
		c0.2,0.1,0.4,0.2,0.6,0.4c0.2,0.2,0.3,0.3,0.5,0.4c0.1,0.1,0.3,0,0.4,0c0.1-0.1,0.3-0.1,0.6,0c0.3,0.1,0.7,0.3,1,0.7
		c0.3,0.3,0.6,0.6,1,0.7c0.2,0.1,0.5,0.1,0.8,0c0.3-0.1,0.6-0.1,0.9,0c0.2,0.1,0.4,0.2,0.5,0.3c0.1,0.1,0.2,0.2,0.4,0.2
		c0.1,0.1,0.3,0,0.5,0c0.2-0.1,0.4,0,0.8,0.1c0.1,0.1,0.2,0.3,0.2,0.6c0,0.4-0.1,1-0.4,1.8c-0.1,0.3-0.2,0.8-0.3,1.4s-0.2,1.3-0.3,2
		c-0.1,0.7-0.3,1.4-0.4,2.1c-0.1,0.7-0.3,1.2-0.4,1.6c-0.2,0.6-0.6,0.8-1.2,0.6c-0.4-0.1-0.6-0.4-0.4-0.9c0-0.1,0.1-0.2,0.1-0.4
		c0.1-0.2,0.1-0.3,0.2-0.5c0.1-0.2,0.1-0.3,0.2-0.5c0.1-0.1,0.1-0.2,0.1-0.3c0.2-0.8,0.4-1.5,0.5-2.1c0.1-0.6,0.1-1-0.1-1
		c-0.2-0.1-0.4,0.1-0.5,0.4c-0.1,0.3-0.3,0.6-0.4,1s-0.3,0.7-0.4,1c-0.1,0.3-0.3,0.4-0.5,0.3c-0.3-0.1-0.4-0.3-0.4-0.5
		c0-0.5,0.1-1,0.1-1.2c0-0.2,0-0.4,0-0.6c-0.2-0.3-0.5-0.6-0.7-0.8c-0.2-0.3-0.5-0.4-0.8-0.5c-0.2-0.1-0.5-0.1-0.6,0
		c-0.2,0.1-0.3,0.2-0.5,0.3s-0.3,0.2-0.4,0.3s-0.3,0.1-0.4,0.1c-0.1-0.1-0.3-0.1-0.3-0.1c-0.1-0.1-0.1-0.1-0.2-0.1
		c-0.5-0.1-0.9,0-1.2,0.4c-0.3,0.4-0.5,1-0.8,1.7c-0.2,0.7-0.3,1.3-0.3,1.9c0,0.6,0.1,1.1,0.3,1.5c0.1,0.4,0.3,0.8,0.5,1.1
		c0.2,0.3,0.4,0.4,0.6,0.5c0,0,0.1,0,0.3,0c0.2,0,0.4,0,0.6,0.1c0.2,0,0.4,0,0.6,0.1c0.2,0,0.3,0,0.3,0.1c0.3,0,0.8,0.1,1.2,0.2
		s0.7,0.2,0.8,0.2c0.2,0.1,0.4,0.2,0.5,0.5s0.1,0.5,0,0.9c-0.1,0.1-0.2,0.4-0.4,0.7c-0.2,0.3-0.4,0.5-0.5,0.8
		c-0.1,0.3-0.1,0.6-0.1,1c0,0.4,0,0.8-0.1,1.2c0,0.4,0,0.8,0,1.2c0,0.4-0.1,0.7-0.1,0.8c-0.1,0.4-0.4,0.8-0.8,1.2
		c-0.4,0.4-0.7,0.5-0.9,0.5c-0.2-0.1-0.3-0.3-0.3-0.5c0-0.3,0.1-0.6,0.1-0.9c0.1-0.3,0.1-0.6,0.1-0.9c0-0.3-0.1-0.5-0.4-0.5
		c-0.2-0.1-0.4,0-0.5,0.1c-0.1,0.2-0.2,0.3-0.3,0.5c-0.1,0.2-0.1,0.4-0.2,0.5c-0.1,0.2-0.2,0.2-0.4,0.2c-0.1-0.1-0.3-0.2-0.3-0.3
		c0-0.2-0.1-0.4-0.1-0.6c0-0.2-0.1-0.4-0.1-0.6c-0.1-0.2-0.1-0.3-0.3-0.3c-0.1-0.1-0.3-0.1-0.5-0.2c-0.1-0.1-0.3-0.2-0.5-0.2
		c-0.4-0.1-0.6,0-0.7,0.3c-0.1,0.2-0.1,0.5-0.1,0.9c0,0.4-0.2,1.1-0.5,2.1c-0.1,0.3-0.3,0.7-0.7,1.2c-0.4,0.5-0.6,0.8-0.7,1
		c-0.1,0.4,0,0.8,0.2,1.3c0.3,0.5,0.9,0.9,1.8,1.2c0.1,0.1,0.3,0.1,0.5,0.1c0.2,0,0.4,0.1,0.6,0.1c0.3,0.1,0.7,0.3,1.2,0.5
		s0.8,0.5,1.1,0.5c0.1,0,0.2,0.1,0.3,0.1c0.1,0,0.2,0,0.3,0.1c0.3,0.1,0.6,0.3,0.8,0.8C341.2,48.6,341.2,48.9,341.1,49.3z"/>
</g>
<g class="st0">
	<path class="st1" d="M361.5,51c-0.1,0.2-0.2,0.4-0.4,0.5c-0.2,0.1-0.4,0.3-0.6,0.5c-0.4,0.3-0.7,0.7-1,1.2c-0.3,0.5-0.5,1-0.6,1.4
		c-0.3,0.8-0.5,1.4-0.6,1.8c-0.1,0.4-0.2,0.7-0.2,0.9c-0.1,0.2-0.1,0.4-0.1,0.5c0,0.1-0.1,0.3-0.2,0.6c-0.1,0.2-0.2,0.5-0.4,0.7
		c-0.2,0.3-0.6,0.5-1.1,0.9c-0.2,0.1-0.4,0.3-0.4,0.4c-0.1,0.2-0.1,0.5-0.2,1c-0.1,0.5-0.1,0.9-0.3,1.1c-0.1,0.3-0.3,0.4-0.5,0.5
		c-0.2,0.1-0.4,0-0.6-0.1c-0.5-0.2-0.6-0.5-0.4-1.1c0.1-0.1,0.1-0.3,0.2-0.5c0.1-0.2,0.1-0.3,0.2-0.4c0.3-0.8,0.4-1.3,0.4-1.7
		c0-0.3-0.1-0.5-0.3-0.6c-0.1-0.1-0.3,0-0.4,0.1c-0.1,0.1-0.2,0.2-0.3,0.4s-0.2,0.3-0.3,0.4c-0.1,0.1-0.2,0.1-0.3,0.1
		c-0.1-0.1-0.2-0.2-0.3-0.5c0-0.3,0-0.6,0-1c0-0.4,0-0.8,0.1-1.2c0.1-0.4,0-0.8,0-1c-0.1-0.6-0.3-1.1-0.4-1.5
		c-0.1-0.3-0.1-0.8,0.2-1.5c0.1-0.3,0.2-0.5,0.3-0.7c0.1-0.2,0.2-0.4,0.4-0.5c0.1-0.2,0.2-0.3,0.4-0.5c0.1-0.2,0.3-0.5,0.4-0.8
		c0.2-0.4,0.1-0.7-0.3-0.9c-0.6-0.3-1.2,0.2-1.7,1.4c-0.3,0.7-0.6,1.1-1,1.3c-0.4,0.2-0.6,0.3-0.8,0.2c-0.2-0.1-0.2-0.5,0-1.1
		c0.3-0.7,0.6-1.4,1-2.1s0.8-1.5,1.1-2.4c0.3-0.6,0.5-1.3,0.7-2.1c0.2-0.7,0.3-1.4,0.4-2s0.1-1.2,0.1-1.6c-0.1-0.4-0.2-0.7-0.4-0.8
		c-0.2-0.1-0.4,0-0.6,0.2c-0.2,0.2-0.5,0.5-0.6,0.9c-0.1,0.4-0.3,0.8-0.3,1.2c-0.1,0.4-0.2,0.8-0.3,1.2c-0.1,0.3-0.2,0.5-0.4,0.8
		c-0.2,0.3-0.3,0.5-0.5,0.9c-0.1,0.2-0.2,0.6-0.3,1.2c-0.1,0.5-0.2,1-0.4,1.5c-0.1,0.3-0.3,0.6-0.7,0.8c-0.3,0.2-0.5,0.5-0.7,0.8
		c-0.1,0.3-0.2,0.8-0.2,1.3c0,0.5-0.1,0.9-0.2,1.3c-0.3,0.7-0.4,1.1-0.4,1.4c0,0.2,0,0.5-0.1,0.8c-0.2,0.4-0.5,0.8-0.9,1
		c-0.4,0.3-0.6,0.4-0.7,0.5c-0.1,0.3-0.2,0.6-0.3,0.9c-0.1,0.3-0.1,0.5-0.2,0.6c-0.2,0.4-0.5,0.6-0.8,0.4c-0.3-0.1-0.3-0.5-0.1-1.2
		c0.1-0.5,0.2-0.9,0.1-1.2c-0.1-0.3-0.2-0.6-0.3-0.8c-0.1-0.2-0.3-0.4-0.5-0.5c-0.2-0.1-0.3-0.2-0.4-0.2c-0.1-0.1-0.3-0.1-0.5-0.1
		c-0.2,0-0.4,0.1-0.5,0.4c-0.1,0.1-0.1,0.4-0.1,0.8c0,0.4-0.1,0.7-0.1,0.9c-0.2,0.5-0.4,0.9-0.7,1c-0.2,0.1-0.3,0.1-0.4,0.1
		c-0.1-0.1-0.2-0.2-0.2-0.4c-0.1-0.2-0.1-0.5-0.1-0.8s0-0.6,0.1-1c0.1-0.3,0.1-0.6,0.2-0.9c0.2-0.5,0.4-0.9,0.5-1.2
		c0.1-0.3,0.2-0.5,0.3-0.7c0.1-0.3,0.2-0.5,0.3-0.8c0.1-0.3,0.1-0.5,0.3-0.8c0.3-0.6,0.6-1.2,1.1-1.7s0.8-1.1,1.1-1.8
		c0.1-0.2,0.2-0.6,0.3-1.2c0.1-0.6,0.3-1.2,0.5-1.7c0.1-0.3,0.3-0.6,0.5-0.9c0.2-0.3,0.5-0.5,0.8-0.8c0.3-0.3,0.5-0.5,0.8-0.8
		c0.2-0.3,0.4-0.6,0.6-1c0.1-0.3,0.2-0.6,0.3-1c0.1-0.4,0.1-0.8,0.1-1.1c0-0.3,0-0.7,0.1-1s0.1-0.5,0.1-0.6c0.1-0.1,0.2-0.4,0.4-0.7
		c0.2-0.3,0.4-0.6,0.7-1c0.3-0.3,0.5-0.7,0.7-1c0.2-0.3,0.4-0.6,0.5-0.9c0.2-0.5,0.3-1,0.2-1.6c-0.1-0.6,0-1.1,0.2-1.7
		c0.1-0.2,0.2-0.5,0.4-0.7c0.2-0.3,0.4-0.5,0.6-0.7c0.2-0.2,0.4-0.4,0.5-0.5c0.1-0.2,0.2-0.3,0.3-0.4c0.2-0.4,0.3-1,0.4-1.5
		c0.1-0.5,0.3-1,0.4-1.4c0.2-0.6,0.7-1,1.3-1.2c0.6-0.2,1.5-0.1,2.6,0.3c1.5,0.6,2.1,1.3,1.8,2.1c-0.1,0.3-0.3,0.6-0.4,0.8
		c-0.1,0.2-0.3,0.5-0.4,0.8c-0.2,0.5-0.3,0.9-0.3,1.2c0,0.3,0,0.7,0.1,1c0.1,0.4,0.1,0.8,0.3,1.3c0.1,0.5,0.2,1.1,0.3,2
		c0.1,0.4,0,0.8-0.1,1.3c-0.1,0.5-0.2,1-0.4,1.4c-0.1,0.5-0.3,0.9-0.5,1.3c-0.2,0.4-0.2,0.7-0.3,0.9c0,0.2,0,0.5,0.1,0.9
		c0.1,0.4,0.1,0.9-0.1,1.3c-0.1,0.1-0.1,0.3-0.3,0.4c-0.1,0.1-0.2,0.2-0.2,0.3c-0.3,0.6-0.4,1.2-0.4,1.5c0,0.3,0.1,0.6,0.5,0.7
		c0.4,0.2,0.7,0,0.9-0.4c0.2-0.4,0.3-0.8,0.6-1c0.2-0.3,0.5-0.6,0.6-1.2c0-0.1,0.1-0.3,0.1-0.5c0-0.3,0.1-0.6,0.1-1
		c0.1-0.4,0.1-0.8,0.3-1.2c0.1-0.4,0.2-0.9,0.4-1.3c0.5-1.3,1-2.2,1.4-2.9s0.8-1.2,0.9-1.7c0.1-0.2,0.1-0.5,0.2-0.8
		c0-0.3,0.1-0.7,0.1-1c0-0.3,0.1-0.7,0.1-1s0.1-0.6,0.1-0.8c0.1-0.3,0.4-0.6,0.7-0.8c0.3-0.2,0.7-0.3,1.1-0.3s0.9,0,1.3,0.1
		c0.5,0.1,0.9,0.2,1.3,0.4c0.8,0.3,1.2,0.8,1.4,1.6c0.2,0.7,0.1,1.6-0.2,2.5c0,0.1-0.1,0.3-0.3,0.5c-0.2,0.2-0.3,0.5-0.5,0.7
		c-0.2,0.2-0.4,0.5-0.5,0.7c-0.2,0.2-0.3,0.4-0.3,0.5c-0.2,0.4-0.3,0.8-0.3,1.3s-0.1,0.9,0,1.3c0,0.5,0,0.9-0.1,1.4
		c0,0.4-0.1,0.9-0.3,1.3c-0.2,0.5-0.5,0.9-0.9,1.1c-0.4,0.2-0.8,0.4-1.2,0.6c-0.3,0.2-0.5,0.5-0.9,1c-0.3,0.5-0.5,0.8-0.6,1.1
		c-0.1,0.1-0.1,0.4-0.2,0.8s-0.1,0.8-0.2,1.2s-0.1,0.8-0.2,1.2s-0.1,0.7-0.2,0.9c-0.1,0.2-0.2,0.4-0.3,0.5c-0.1,0.1-0.2,0.3-0.3,0.5
		c0,0,0,0.1,0,0.3s0,0.4,0,0.7c0,0.3,0,0.5,0,0.8C361.5,50.7,361.5,50.9,361.5,51z"/>
</g>
<g class="st0">
	<path class="st1" d="M385.9,36.8c0.3,0.1,0.5,0.4,0.6,0.7c0.1,0.3,0.2,0.7,0.1,1.1c0,0.4-0.1,0.8-0.2,1.2c-0.1,0.4-0.2,0.7-0.3,1
		c-0.1,0.2-0.2,0.4-0.5,0.6c-0.2,0.3-0.4,0.5-0.7,0.8c-0.2,0.3-0.4,0.5-0.7,0.8c-0.2,0.3-0.4,0.5-0.5,0.7c-0.2,0.5-0.4,0.8-0.4,1
		c0,0.2-0.1,0.3-0.1,0.5c-0.2,0.5-0.5,0.6-0.9,0.5c-0.3-0.1-0.4-0.4-0.3-0.7s0.2-0.7,0.3-1.1c0.1-0.4,0.3-0.7,0.4-1
		c0.1-0.3,0.1-0.5,0-0.6c-0.1-0.1-0.2-0.1-0.3,0c-0.1,0.1-0.3,0.2-0.4,0.3c-0.1,0.1-0.2,0.2-0.4,0.3c-0.1,0.1-0.2,0.1-0.3,0.1
		c-0.1-0.1-0.2-0.2-0.3-0.3s-0.1-0.3-0.1-0.5c-0.1-0.2-0.1-0.3-0.2-0.5c-0.1-0.2-0.2-0.3-0.4-0.4c-0.5-0.2-0.9-0.2-1.2,0.1
		c-0.3,0.3-0.7,0.8-1.2,1.7c-0.1,0.2-0.2,0.5-0.3,0.8c-0.1,0.3-0.1,0.5-0.2,0.7c-0.3,0.6-0.7,1.2-1,1.6c-0.3,0.4-0.6,0.8-0.8,1.2
		c-0.3,0.5-0.5,1-0.5,1.4c-0.1,0.4-0.2,0.8-0.3,1.3c-0.1,0.4-0.2,0.9-0.3,1.4c-0.1,0.5-0.4,1.1-0.8,1.9c-0.3,0.5-0.5,1-0.9,1.4
		c-0.3,0.4-0.6,0.7-0.9,1.1c-0.3,0.3-0.5,0.6-0.8,1c-0.3,0.3-0.5,0.7-0.7,1.1c-0.3,0.6-0.5,1.2-0.5,1.6c-0.1,0.4-0.2,0.9-0.4,1.3
		c-0.1,0.1-0.2,0.3-0.3,0.5c-0.1,0.2-0.2,0.3-0.3,0.5c-0.1,0.2-0.2,0.6-0.2,1c0,0.5-0.1,0.8-0.2,1.1c-0.2,0.3-0.4,0.5-0.7,0.5
		c-0.3,0-0.6,0-1,0.1c-0.3,0-0.7,0.1-1.1,0.3s-0.7,0.6-1,1.2c-0.3,0.6-0.5,1.2-0.6,1.8s-0.3,1.2-0.7,1.9c-0.1,0.2-0.3,0.4-0.6,0.4
		c-0.3,0.1-0.6,0-1-0.2c-0.7-0.3-0.9-0.8-0.6-1.3c0.2-0.4,0.5-0.7,0.8-1c0.3-0.3,0.5-0.6,0.8-1c0.2-0.4,0.4-0.8,0.6-1.2
		c0.2-0.4,0.3-0.8,0.5-1.2c0.1-0.4,0.2-0.7,0.2-1c0-0.3-0.1-0.5-0.3-0.6c-0.1,0-0.2,0-0.3,0c-0.1,0-0.2,0.1-0.3,0.2
		c-0.1,0.1-0.2,0.1-0.3,0.2c-0.1,0-0.2,0-0.3,0c-0.2-0.1-0.2-0.3-0.2-0.7c0.1-0.4,0.1-0.8,0.3-1.2c0.1-0.5,0.3-0.9,0.5-1.4
		c0.2-0.5,0.3-0.8,0.4-1c0.3-0.6,0.8-1.3,1.2-2c0.5-0.7,1-1.3,1.4-1.9c0.5-0.6,0.9-1.2,1.3-1.6c0.4-0.5,0.6-0.8,0.8-1.1
		c0.2-0.5,0.4-0.9,0.5-1.2c0.1-0.3,0.2-0.6,0.3-0.8c0.1-0.2,0.1-0.4,0.2-0.5s0.1-0.3,0.2-0.5c0.1-0.2,0.3-0.6,0.6-1
		c0.3-0.5,0.6-1,0.9-1.5c0.3-0.5,0.7-1.1,1-1.6c0.3-0.5,0.7-1,1-1.5c0.5-0.7,1-1.4,1.5-2.1c0.5-0.7,0.9-1.3,1.1-1.7
		c0.2-0.4,0.2-0.8-0.1-1c-0.3-0.2-0.5-0.4-0.7-0.5c-0.3-0.1-0.6-0.1-0.9,0.1c-0.3,0.2-0.5,0.5-0.8,0.8c-0.3,0.3-0.5,0.5-0.8,0.8
		c-0.3,0.2-0.5,0.3-0.8,0.1c-0.3-0.1-0.3-0.4-0.3-0.7c0.1-0.3,0.1-0.7,0.2-1.1c0.1-0.4,0.1-0.8,0.1-1.2c0-0.4-0.2-0.7-0.5-0.8
		c-0.2-0.1-0.4-0.3-0.5-0.6c-0.1-0.3-0.1-0.5,0-0.8c0.1-0.2,0.3-0.4,0.7-0.6c0.3-0.2,0.6-0.5,0.8-0.7c0.1-0.1,0.1-0.3,0.2-0.5
		s0.1-0.4,0.2-0.7c0.1-0.2,0.1-0.4,0.1-0.6c0-0.2,0.1-0.3,0.1-0.4c0.2-0.3,0.4-0.4,0.8-0.2c0.4,0.2,0.7,0.5,0.9,0.8
		c0.2,0.4,0.5,0.7,0.9,0.9c0.4,0.2,0.8,0.3,1.2,0.4c0.4,0.1,0.7,0.1,1.1,0.2c0.3,0,0.6,0.1,1,0.1c0.3,0,0.6,0.1,0.8,0.2
		c0.5,0.2,0.9,0.5,1.2,0.7c0.3,0.2,0.5,0.4,0.8,0.7c0.3,0.2,0.5,0.4,0.9,0.7c0.3,0.2,0.7,0.5,1.2,0.7c0.6,0.3,1.2,0.5,1.7,0.5
		C385.2,36.6,385.6,36.7,385.9,36.8z"/>
</g>
<g class="st0">
	<path class="st1" d="M390,67.1c-0.1,0.4-0.3,0.8-0.5,1.1c-0.2,0.4-0.4,0.7-0.6,1c-0.2,0.2-0.3,0.5-0.5,0.7
		c-0.2,0.2-0.5,0.4-0.8,0.6c-0.5,0.3-1.1,0.8-1.6,1.2s-0.9,0.9-1.3,1.4c-0.4,0.5-0.7,0.9-1,1.3c-0.3,0.4-0.5,0.7-0.7,1
		c-0.1,0.1-0.2,0.3-0.3,0.5c-0.1,0.3-0.3,0.5-0.5,0.8c-0.1,0.1-0.2,0.2-0.4,0.3c-0.1,0.1-0.3,0.1-0.5-0.1c-0.2-0.1-0.3-0.3-0.3-0.5
		c0-0.2,0.1-0.3,0.2-0.5c0.7-1,1-1.7,1-2.2c0-0.5-0.3-0.9-1-1.3c-0.5-0.3-1.1-0.3-1.7,0.1c-0.6,0.4-1.4,1.4-2.5,3
		c-0.2,0.3-0.4,0.6-0.6,0.9c-0.2,0.3-0.4,0.6-0.6,0.9c-0.2,0.3-0.4,0.5-0.5,0.6c-0.1,0.1-0.3,0.1-0.5-0.1c-0.2-0.2-0.3-0.4-0.2-0.8
		c0.1-0.3,0.3-0.8,0.5-1.2c0.3-0.5,0.5-1,0.9-1.4c0.3-0.5,0.7-1,0.9-1.4c0.3-0.5,0.5-0.9,0.5-1.2s0-0.6-0.2-0.8
		c-0.5-0.3-0.9-0.1-1.3,0.5c-0.1,0.1-0.2,0.4-0.4,0.7c-0.1,0.3-0.3,0.5-0.4,0.7c-0.2,0.3-0.4,0.3-0.7,0.2c-0.3-0.2-0.5-0.4-0.5-0.6
		s0.1-0.4,0.2-0.6c0.4-0.5,0.6-1,0.8-1.3c0.1-0.3,0.2-0.6,0.2-0.9c0-0.3,0-0.5-0.1-0.8c-0.1-0.3-0.1-0.5-0.1-0.9c0-0.3,0-0.7,0.1-1
		c0.1-0.3,0-0.6-0.2-0.7c-0.1-0.1-0.2-0.1-0.3,0c-0.1,0.1-0.3,0.1-0.4,0.2c-0.1,0.1-0.3,0.2-0.4,0.3c-0.1,0.1-0.2,0.1-0.3,0
		c-0.3-0.2-0.4-0.5-0.4-1c0-0.5,0.2-1,0.4-1.6c0.2-0.6,0.5-1.2,0.9-1.8c0.3-0.6,0.7-1.2,1-1.6c0.5-0.8,1.3-1.2,2.1-1.3
		s1.6,0.1,2.3,0.6c0.5,0.3,0.7,0.6,0.8,1c0.1,0.4,0.1,0.9-0.1,1.5c-0.4,1.3-0.5,2.3-0.3,3c0.3,0.7,0.6,1.2,1,1.5
		c0.6,0.4,1.2,0.4,1.8,0.1c0.6-0.3,1.1-0.8,1.6-1.5c0.3-0.5,0.4-1.1,0.2-1.8c-0.2-0.8-0.3-1.4-0.3-1.9c0-0.5,0-0.9,0-1.3
		s0.1-0.8,0.2-1.1c0.1-0.3,0.1-0.8,0.1-1.3c0-0.3-0.1-0.5-0.1-0.8c-0.1-0.3-0.2-0.6-0.3-1c-0.1-0.3-0.2-0.7-0.2-1.2
		c-0.1-0.4-0.1-0.9,0-1.4c0-0.3,0.1-0.6,0.2-1c0.1-0.3,0.3-0.7,0.4-1c0.1-0.3,0.2-0.6,0.2-0.9c0-0.3,0-0.4-0.2-0.5
		c-0.1-0.1-0.3-0.1-0.5,0c-0.2,0.1-0.4,0.2-0.6,0.3c-0.2,0.1-0.4,0.2-0.6,0.3c-0.2,0.1-0.4,0.1-0.5,0c-0.2-0.2-0.3-0.5-0.1-0.9
		c0.1-0.4,0.3-0.9,0.6-1.3c0.2-0.3,0.5-0.5,0.8-0.8c0.3-0.3,0.8-0.7,1.2-1.4c0.3-0.4,0.6-0.9,1.1-1.5c0.5-0.6,0.9-1.1,1.4-1.6
		c0.2-0.2,0.5-0.4,1-0.5s0.9-0.3,1.4-0.4c0.5-0.1,1-0.2,1.5-0.2s0.9-0.1,1.2,0c0.1,0,0.3,0.1,0.8,0.1c0.5,0.1,1,0.2,1.6,0.3
		c0.5,0.1,1.1,0.2,1.6,0.3c0.5,0.1,0.8,0.2,0.9,0.3c0,0.1,0.1,0.1,0.2,0.2c1.2,1,2,2.2,2.4,3.7c0.1,0.4,0.1,0.9,0.2,1.5s0,1.2,0,1.8
		s-0.2,1.2-0.3,1.8c-0.2,0.6-0.4,1.1-0.7,1.5c-0.3,0.5-0.7,0.9-1.1,1.3c-0.4,0.4-0.8,0.8-1,1.1c-0.5,0.7-0.9,1.3-1.3,1.7
		c-0.4,0.4-0.7,0.6-0.8,0.5c-0.3-0.2-0.4-0.6-0.2-1.1c0.2-0.5,0.5-1,0.8-1.6c0.3-0.5,0.6-1,0.8-1.5c0.2-0.5,0.2-0.8,0-1
		c-0.3-0.2-0.6-0.2-0.9-0.1s-0.5,0.3-0.8,0.6c-0.2,0.2-0.5,0.5-0.7,0.7s-0.4,0.3-0.5,0.1c-0.4-0.3-0.5-0.6-0.3-1.1
		c0.2-0.5,0.4-1,0.7-1.4c0.3-0.5,0.5-1,0.8-1.4c0.2-0.4,0.2-0.8-0.1-0.9c-0.2-0.1-0.3-0.1-0.5,0c-0.1,0.1-0.3,0.3-0.4,0.5
		c-0.1,0.1-0.1,0.2-0.2,0.3c-0.1,0.1-0.1,0.2-0.2,0.3c-0.3,0.5-0.8,0.6-1.2,0.3c-0.1-0.1-0.2-0.2-0.3-0.4c-0.1-0.2,0-0.4,0.1-0.6
		c0.2-0.3,0.4-0.5,0.5-0.7c0.1-0.1,0.3-0.4,0.6-0.7c0.2-0.3,0.3-0.5,0.2-0.7c-0.1-0.2-0.1-0.3-0.3-0.4c-0.2-0.1-0.3-0.1-0.6,0
		c-0.3,0.1-0.5,0.3-0.8,0.5c-0.3,0.2-0.5,0.5-0.8,0.8c-0.2,0.3-0.5,0.6-0.7,0.9c-0.7,1-0.9,2.2-0.8,3.6c0.2,1.4,0.6,2.8,1.3,4.2
		c0.2,0.4,0.3,0.8,0.3,1.2c0,0.4,0,0.8,0,1.1c0,0.3-0.1,0.7-0.1,0.9c-0.1,0.3-0.1,0.5,0,0.6c0,0.3,0.1,0.6,0.2,0.9
		c0.1,0.3,0.3,0.6,0.3,1c0.1,0.3,0.1,0.7,0.1,1.1c-0.1,0.4-0.2,0.8-0.5,1.2c-0.2,0.3-0.4,0.5-0.5,0.8C390.1,66.8,390,66.9,390,67.1z
		"/>
</g>
</svg>
