<?xml version="1.0" encoding="utf-8"?>
<!-- Generator: Adobe Illustrator 23.0.6, SVG Export Plug-In . SVG Version: 6.00 Build 0)  -->
<svg version="1.1" id="Layer_1" xmlns="http://www.w3.org/2000/svg" xmlns:xlink="http://www.w3.org/1999/xlink" x="0px" y="0px"
	 viewBox="0 0 1457.1 307.5" style="enable-background:new 0 0 1457.1 307.5;" xml:space="preserve">
<style type="text/css">
	.st0{enable-background:new    ;}
	.st1{fill:#0273CE;}
</style>
<title>Artboard 1</title>
<g class="st0">
	<path class="st1" d="M128.4,240.4c0.5,0.8,0.7,1.6,0.8,2.4s0.1,1.7,0.1,2.6c0,0.9-0.1,1.7,0,2.4c0,0.8,0.2,1.4,0.5,1.9
		c0.3,0.5,1,0.9,2.2,1.3c1.1,0.4,2,1,2.6,2c0.6,1,0.9,1.9,0.6,2.6s-0.5,1.2-1,1.5c-0.8,0.5-1.5,0.5-2.4,0.1s-1.6-0.9-2.4-1.5
		c-0.8-0.6-1.5-1.2-2.1-1.7c-0.6-0.5-1-0.7-1.3-0.5c-0.3,0.2-0.3,0.7,0,1.7s0.2,1.5-0.2,1.8c-1.3,0.8-2.5,0.3-3.6-1.4
		c-0.6-0.9-1.1-1.9-1.5-2.9c-0.4-1-0.9-2-1.6-3c-0.5-0.8-1-0.9-1.7-0.5c-1,0.6-0.8,2.1,0.6,4.3c0.6,1,1.3,1.9,2.1,2.7
		c0.7,0.8,1.2,1.2,1.3,1.4c1.5,2.4,2,4.4,1.4,5.9c-0.6,1.5-1.3,2.5-2.3,3.1c-0.5,0.3-1,0.4-1.5,0.4c-0.6,0-1.1-0.3-1.6-0.7
		c-1.8-1.9-3.3-2.8-4.5-2.8c-1.2,0-2.2,0.2-2.9,0.6c-0.3,0.2-0.7,0.5-1.2,0.9c-0.5,0.4-1,0.9-1.4,1.5c-0.4,0.5-0.8,1.1-0.9,1.8
		c-0.2,0.7-0.1,1.3,0.3,1.9c1.8,2.8,3.3,5.3,4.5,7.6c1.3,2.2,1.3,3.7,0.2,4.4c-1.4,0.9-2.6,0.5-3.7-1.2c-0.1-0.2-0.3-0.6-0.7-1.2
		c-0.3-0.6-0.6-1.1-0.8-1.4c-2.4-3.8-4.2-6.2-5.4-7c-1.2-0.9-2.2-1.1-2.8-0.7c-0.5,0.3-0.7,0.8-0.7,1.6s-0.3,1.4-0.9,1.7
		c-0.7,0.4-1.4,0.6-2.3,0.5s-1.7-0.6-2.3-1.7c-0.5-0.8-0.8-1.7-1.1-3c-0.2-1.2-0.4-2-0.6-2.2c-0.4-0.6-1-0.8-1.7-0.3
		c-0.3,0.2-0.4,0.5-0.3,1s0.1,1.1,0.1,1.7c0,0.6,0,1.2-0.1,1.8c-0.1,0.5-0.3,0.9-0.6,1.2c-0.8,0.5-1.4,0.3-1.9-0.6
		c-0.3-0.6-0.8-1.5-1.2-2.9c-0.5-1.4-1.2-2.8-2.1-4.3c-0.7-1.1-1.9-2.4-3.5-3.8s-2.8-2.6-3.4-3.6c-0.3-0.6-0.6-1.2-0.7-2
		c-0.2-0.8-0.4-1.4-0.7-2c-0.2-0.4-0.6-0.9-1.1-1.5c-0.5-0.6-1-1.2-1.4-1.8c-0.4-0.6-0.8-1.1-1.2-1.5c-0.4-0.4-0.6-0.7-0.7-0.8
		c-0.3-0.6-0.8-1.3-1.2-2.1c-0.5-0.9-0.9-1.5-1.2-2c-0.7-1.1-1.4-1.9-2.1-2.5c-0.7-0.5-1.4-1-2.1-1.3c-0.7-0.4-1.3-0.7-2-1.1
		c-0.6-0.4-1.2-1-1.7-1.8c-0.8-1.3-1.2-2.7-1.1-4.3c0.1-1.5-0.4-3.1-1.4-4.7c-0.3-0.6-0.9-1.3-1.6-2.3c-0.7-1-1.1-1.6-1.2-1.8
		c-0.5-0.8-1.1-2-1.7-3.4c-0.6-1.4-1.1-2.4-1.5-3c-0.6-1-1.2-1.7-1.6-2s-1-1-1.7-2.1c-0.2-0.3-0.4-0.8-0.7-1.5
		c-0.3-0.7-0.5-1.5-0.8-2.3c-0.3-0.8-0.6-1.6-0.9-2.4s-0.6-1.5-1-2l-3.5-5.6c-1.4-2.9-2.5-5.3-3.4-7.2c-0.9-1.9-1.3-3.7-1.4-5.2
		c-0.1-1.6,0.2-3.2,0.9-4.8s1.8-3.6,3.6-5.8c1-1.4,1.9-2.7,2.5-3.8c0.6-1.1,1.2-2.1,1.8-3c0.6-0.9,1.4-1.8,2.3-2.7
		c0.9-0.9,2.2-1.9,3.9-2.9c3.7-2.3,7.3-3.6,10.8-3.8s7,0.2,10.3,1.4c3.3,1.2,6.3,3.1,9.1,5.5c2.8,2.5,5.2,5.4,7.3,8.8
		c0.4,0.6,1.1,2.2,2,4.7c0.9,2.5,2.2,5.1,3.9,7.8c0.5,0.8,1.2,1.8,2.2,3.3s1.9,2.8,2.7,4c0.5,0.8,0.8,1.5,0.9,2.1s-0.2,1.3-1.2,1.9
		c-0.6,0.4-1.2,0.2-1.8-0.4s-1.2-1.3-1.7-2.1c-0.3-0.5-0.6-1.1-0.9-1.9c-0.3-0.8-0.8-1.8-1.7-3.1c-0.8-1.2-1.8-1.4-3.1-0.6
		c-0.7,0.4-0.9,1-0.8,1.7s0.4,1.6,0.8,2.4s0.7,1.6,1,2.3c0.2,0.7,0.1,1.2-0.3,1.5c-1.1,0.7-1.9,1-2.5,0.9c-0.5-0.1-0.9-0.4-1.2-0.8
		c-0.2-0.3-0.4-0.9-0.8-1.9s-0.6-1.6-0.8-1.9c-0.6-1-1.4-1.6-2.4-1.8c-1-0.2-1.9-0.3-2.9-0.3c-1,0-2-0.2-3-0.5c-1-0.3-1.9-1-2.7-2.2
		c-0.5-0.8-0.9-1.9-1.4-3.5s-0.9-2.8-1.4-3.5c-0.9-1.5-1.8-2.6-2.7-3.3c-0.9-0.7-1.7-1.1-2.4-1.3s-1.3-0.2-1.8-0.1
		c-0.5,0.2-0.8,0.3-1,0.4c-1.4,0.9-1.8,1.8-1.1,2.9c0.3,0.5,0.9,1.2,1.9,2.2c1,1,1.8,1.9,2.2,2.6c0.8,1.3,1.4,2.6,1.8,4
		c0.4,1.4,0.2,2.3-0.5,2.8c-0.5,0.3-1,0.4-1.6,0.5s-1.1-0.3-1.5-0.9c-0.5-0.8-0.8-1.6-1-2.5c-0.2-0.9-0.5-1.7-0.9-2.4
		c-0.5-0.8-1-1.2-1.5-1.3c-0.5-0.1-0.9-0.1-1.1,0c-0.5,0.3-0.8,0.8-0.8,1.6c-0.1,0.8,0,1.6,0.2,2.6c0.2,1,0.5,1.9,0.8,2.9
		s0.7,1.8,1.1,2.4c0.9,1.5,1.7,2.7,2.4,3.6c0.7,0.9,1.3,1.6,1.8,2.2c0.6,0.6,1.1,1.1,1.5,1.5c0.5,0.4,0.9,1,1.3,1.6
		c0.9,1.4,1.2,3,1.1,4.9c-0.2,1.9,0.2,3.4,1,4.7c0.1,0.2,0.6,0.8,1.3,1.7s1.7,2.1,2.8,3.4s2.2,2.8,3.4,4.3c1.2,1.6,2.2,3,3.1,4.4
		c1.5,2.4,2.6,4.5,3.1,6.1s1,2.8,1.4,3.3c0.4,0.8,1,1.6,1.8,2.3c0.8,0.7,1.8,1.6,3,2.7c0.9,0.9,1.8,1.8,2.6,2.7
		c0.8,0.9,1.6,1.7,2.4,2.4s1.8,1,2.8,1.1c1,0.1,2.2-0.3,3.6-1.2c1.6-1,2.5-2.6,2.7-4.9c0.2-2.3-0.3-4.4-1.6-6.5
		c-0.5-0.8-1.3-1.6-2.4-2.4s-1.9-1.6-2.2-2.1c-0.2-0.4-0.5-0.9-0.7-1.7c-0.2-0.8-0.4-1.6-0.6-2.5c-0.2-0.9-0.3-1.7-0.5-2.4
		c-0.2-0.7-0.4-1.2-0.6-1.5c-0.9-1.4-2-2.1-3.4-1.9c-1.4,0.1-2.3,0.2-2.6,0.4c-0.4,0.2-0.7,0.6-1.1,1.1c-0.3,0.5-0.4,0.9-0.1,1.4
		c0.7,1.1,1.5,2.1,2.4,3c0.9,0.9,1.7,1.8,2.4,3c1.1,1.8,1.1,3-0.2,3.8c-1.2,0.8-2.3,0.3-3.4-1.4c-0.2-0.3-0.5-0.8-0.9-1.6
		s-0.8-1.4-1-1.7c-0.9-1.4-2.1-2.6-3.5-3.5c-1.5-0.9-2.8-2.3-4-4.2c-1.5-2.3-2.2-4.5-2.2-6.6c0-2.1,0.9-3.7,2.8-4.9
		c0.4-0.2,0.8-0.5,1.3-0.7c0.5-0.2,0.8-0.4,1-0.5c0.4-0.2,1.1-0.9,2.2-1.9c1.1-1.1,2-1.8,2.6-2.2c0.6-0.4,1.3-0.6,2.3-0.7
		s1.9-0.3,2.9-0.4c0.9-0.1,1.9-0.3,2.9-0.4c0.9-0.1,1.7-0.4,2.3-0.7c2-1.2,3.3-1.8,4-1.8c0.7,0,1.5,0.7,2.3,2c0.7,1.1,1.4,2.6,2,4.4
		c0.6,1.8,1.2,3.2,1.9,4.3c0.3,0.5,0.8,1.1,1.4,1.8c0.6,0.7,1.3,1.5,2,2.3c0.7,0.8,1.4,1.6,2.1,2.4c0.7,0.8,1.2,1.5,1.6,2
		c1,1.6,2.1,3.7,3.3,6.4c1.2,2.7,2.3,4.8,3.3,6.4c0.4,0.6,1.3,1.6,2.6,2.8C126.8,238.3,127.8,239.4,128.4,240.4z"/>
</g>
<g class="st0">
	<path class="st1" d="M106.1,134.8c1-0.2,2.4-0.3,4.1-0.3s3.4-0.4,4.9-1.1c2.1-1,3.6-2,4.5-3.2c0.9-1.2,2-2.1,3.3-2.7
		c1.4-0.6,2.4-0.6,3,0.2c0.6,0.8,1.7,2.2,3.4,4.3l3.6,4.3c0.7,0.9,1.3,1.8,2,2.8c0.7,1,1.2,1.8,1.7,2.6c0.3,0.7,0.6,1.7,1,3
		c0.4,1.3,0.7,2.3,1.1,3.1c1.8,3.9,3.8,7.4,5.9,10.6c0.1,0.2,0.8,1,2.1,2.5s2.8,3.4,4.6,5.6c1.8,2.3,3.6,4.7,5.4,7.4
		c1.8,2.6,3.2,5.1,4.4,7.5c1,2.1,2,3.8,3,5.2c1,1.3,2,2.6,3,3.6c1,1.1,1.9,2.1,2.8,3.2c0.9,1.1,1.7,2.4,2.4,3.9
		c0.5,1.1,1.4,2.6,2.6,4.6s3,4.3,5.3,7c2,2.5,3.6,4.5,4.9,5.9c1.3,1.5,2.3,2.8,3,3.9s1.4,2.1,1.9,2.9c0.5,0.8,1,1.8,1.5,2.9
		c1.9,4.1,1.6,6.7-0.9,7.9c-1.6,0.7-2.8,0.2-3.6-1.5c-0.2-0.5-0.4-1.1-0.6-1.7c-0.2-0.6-0.4-1.2-0.6-1.7c-0.6-1.2-1.3-1.6-2.2-1.2
		c-0.6,0.3-0.9,0.8-0.8,1.6c0.1,0.8,0.2,1.6,0.5,2.5s0.5,1.6,0.6,2.4s0,1.3-0.6,1.6c-0.5,0.2-1.1,0.1-1.7-0.5s-1.2-1.2-1.8-2
		c-0.6-0.8-1.2-1.4-1.7-2c-0.6-0.6-1.1-0.8-1.5-0.6c-0.5,0.5-0.4,1.5,0.3,3.1c0.2,0.5,0.6,1.2,1.2,2.1c0.6,0.9,1.1,1.8,1.5,2.6
		c0.5,1,0.6,1.8,0.5,2.4c-0.1,0.6-0.5,1-1,1.3c-0.7,0.3-1.5,0.1-2.3-0.6s-1.6-1.7-2.3-2.9c-0.7-1.2-1.5-2.6-2.2-4.1
		c-0.7-1.5-1.4-2.9-2-4.2c-0.9-1.6-2.1-3.4-3.5-5.1c-1.5-1.8-2.7-3.8-3.8-6.1c-1.1-2.4-2.2-4.3-3.4-5.7c-1.2-1.4-2.3-1.8-3.4-1.3
		c-0.5,0.2-0.7,0.8-0.7,1.6c0,0.8,0.1,1.7,0.3,2.7s0.3,1.9,0.2,2.7c0,0.9-0.4,1.4-0.9,1.7c-0.5,0.2-1.1,0.2-1.9-0.1
		s-1.6-0.7-2.5-1.1s-1.7-0.9-2.4-1.2s-1.2-0.4-1.5-0.3c-0.7,0.3-0.8,1.1-0.2,2.3c0.5,1.1,1,1.8,1.4,2s0.9,0.9,1.4,2
		c0.3,0.6,0,1.4-0.8,2.3c-0.8,1-0.9,1.9-0.5,2.9c0.3,0.6,0.8,1.3,1.6,2c0.8,0.7,1.4,1.6,1.8,2.5c0.6,1.3,0.7,2.2,0.2,2.8
		c-0.5,0.6-1,1.2-1.5,1.8s-1,1.5-1.2,2.5c-0.2,1.1,0.2,2.8,1.2,5.1c0.6,1.2,1,2.3,1.3,3.4c0.3,1.1-0.1,1.9-1.2,2.4
		c-1,0.5-1.8,0.4-2.5-0.3c-0.7-0.7-1.3-1.4-1.9-2.3c-0.6-0.9-1.2-1.7-1.7-2.4c-0.6-0.7-1.2-0.9-1.9-0.6c-0.3,0.1-0.5,0.5-0.7,1
		c-0.2,0.6-0.3,1.1-0.4,1.7s-0.2,1.2-0.4,1.7c-0.2,0.6-0.4,0.9-0.7,1.1c-1.1,0.5-1.9,0.1-2.5-1.1c-0.3-0.7-0.5-1.3-0.7-1.9
		c-0.1-0.6-0.3-1.2-0.5-2.1s-0.5-1.8-0.9-2.9c-0.4-1.1-1-2.6-1.8-4.4c-0.9-1.9-1.8-3.9-2.7-5.9s-1.5-3.8-1.9-5.3l-1.7-7.2l-2.9-15.2
		c-0.3-1.7-0.6-3-1-3.9c-0.2-0.5-0.5-0.8-0.9-1c-0.4-0.1-0.7-0.6-1-1.2c-0.4-0.8-0.7-1.8-0.9-3c-0.2-1.2-0.4-2.6-0.6-4.3
		c-0.3-1.7-0.6-3.2-0.9-4.5c-0.3-1.3-0.8-2.8-1.4-4.4s-1.2-3.6-2-6.1s-1.7-5.8-2.8-10c-0.7-2.7-1.7-5.7-3-9.1s-2.4-6.7-3.4-9.9
		c-1-3.2-1.7-5.9-2-8.3C104.3,136.9,104.8,135.4,106.1,134.8z M134.1,179.3c-0.5,0.2-0.7,0.8-0.7,1.7c0,0.9,0.2,1.9,0.4,3.1
		c0.2,1.2,0.6,2.4,1,3.6s0.9,2.3,1.3,3.2c0.5,1.1,1,1.9,1.6,2.3s1,0.9,1.3,1.3c0.1,0.3,0.2,0.8,0.1,1.5s0.1,1.6,0.6,2.7
		c0.6,1.2,2.4,1.1,5.5-0.3c1.7-0.8,2.8-1.5,3.2-2.2c0.5-0.7,0.6-1.3,0.4-1.8c-0.2-0.5-0.6-1.1-1.2-1.8c-0.6-0.7-1.1-1.6-1.6-2.7
		c-1.1-2.5-2.1-4.5-2.8-6s-1.4-2.6-1.8-3.2c-0.5-0.7-0.9-1.1-1.1-1.2s-0.4-0.2-0.5-0.1c-0.4,0.2-0.5,0.6-0.4,1.2
		c0.1,0.6,0.3,1.2,0.5,1.9s0.3,1.4,0.4,2c0.1,0.6-0.2,1.1-0.7,1.3s-1,0-1.5-0.7s-1-1.5-1.4-2.4s-0.9-1.8-1.3-2.5
		C134.9,179.4,134.5,179.2,134.1,179.3z"/>
</g>
<g class="st0">
	<path class="st1" d="M246.3,197.6c0.6,1.6,0.5,2.9-0.1,4.1c-0.6,1.2-1.4,2.3-2.2,3.3c-0.9,1-1.6,2-2.3,3s-0.8,2.1-0.4,3.2
		c0.1,0.3,0.4,0.8,0.9,1.5c0.5,0.7,0.9,1.7,1.4,2.9c0.9,2.6,1.4,5,1.6,7.1c0.1,2.2-0.2,3.4-1.1,3.7c-0.9,0.3-1.7-0.3-2.3-2
		c-0.4-1.2-0.8-2.4-1-3.4c-0.2-1-0.5-1.8-0.6-2.3c-0.3-0.8-0.7-1.8-1.2-3c-0.5-1.2-1.1-2.3-1.7-3.3c-0.6-1.1-1.2-2-1.7-2.7
		s-1-1-1.4-0.9c-0.6,0.2-1.1,0.5-1.4,0.9c-0.3,0.4-0.6,0.8-0.7,1.1s-0.3,0.7-0.4,1s-0.4,0.6-0.8,0.7c-0.3,0.1-0.6,0.1-1,0.1
		c-0.4-0.1-0.6-0.3-0.8-0.9c-0.1-0.4-0.3-1.3-0.4-2.6c-0.1-1.4-0.4-2.6-0.8-3.7c-0.9-2.5-2.4-4.9-4.7-7.3c-2.5-2.5-4.5-4.8-6-6.8
		c-1.5-2-2.4-3.7-2.9-4.9c-0.2-0.7-0.4-1.4-0.5-1.9c-0.1-0.6-0.2-1.1-0.4-1.8c-0.6-1.8-1.7-3.2-3.3-4.3c-1.6-1.1-2.5-2.2-3-3.5
		c-0.4-1.1-0.6-2-0.6-2.6c0-0.6-0.1-1.4-0.5-2.4c-0.4-1.1-1.1-1.6-2-1.2c-0.8,0.3-1.5,0.8-2,1.6c-0.5,0.8-0.4,2,0.2,3.8
		c0.4,1.2,0.8,2.1,1.1,2.4s0.5,0.8,0.7,1.3c0.1,0.4,0.1,0.7,0,0.9s-0.4,0.3-0.6,0.4c-0.5,0.2-1,0-1.4-0.6s-0.9-1.3-1.3-2
		s-0.8-1.4-1.2-1.9s-0.8-0.8-1.3-0.6c-0.6,0.2-0.6,1.3,0.1,3.1c0.1,0.3,0.4,1,0.9,2s0.9,2,1.4,3.1c0.4,1.1,0.9,2.1,1.3,3
		s0.7,1.5,0.8,1.7c0.2,0.5,0.4,1.4,0.7,2.5c0.3,1.2,0.6,2.6,1,4.1c0.4,1.6,0.8,3.2,1.3,4.9c0.5,1.7,1,3.2,1.4,4.6
		c0.7,2.1,1.8,4.1,3.1,5.9c1.3,1.9,2.4,4,3.2,6.4c1,2.8,1.6,4.8,1.8,5.8s-0.1,1.8-0.9,2.1c-0.8,0.3-1.5,0.2-2.1-0.4s-1-1.2-1.5-1.9
		c-0.4-0.7-0.9-1.4-1.3-2c-0.4-0.6-1-0.8-1.6-0.6c-0.9,0.3-1.6,1.1-2.1,2.4s-0.5,2.5-0.1,3.6c0.4,1.1,1,2.4,1.9,3.8
		c0.8,1.4,1.3,2.2,1.4,2.6c0.4,1-0.1,1.8-1.3,2.2c-0.8,0.3-1.4,0.1-1.8-0.5s-0.6-1.3-0.9-2.1c-0.1-0.3-0.3-0.9-0.6-1.8
		c-0.3-0.9-0.5-1.6-0.7-2.1c-0.4-1.1-0.9-2.2-1.5-3.1c-0.6-0.9-2-1.6-4.3-2.1c-1.8-0.3-2.9-0.8-3.3-1.5c-0.5-0.6-0.8-1.2-1-1.8
		c-0.1-0.3-0.2-0.9-0.2-1.7c0-0.8,0-1.7,0.1-2.7s0.1-1.9,0.1-2.8c0-0.9-0.1-1.6-0.3-2c-0.5-1.4-1.1-2.8-2-4.2
		c-0.9-1.4-1.7-2.8-2.5-4.2c-0.8-1.3-1.6-2.6-2.3-3.6c-0.7-1.1-1.2-1.9-1.4-2.4c-0.6-1.6-1-3.2-1.3-5.1s-0.6-3.5-0.8-5.1
		s-0.4-3.1-0.5-4.4c-0.1-1.3-0.2-2.2-0.4-2.7c-0.4-1.1-1-2.5-1.9-4.1s-1.8-3.3-2.7-5s-1.8-3.3-2.6-4.7c-0.8-1.4-1.3-2.5-1.6-3.2
		c-0.8-2.3-1.1-4.8-0.7-7.5s0-5.4-0.8-7.8c-0.8-2.2-1.9-4.2-3.6-6.1s-2.6-3.2-3.1-4c-0.5-1.1-1.4-2.4-2.6-4c-1.2-1.5-2-2.8-2.4-3.7
		c-0.4-1-0.7-2.4-0.9-4.1c-0.2-1.7-0.6-3.1-1-4.2c-0.1-0.3-0.4-0.8-0.8-1.4c-0.4-0.6-0.8-1.2-0.9-1.7c-0.3-0.8-0.2-1.6,0.4-2.2
		s1.1-1.1,1.7-1.3c0.4-0.2,1-0.2,1.8-0.2s1.6,0,2.4,0s1.6,0,2.4,0c0.8,0,1.3,0,1.6-0.1c0.8-0.3,1.9-0.8,3.1-1.5s2.2-1.2,3.1-1.5
		c1.8-0.6,3.9-1.2,6.4-1.8c2.5-0.6,4.6-1.2,6.4-1.8l-0.2,0.1c5.3-0.8,9.6-1.1,13-0.8c3.4,0.3,6,0.9,8,1.8c1.9,0.9,3.4,1.9,4.2,3.1
		s1.6,2.2,2.1,3.1c1.2,2,2.2,3.9,3.1,5.7c0.9,1.8,1.8,3.9,2.6,6.2c0.4,1.2,0.7,3,0.9,5.3c0.2,2.3,0.5,4,0.9,5.3
		c0.7,1.9,1.3,4.3,2,7.2c0.7,3,1.4,5.4,2,7.2c0.4,1,0.7,1.8,1.1,2.2c0.3,0.5,0.6,0.9,0.7,1.2c0.3,0.9,0.3,1.8,0,2.7
		c-0.3,0.9-0.9,1.4-1.6,1.7s-1.6,0-2.8-0.9c-1.1-0.8-2-1.1-2.8-0.9c-0.5,0.2-0.7,0.5-0.5,1.1c0.4,1.1,1.2,2.1,2.3,2.8
		c1.1,0.7,1.9,1.6,2.3,2.8c0.2,0.6,0.3,1.3,0.3,2s0.1,1.5,0.4,2.3c0.4,1.2,1.2,2.4,2.3,3.6c1.5,1.7,2.6,2.8,3.1,3.3
		c0.5,0.5,1.1,1.2,1.8,2.2c0.5,0.8,1,1.7,1.5,2.9c0.5,1.2,1,2.3,1.5,3.5c0.5,1.2,0.9,2.3,1.4,3.4c0.4,1.1,0.9,1.9,1.4,2.4
		c0.4,0.6,1.1,1.2,2.1,2c1,0.8,2,1.6,3,2.4c1.1,0.9,2,1.7,2.9,2.6C245.4,195.9,246,196.8,246.3,197.6z M201.5,140
		c-0.9-2.6-1.7-4.2-2.3-4.7s-1-1.2-1.3-1.9c-0.4-1.1-0.6-2-0.6-2.5s-0.1-1-0.3-1.6c-0.7-2.1-1.9-3.7-3.4-4.7
		c-1.6-1.1-3.4-1.3-5.4-0.5c-0.9,0.3-1.4,1.1-1.4,2.3s0.2,2.4,0.6,3.6c0.1,0.3,0.3,0.8,0.6,1.4c0.3,0.6,0.4,1,0.5,1.2
		c0.4,1.1,0.3,1.8-0.3,2c-0.6,0.2-1.1,0.1-1.6-0.4s-0.8-1.1-1.2-1.7c-0.4-0.6-0.8-1.2-1.3-1.6c-0.5-0.5-0.9-0.6-1.5-0.4
		c-0.5,0.2-0.5,0.9-0.1,2.3c0.1,0.3,0.4,1.1,0.9,2.2c0.5,1.2,1.1,2.4,1.7,3.6c0.6,1.2,1.2,2.4,1.7,3.6c0.5,1.2,0.8,1.9,0.9,2.2
		c0.3,0.9,0.5,1.8,0.5,2.6c0,0.8,0.1,1.6,0.4,2.4c0.5,1.4,1.3,1.8,2.6,1.4c0.6-0.2,1.1-0.5,1.4-0.8s0.6-0.6,1.1-0.7
		c0.4-0.1,0.9-0.1,1.4,0.3s1.1,0.7,1.7,1.1c0.6,0.4,1.2,0.8,1.9,1.1c0.6,0.3,1.3,0.3,1.9,0.1c1.4-0.5,2.2-1.9,2.3-4.1
		C202.9,145.4,202.5,142.9,201.5,140z"/>
</g>
<g class="st0">
	<path class="st1" d="M300.3,164.9c0.1,0.4,0.3,1,0.6,1.7c0.3,0.7,0.7,1.4,1,2.2c0.4,0.8,0.7,1.4,1.1,2.1c0.4,0.6,0.6,1.1,0.7,1.4
		c0.6,2.2,0.1,3.6-1.5,4c-0.9,0.2-1.4,0.2-1.7-0.1c-0.3-0.3-0.6-0.4-0.8-0.4c-0.5,0.1-0.7,0.8-0.6,2.1s0.2,2.5,0.4,3.9
		c0.1,1.4,0.2,2.7,0.2,4c0,1.3-0.4,2-1.2,2.2c-0.9,0.2-1.7,0-2.5-0.6c-0.8-0.6-1.6-0.8-2.5-0.6c-0.9,0.2-1.2,1.1-1,2.8
		c0.2,1.6,0.6,3.3,1.1,5.1c0.5,1.8,0.9,3.5,1.1,5.1c0.3,1.6,0.1,2.5-0.5,2.6c-0.6,0.2-1.2-0.1-1.6-0.7c-0.4-0.6-0.7-1.2-0.8-1.7
		c-0.1-0.3-0.2-0.9-0.4-1.6c-0.2-0.7-0.4-1.5-0.6-2.3c-0.2-0.8-0.3-1.5-0.5-2.2c-0.2-0.6-0.3-1.1-0.4-1.3c-0.3-1.2-1-1.6-2.1-1.3
		c-0.6,0.2-0.9,0.7-0.9,1.6c0,0.9-0.4,1.5-1.2,1.7c-0.6,0.2-1.4-0.1-2.4-0.8c-0.9-0.7-1.9-0.9-2.8-0.7c-0.7,0.2-1.2,0.5-1.3,0.9
		s-0.4,0.7-1,0.9c-0.7,0.2-1.5-0.1-2.2-0.8c-0.7-0.7-1.5-1-2.3-0.7c-0.6,0.2-0.9,0.6-0.9,1.4s0.1,1.4,0.3,2.1c0.3,0.9,0.6,2,1.1,3
		c0.5,1.1,0.8,1.9,0.9,2.4c0.2,0.9,0.3,1.7,0.2,2.4s-0.7,1.3-1.6,1.6c-1.2,0.3-2.1,0-2.9-1s-1.4-2.2-1.9-3.5c-0.5-1.3-1-2.5-1.5-3.6
		s-1-1.5-1.7-1.3c-1,0.3-1.4,1-1.3,2.1c0.1,1.1,0.2,2.3,0.5,3.6s0.4,2.4,0.5,3.6c0.1,1.1-0.3,1.8-1.1,2c-0.5,0.1-1.3,0.1-2.4,0
		s-1.9-1.1-2.4-2.9c-0.4-1.3-0.8-2.1-1.4-2.5c-0.6-0.4-1.1-0.7-1.7-0.9c-0.6-0.2-1.1-0.4-1.5-0.6c-0.5-0.2-0.8-0.7-1-1.4
		c-0.6-2.2-1-4.4-1.1-6.6s-0.5-4.6-1.3-7.4c-0.3-0.9-0.5-1.6-0.8-2.1c-0.3-0.4-0.6-0.8-1-1.1c-0.4-0.3-0.7-0.6-0.9-0.9
		c-0.3-0.3-0.5-0.8-0.7-1.4c-0.3-1-0.4-1.9-0.5-2.8s-0.2-2.1-0.3-3.5c-0.1-1.4-0.3-3.3-0.6-5.6c-0.3-2.3-0.8-5.4-1.4-9.4
		c-0.9-4.9-1.6-9-2.2-12.4s-1.1-6.2-1.6-8.4c-0.5-2.2-0.9-3.9-1.1-5.1c-0.3-1.2-0.5-2.1-0.7-2.7c-0.8-3-1.6-4.4-2.2-4.2
		c-0.5,0.2-0.9,0.6-1,1.4s-0.2,1.6-0.3,2.5c-0.1,0.9-0.1,1.7-0.2,2.4c-0.1,0.8-0.3,1.2-0.8,1.3c-0.5,0.1-1-0.2-1.4-1.1
		c-0.4-0.9-0.8-1.9-1.1-3.2c-0.5-1.8-0.7-3.6-0.5-5.4c0.2-1.8-0.1-4.1-0.8-6.7c-0.2-0.8-0.4-2-0.6-3.5c-0.1-1.5-0.3-2.6-0.5-3.2
		c-0.8-2.9-1.7-5.5-2.8-7.8c-1.1-2.3-1.6-3.6-1.6-3.7c-0.5-1.8-0.4-3.6,0.4-5.5c0.8-1.9,1.9-3,3.4-3.4c0.5-0.2,1.4-0.2,2.5,0
		c1.1,0.1,2,0.1,2.6-0.1c0.5-0.2,1.3-0.6,2.4-1.3s2.2-1.2,3.3-1.5c0.2-0.1,0.9-0.1,2.2,0c1.3,0.1,2.2,0,2.7-0.2
		c0.6-0.2,1.6-0.7,2.9-1.4s2.4-1.3,3.3-1.5c1.2-0.3,2.7-0.2,4.5,0.3c1.9,0.5,3,0.8,3.5,0.8c5.4-0.2,9.9,0.8,13.5,3.1
		s5.9,5.1,6.7,8.2c0.9,3.1,1.7,5.5,2.6,7.2s1.4,2.8,1.5,3.1c0.3,1.2,0.6,2.5,0.9,3.9s0.5,3.3,0.7,5.6c0.1,2.1,0.4,4,0.7,5.6
		c0.3,1.6,0.6,3,0.8,4.1c0.2,1.1,0.2,2.1,0.1,2.7s-0.6,1.1-1.4,1.3c-0.5,0.1-0.9,0.1-1.2-0.2s-0.6-0.3-1.2-0.2
		c-0.6,0.2-1,0.6-1.1,1.4s-0.7,1.3-1.6,1.6c-0.9,0.2-1.4,0.4-1.6,0.5c-0.2,0.1-0.3,0.5-0.1,1.1c0.3,1.2,1,2,2.1,2.4s2.2,0.8,3.4,0.9
		c1.2,0.2,2.3,0.4,3.4,0.7s1.7,0.8,1.9,1.5c0.2,0.6,0.2,1.2,0,1.6c-0.2,0.4-0.2,0.8-0.2,1c0.1,0.4,0.8,1,2,1.8
		c1.9,1.1,3.2,2.4,3.9,4c0.7,1.6,1.4,3.4,1.9,5.4c0.5,1.8,0.9,3.5,1.2,5.1C299.3,160.8,299.8,162.7,300.3,164.9z M265.8,113.4
		c-0.4-1.3-0.7-1.9-1-1.8c-0.2,0.1-0.4,0.7-0.7,1.8c-0.2,1.2-0.7,1.8-1.3,2c-0.2,0.1-0.6,0.1-1.2,0c-0.6-0.1-1-0.6-1.3-1.5
		c-0.4-1.4-0.4-2.8-0.1-4.2s0.2-3.1-0.4-5c-0.2-0.8-0.8-1.4-1.8-1.6c-1-0.2-1.9-0.2-2.9,0.1c-0.6,0.2-1,0.5-1.2,1
		c-0.1,0.5-0.2,1-0.2,1.6s0.1,1.1,0.2,1.5c0.1,0.4,0,0.7-0.2,0.8c-0.4,0.1-0.8-0.1-1.1-0.6c-0.3-0.5-0.6-1-1-1.6
		c-0.3-0.6-0.7-1.1-1-1.6c-0.3-0.5-0.7-0.7-1.1-0.6c-0.5,0.2-0.8,0.6-0.9,1.4c-0.1,0.8,0,1.7,0.1,2.7c0.2,1,0.4,2,0.6,3.1
		c0.2,1.1,0.4,1.9,0.6,2.6c0.2,0.8,0.5,1.6,0.8,2.2c0.3,0.6,0.5,1.2,0.6,1.7c0.4,1.3,0.3,2.6-0.1,4c-0.4,1.4-0.4,2.7-0.1,3.9
		c0.4,1.5,1.2,2.6,2.3,3.5c1.1,0.8,2.4,1.4,3.8,1.8c1.4,0.4,2.7,0.6,3.9,0.6c1.3,0.1,2.3,0,3-0.2c1.5-0.4,2.5-1.5,3-3.4
		c0.5-1.8,0.5-3.7,0-5.5c-0.1-0.5-0.4-1.1-0.8-1.6c-0.4-0.5-0.6-1.1-0.8-1.6c-0.2-0.8-0.2-1.8,0-3
		C265.9,114.7,265.9,113.9,265.8,113.4z M283,168.7c-0.2-0.6-0.5-1.1-1.1-1.2c-0.6-0.2-1.1-0.3-1.7-0.4c-0.6-0.1-1.1-0.2-1.6-0.3
		c-0.5-0.1-0.8-0.5-1-1.2c-0.5-1.9-0.8-3.9-0.8-6s-0.2-3.7-0.5-4.9c-0.7-2.4-1.9-3.4-3.6-2.9c-0.5,0.1-0.8,0.6-0.8,1.3
		c0,0.7,0.2,1.5,0.4,2.3s0.4,1.6,0.5,2.3c0.1,0.7-0.1,1.1-0.7,1.3c-0.9,0.2-1.7-0.1-2.5-1.1c-0.8-1-1.4-2.2-1.8-3.7
		c-0.1-0.5-0.2-1.1-0.2-1.8s-0.2-1.6-0.5-2.8c-0.4-1.4-1-1.9-1.8-1.7c-0.7,0.2-1.3,1.2-1.6,3c-0.4,1.8-0.1,4.1,0.6,6.9
		c0.6,2.1,1.5,3.8,2.8,4.9c1.3,1.1,2,2.1,2.2,2.8c0.2,0.7-0.1,1.2-1,1.5c-0.3,0.1-0.9,0-1.6-0.2c-0.8-0.2-1.4-0.3-1.9-0.1
		c-0.9,0.2-1.1,0.9-0.8,2.1c0.3,0.9,0.7,1.7,1.2,2.3c0.6,0.6,1.1,1.8,1.6,3.6c0.2,0.6,0.5,1.2,0.9,1.6s0.9,0.5,1.4,0.4
		c0.2-0.1,0.5-0.2,0.8-0.4c0.3-0.2,0.6-0.3,0.8-0.4c1.1-0.3,1.8,0,2.3,0.8c0.5,0.8,1,1.2,1.5,1c3.1-0.9,5.4-2.2,6.8-4.1
		C282.7,171.4,283.3,169.9,283,168.7z"/>
</g>
<g class="st0">
	<path class="st1" d="M305,69c1,0,2.4,0.2,4.1,0.5c1.7,0.4,3.4,0.3,5,0c2.2-0.5,4-1.2,5.1-2.2c1.1-1,2.4-1.6,3.8-1.9
		c1.5-0.3,2.5,0,2.9,0.9s1.2,2.5,2.4,4.9l2.6,5c0.5,1,0.9,2.1,1.4,3.2c0.5,1.1,0.8,2,1.1,2.9c0.2,0.8,0.3,1.8,0.4,3.1
		c0.1,1.3,0.2,2.4,0.4,3.3c0.9,4.2,2.1,8,3.6,11.6c0,0.2,0.5,1.2,1.5,2.9c0.9,1.7,2,3.9,3.3,6.5s2.5,5.4,3.7,8.3
		c1.2,2.9,2.1,5.7,2.7,8.3c0.5,2.2,1.1,4.1,1.8,5.7c0.7,1.5,1.5,2.9,2.2,4.2c0.7,1.2,1.4,2.5,2.1,3.8c0.7,1.3,1.2,2.7,1.5,4.3
		c0.3,1.2,0.8,2.9,1.5,5.1c0.8,2.2,2,4.9,3.7,8c1.4,2.8,2.6,5.1,3.5,6.8c0.9,1.7,1.7,3.2,2.2,4.4s0.9,2.3,1.2,3.2
		c0.3,0.9,0.6,1.9,0.9,3.1c1,4.4,0.1,6.9-2.6,7.5c-1.7,0.4-2.8-0.3-3.2-2.2c-0.1-0.5-0.2-1.1-0.2-1.8c0-0.7-0.1-1.3-0.2-1.8
		c-0.3-1.3-0.9-1.8-1.9-1.6c-0.6,0.1-1,0.6-1.1,1.4s-0.1,1.7,0,2.5c0.1,0.9,0.1,1.7,0.1,2.5c0,0.8-0.3,1.2-1,1.4
		c-0.5,0.1-1-0.2-1.5-0.8c-0.5-0.7-0.9-1.5-1.4-2.3c-0.4-0.9-0.8-1.6-1.3-2.3c-0.4-0.7-0.9-1-1.3-0.9c-0.6,0.4-0.7,1.4-0.3,3.1
		c0.1,0.5,0.4,1.3,0.8,2.4s0.7,2,0.9,2.9c0.2,1.1,0.2,1.9,0,2.5s-0.7,0.9-1.2,1c-0.8,0.2-1.5-0.2-2.1-1.1c-0.6-0.9-1.2-2-1.7-3.4
		s-0.9-2.8-1.3-4.4s-0.8-3.1-1.1-4.5c-0.5-1.8-1.3-3.7-2.4-5.7c-1.1-2-1.9-4.3-2.4-6.7c-0.6-2.6-1.3-4.7-2.1-6.3
		c-0.9-1.6-1.9-2.3-3.1-2c-0.5,0.1-0.9,0.6-1,1.4s-0.2,1.7-0.2,2.7c0,1-0.1,1.9-0.3,2.7c-0.2,0.8-0.6,1.3-1.3,1.5
		c-0.5,0.1-1.2-0.1-1.9-0.5c-0.7-0.5-1.5-1-2.2-1.6s-1.4-1.2-2.1-1.7c-0.6-0.5-1.1-0.7-1.4-0.6c-0.8,0.2-1,0.9-0.7,2.2
		c0.3,1.2,0.6,1.9,1,2.2c0.4,0.3,0.7,1.1,1,2.2c0.1,0.6-0.3,1.4-1.2,2.1c-1,0.8-1.3,1.7-1.1,2.8c0.1,0.6,0.5,1.4,1.1,2.3
		c0.6,0.9,1,1.8,1.2,2.8c0.3,1.4,0.2,2.3-0.4,2.8c-0.6,0.5-1.2,0.9-1.9,1.4c-0.7,0.5-1.2,1.2-1.7,2.2s-0.4,2.7,0.1,5.2
		c0.3,1.3,0.5,2.5,0.5,3.6s-0.5,1.8-1.7,2.1c-1.1,0.2-1.9,0-2.4-0.8c-0.5-0.8-1-1.7-1.4-2.7c-0.4-1-0.8-1.9-1.2-2.7
		c-0.4-0.8-1-1.1-1.7-1c-0.3,0.1-0.6,0.4-0.9,0.9c-0.3,0.5-0.5,1.1-0.7,1.6s-0.5,1.1-0.8,1.6c-0.3,0.5-0.6,0.8-0.9,0.9
		c-1.2,0.3-1.9-0.2-2.2-1.5c-0.2-0.8-0.3-1.4-0.3-2c0-0.6,0-1.3,0-2.1c0-0.8-0.1-1.9-0.3-3.1c-0.1-1.2-0.4-2.8-0.9-4.7
		c-0.5-2-0.9-4.1-1.4-6.3c-0.5-2.1-0.7-4-0.7-5.6l-0.1-7.4l0.3-15.4c0.1-1.7,0-3-0.2-4c-0.1-0.5-0.3-0.9-0.7-1.1
		c-0.3-0.2-0.6-0.7-0.7-1.4c-0.2-0.9-0.3-1.9-0.3-3.1c0-1.2,0.1-2.7,0.3-4.3c0.1-1.7,0.1-3.2,0-4.6c-0.1-1.3-0.2-2.8-0.4-4.6
		c-0.2-1.7-0.4-3.8-0.6-6.4c-0.2-2.5-0.4-6-0.6-10.3c-0.2-2.8-0.5-6-1-9.6c-0.5-3.6-0.9-7.1-1.3-10.4s-0.4-6.1-0.2-8.5
		C302.9,70.6,303.6,69.3,305,69z M323.1,118.4c-0.5,0.1-0.9,0.6-1,1.5c-0.1,0.9-0.2,1.9-0.2,3.1c0,1.2,0.1,2.4,0.2,3.8
		c0.2,1.3,0.4,2.5,0.6,3.4c0.3,1.2,0.6,2,1.1,2.6s0.8,1,1,1.6c0.1,0.3,0,0.8-0.3,1.5c-0.2,0.7-0.2,1.6,0,2.8
		c0.3,1.3,2.1,1.6,5.4,0.8c1.8-0.4,3-0.9,3.6-1.5s0.9-1.1,0.7-1.7s-0.4-1.2-0.8-2s-0.7-1.8-1-3c-0.6-2.7-1.1-4.8-1.5-6.4
		c-0.4-1.6-0.8-2.8-1.1-3.6c-0.3-0.8-0.6-1.2-0.8-1.4c-0.2-0.2-0.4-0.3-0.5-0.2c-0.4,0.1-0.6,0.4-0.6,1.1c0,0.6,0.1,1.3,0.1,2
		c0,0.7,0,1.4-0.1,2s-0.4,1-0.9,1.1c-0.5,0.1-1-0.2-1.3-1c-0.3-0.8-0.6-1.7-0.9-2.7c-0.2-1-0.5-1.9-0.8-2.7
		C323.9,118.6,323.5,118.3,323.1,118.4z"/>
</g>
<g class="st0">
	<path class="st1" d="M424.2,152.9c0.1,0.9,0.1,1.7-0.1,2.5c-0.2,0.8-0.5,1.6-0.9,2.4c-0.4,0.8-0.7,1.5-0.9,2.3
		c-0.3,0.7-0.4,1.4-0.3,1.9s0.6,1.2,1.5,2c0.9,0.8,1.5,1.7,1.7,2.8c0.2,1.2,0.1,2.1-0.4,2.7c-0.5,0.6-1,0.9-1.5,1
		c-0.9,0.1-1.6-0.1-2.2-0.8c-0.6-0.7-1.2-1.4-1.7-2.3c-0.5-0.9-0.9-1.7-1.2-2.4c-0.4-0.7-0.7-1.1-1-1c-0.3,0.1-0.5,0.6-0.6,1.5
		c-0.1,1-0.4,1.5-0.8,1.6c-1.5,0.3-2.5-0.6-2.8-2.7c-0.2-1.1-0.3-2.1-0.3-3.2c0-1.1-0.1-2.2-0.3-3.4c-0.1-0.9-0.6-1.2-1.4-1.1
		c-1.2,0.2-1.6,1.6-1.1,4.2c0.2,1.2,0.5,2.3,0.9,3.3s0.6,1.6,0.6,1.8c0.5,2.8,0.2,4.8-0.9,5.9c-1.1,1.1-2.2,1.8-3.2,2
		c-0.5,0.1-1.1,0-1.5-0.2s-0.9-0.7-1.2-1.3c-1-2.4-2-3.8-3.1-4.3s-2.1-0.6-2.9-0.5c-0.3,0.1-0.8,0.2-1.4,0.4s-1.2,0.5-1.9,0.8
		c-0.6,0.3-1.1,0.8-1.5,1.4c-0.4,0.6-0.5,1.2-0.4,1.8c0.6,3.2,1,6.2,1.4,8.7s-0.1,4-1.4,4.2c-1.6,0.3-2.6-0.6-3-2.5
		c0-0.2-0.1-0.7-0.2-1.4c-0.1-0.7-0.1-1.2-0.2-1.6c-0.8-4.4-1.6-7.3-2.4-8.5c-0.8-1.2-1.6-1.8-2.4-1.7c-0.5,0.1-1,0.5-1.3,1.2
		c-0.3,0.7-0.8,1.1-1.5,1.3c-0.8,0.1-1.5,0-2.3-0.4s-1.3-1.2-1.5-2.4c-0.1-0.9-0.1-1.9,0.1-3.1c0.2-1.2,0.3-2,0.3-2.3
		c-0.1-0.8-0.6-1.1-1.5-0.9c-0.3,0.1-0.6,0.3-0.7,0.8c-0.1,0.5-0.3,1-0.6,1.6s-0.5,1.1-0.7,1.6s-0.6,0.8-1,0.9
		c-0.9,0.1-1.4-0.3-1.6-1.2c-0.1-0.6-0.1-1.7,0-3.2c0.1-1.5,0-3.1-0.3-4.8c-0.2-1.3-0.8-2.9-1.8-4.8c-1-1.9-1.6-3.4-1.8-4.6
		c-0.1-0.6-0.1-1.4,0-2.1s0.2-1.4,0-2.1c-0.1-0.4-0.2-1-0.5-1.8c-0.2-0.7-0.5-1.5-0.6-2.1c-0.2-0.7-0.4-1.3-0.6-1.8
		c-0.2-0.5-0.3-0.8-0.3-0.9c-0.1-0.6-0.2-1.5-0.4-2.4s-0.2-1.8-0.3-2.3c-0.2-1.3-0.6-2.3-1-3.1c-0.5-0.8-1-1.4-1.4-2
		c-0.5-0.6-1-1.2-1.4-1.8c-0.4-0.6-0.7-1.4-0.9-2.3c-0.3-1.5-0.1-3,0.6-4.4s0.8-3,0.5-4.9c-0.1-0.7-0.3-1.6-0.6-2.8
		c-0.3-1.2-0.4-1.9-0.5-2.1c-0.2-1-0.3-2.2-0.3-3.8c0-1.6-0.1-2.7-0.2-3.3c-0.2-1.2-0.5-2-0.8-2.5c-0.3-0.4-0.6-1.3-0.8-2.6
		c-0.1-0.3-0.1-0.9,0-1.7s0-1.6,0.1-2.4c0-0.8,0-1.7,0.1-2.5s0-1.6-0.1-2.2l-1.1-6.5c-0.2-3.2-0.4-5.8-0.5-8
		c-0.1-2.1,0.1-3.9,0.6-5.4c0.5-1.5,1.4-2.9,2.6-4.2c1.2-1.3,3.1-2.6,5.5-4.1c1.5-0.9,2.8-1.8,3.7-2.6c1-0.8,1.9-1.5,2.8-2.1
		c0.9-0.6,2-1.2,3.1-1.6c1.2-0.5,2.8-0.9,4.7-1.2c4.2-0.7,8-0.6,11.5,0.5c3.4,1.1,6.4,2.8,9,5.1s4.7,5.2,6.4,8.5
		c1.6,3.3,2.8,7,3.5,10.9c0.1,0.8,0.1,2.5,0.1,5.1c-0.1,2.6,0.1,5.5,0.7,8.7c0.1,0.9,0.4,2.2,0.9,3.9c0.4,1.7,0.7,3.3,1,4.7
		c0.1,0.9,0.2,1.6,0.1,2.3c-0.1,0.7-0.7,1.1-1.8,1.3c-0.6,0.1-1.2-0.2-1.5-1.1s-0.6-1.7-0.8-2.5c-0.1-0.5-0.1-1.2-0.1-2.1
		c0-0.8-0.1-2-0.4-3.5c-0.2-1.4-1.1-2-2.6-1.7c-0.8,0.1-1.2,0.6-1.4,1.3s-0.2,1.6-0.1,2.5c0,0.9,0.1,1.8,0,2.5s-0.3,1.2-0.9,1.2
		c-1.3,0.2-2.2,0.2-2.6-0.1c-0.5-0.3-0.7-0.7-0.8-1.1c-0.1-0.3-0.1-1,0-2c0-1,0-1.7,0-2c-0.2-1.2-0.7-2.1-1.5-2.6s-1.7-1-2.6-1.4
		s-1.8-0.9-2.6-1.6c-0.8-0.6-1.4-1.7-1.6-3.1c-0.1-0.9-0.1-2.1,0-3.8c0.2-1.7,0.2-2.9,0-3.8c-0.3-1.7-0.7-3.1-1.3-4
		c-0.6-1-1.1-1.7-1.7-2.1s-1.1-0.7-1.6-0.7c-0.5,0-0.9,0-1.1,0c-1.6,0.3-2.3,1-2.1,2.2c0.1,0.5,0.4,1.5,1,2.8
		c0.6,1.3,0.9,2.4,1.1,3.2c0.3,1.5,0.3,3,0.2,4.4c-0.1,1.4-0.6,2.2-1.5,2.4c-0.5,0.1-1.1,0.1-1.6-0.1c-0.5-0.2-0.9-0.7-1-1.4
		c-0.1-0.9-0.1-1.8,0-2.7c0.2-0.9,0.2-1.8,0.1-2.5c-0.1-0.9-0.5-1.5-0.9-1.8c-0.5-0.3-0.8-0.4-1-0.4c-0.5,0.1-1,0.5-1.4,1.2
		c-0.4,0.7-0.7,1.5-0.8,2.5c-0.2,1-0.3,2-0.3,3c0,1,0,1.9,0.1,2.7c0.3,1.7,0.6,3.1,0.9,4.2c0.3,1.1,0.6,2,0.9,2.7
		c0.3,0.7,0.6,1.4,0.8,1.9c0.3,0.6,0.5,1.2,0.6,2c0.3,1.6,0,3.3-0.8,4.9c-0.8,1.7-1.1,3.2-0.8,4.8c0,0.2,0.2,0.9,0.6,2.1
		c0.4,1.2,0.8,2.6,1.3,4.2s1,3.4,1.5,5.3c0.5,1.9,0.9,3.6,1.2,5.2c0.5,2.8,0.7,5.1,0.6,6.8c-0.1,1.8-0.1,2.9,0,3.6
		c0,0.9,0.3,1.8,0.8,2.8c0.5,1,1.1,2.2,1.8,3.6c0.5,1.1,1,2.3,1.4,3.4c0.4,1.2,0.8,2.2,1.4,3.1c0.5,0.9,1.3,1.6,2.2,2
		c0.9,0.5,2.2,0.5,3.8,0.2c1.8-0.3,3.3-1.5,4.3-3.5c1-2,1.4-4.2,0.9-6.6c-0.1-0.9-0.6-1.9-1.3-3.1c-0.7-1.2-1.1-2.1-1.2-2.8
		c-0.1-0.4-0.1-1.1,0-1.8c0.1-0.8,0.2-1.6,0.4-2.5s0.3-1.7,0.4-2.4c0.1-0.7,0.1-1.3,0-1.6c-0.3-1.6-1.1-2.7-2.5-3.1
		c-1.4-0.4-2.2-0.6-2.5-0.6c-0.4,0.1-0.9,0.3-1.4,0.6c-0.5,0.3-0.7,0.7-0.6,1.3c0.2,1.3,0.6,2.5,1.1,3.7c0.5,1.1,0.9,2.4,1.1,3.6
		c0.4,2.1-0.2,3.2-1.6,3.5c-1.4,0.2-2.3-0.6-2.6-2.6c-0.1-0.3-0.1-0.9-0.2-1.8c-0.1-0.9-0.2-1.5-0.3-2c-0.3-1.6-0.9-3.1-2-4.5
		c-1-1.4-1.7-3.2-2.1-5.3c-0.5-2.7-0.3-5,0.5-6.9c0.8-1.9,2.2-3.1,4.4-3.5c0.4-0.1,0.9-0.1,1.5-0.2c0.5,0,0.9-0.1,1.1-0.1
		c0.4-0.1,1.4-0.4,2.8-1c1.4-0.6,2.5-0.9,3.2-1.1c0.6-0.1,1.4-0.1,2.4,0.2c0.9,0.2,1.9,0.5,2.8,0.7c0.9,0.2,1.9,0.5,2.8,0.7
		c0.9,0.2,1.7,0.3,2.4,0.2c2.3-0.4,3.7-0.5,4.4-0.2c0.7,0.3,1.1,1.2,1.4,2.7c0.2,1.3,0.3,2.9,0.2,4.8c-0.1,1.9-0.1,3.5,0.1,4.7
		c0.1,0.5,0.3,1.3,0.6,2.2c0.3,0.9,0.7,1.8,1,2.8s0.7,2,1,3c0.3,1,0.6,1.8,0.7,2.5c0.3,1.8,0.5,4.2,0.7,7.2c0.1,2.9,0.4,5.3,0.7,7.2
		c0.1,0.8,0.6,1.9,1.4,3.5C423.5,150.3,424,151.7,424.2,152.9z"/>
</g>
<g class="st0">
	<path class="st1" d="M483.3,141.3c0.1,0.9,0,1.9-0.3,3.1c-0.3,1.2-0.4,2.2-0.3,3c0.1,0.4,0.2,1.1,0.5,2c0.2,0.9,0.4,2,0.6,3.2
		c0.3,1.9-0.4,2.9-2.1,3.1c-0.3,0.1-0.9,0-1.6,0c-0.7-0.1-1.5-0.1-2.4-0.2s-1.7-0.2-2.5-0.2c-0.8-0.1-1.5,0-1.9,0
		c-1,0.1-1.8,0.6-2.3,1.3s-0.8,1.6-0.6,2.6c0.4,1.4,0.9,2.4,1.5,3.2c0.6,0.8,1.1,2.2,1.4,4.4c0.1,0.6,0.1,1.1,0,1.4
		c-0.1,0.3-0.6,0.5-1.3,0.6c-0.6,0.1-1.3-0.4-2.1-1.6c-0.7-1.2-1.5-2.5-2.2-3.9s-1.5-2.8-2.3-3.9c-0.8-1.2-1.5-1.7-2.3-1.6
		c-1.2,0.2-2.1,0.9-2.7,2.1s-0.9,2.1-0.8,2.7c0.1,0.6,0.3,1.2,0.7,1.7s0.6,1,0.7,1.6c0.2,1.5,0.1,2.5-0.2,3
		c-0.4,0.5-0.9,0.8-1.5,0.9c-1.3,0.2-2.3-0.2-3.1-1.1s-1.4-2.1-2-3.3s-1.1-2.4-1.6-3.4s-1-1.4-1.7-1.3c-0.2,0-0.5,0.5-1,1.4
		c-0.4,0.9-1,1.4-1.8,1.5c-0.5,0.1-1.4-0.2-2.5-0.9s-2-1-2.5-0.9c-0.3,0.1-0.7,0.3-1.2,0.7s-0.9,0.6-1.2,0.7
		c-0.8,0.1-1.3-0.1-1.7-0.7s-0.6-1.2-0.9-2c-0.2-0.8-0.4-1.6-0.4-2.4c-0.1-0.8-0.2-1.4-0.3-1.7l-0.4-3.1c-0.1-0.4-0.1-1.1-0.2-2
		s-0.1-1.6-0.2-2.1l-0.5-3.6c-0.2-1.3-0.4-2.9-0.5-4.9c-0.2-2-0.3-4-0.5-6.2c-0.1-2.1-0.3-4.2-0.5-6.2c-0.2-2-0.3-3.6-0.5-4.9
		c-0.1-1-0.2-2.1-0.1-3.2c0.1-1.2,0.1-2.3,0.3-3.3c0.1-1,0.3-1.9,0.4-2.6s0.2-1.2,0.1-1.4c-0.2-1.5-1.1-2.2-2.8-1.9
		c-0.3,0.1-0.7,0.2-1.1,0.4c-0.4,0.2-0.8,0.4-1.1,0.4c-0.6,0.1-1.1-0.2-1.4-0.8c-0.3-0.6-0.4-1.2-0.5-1.8c-0.1-0.4-0.1-0.9-0.1-1.3
		c0-0.4,0.1-1.1,0.3-1.9c0.7-1.9,1.1-3.9,1-6.2c0-2.2-0.2-4.2-0.5-6.1c-0.4-2.8-0.4-5.4,0-7.6s0.5-4.4,0.2-6.4
		c0-0.3-0.2-0.8-0.4-1.3s-0.5-1.2-0.9-2c-0.3-0.7-0.6-1.5-0.9-2.3c-0.3-0.8-0.5-1.5-0.5-2c-0.1-0.9-0.2-1.9-0.2-3
		c0-1.1-0.1-2-0.2-2.8c-0.1-0.7-0.4-1.5-0.8-2.6c-0.4-1.1-0.7-2.1-0.8-3c-0.1-0.4,0-0.9,0-1.5s0.1-1.1,0-1.5c-0.1-0.5-0.5-1.2-1.1-2
		c-0.7-0.8-1-1.5-1.1-2.2c-0.2-1.3,0.2-2.3,1.3-3.1s2.5-1.3,4.4-1.5c0.3,0,0.8-0.1,1.5-0.1s1.3-0.1,1.8-0.2c1.5-0.2,2.6-0.6,3.2-1.2
		c0.6-0.6,1.5-1,2.7-1.1c0.8-0.1,1.6,0,2.4,0.4c0.8,0.4,1.5,0.5,2.1,0.5s1-0.3,1.3-0.7c0.3-0.4,0.9-0.6,1.8-0.8
		c1.2-0.2,2.5,0.1,4,0.8c1.5,0.7,2.8,0.9,4,0.8c0.9-0.1,1.7-0.5,2.4-1.3c0.7-0.7,1.7-1.2,2.9-1.3c0.9-0.1,1.5-0.1,2,0.1
		c0.5,0.2,1,0.3,1.5,0.2c0.5-0.1,1.1-0.3,1.5-0.8s1.3-0.8,2.5-0.9c0.5-0.1,1.1,0.5,1.6,1.6c0.5,1.1,1,3.2,1.5,6.3
		c0.1,1.1,0.5,2.7,1,4.8c0.5,2.2,1.1,4.5,1.8,6.9s1.3,4.9,1.9,7.3c0.6,2.4,1,4.3,1.1,5.8c0.3,2.1-0.6,3.3-2.8,3.6
		c-1.5,0.2-2.4-0.5-2.6-2.1c0-0.3-0.1-0.8-0.1-1.5s-0.1-1.3-0.2-2c-0.1-0.7-0.1-1.2-0.2-1.8c0-0.6,0-0.9-0.1-1
		c-0.4-2.8-0.9-5.3-1.4-7.4c-0.5-2.1-1-3.1-1.6-3c-0.8,0.1-1.1,0.7-1.1,1.9c0,1.2,0.1,2.4,0.3,3.7c0.1,1.3,0.2,2.6,0.1,3.7
		c-0.1,1.2-0.5,1.8-1.2,1.9c-1,0.1-1.6-0.2-2-1.1c-0.7-1.8-1.2-3.1-1.5-3.9c-0.3-0.8-0.6-1.4-0.9-1.8c-1.2-0.6-2.3-1.1-3.4-1.6
		c-1.1-0.5-2.1-0.6-3.1-0.5c-0.9,0.1-1.5,0.4-2,1s-0.9,1-1.2,1.6s-0.6,1.1-0.9,1.5c-0.3,0.5-0.6,0.8-1,0.8c-0.5,0.1-1,0.1-1.2,0
		s-0.6-0.1-0.9,0c-1.9,0.3-2.9,1.3-3.2,3c-0.3,1.8-0.3,3.9,0.1,6.4c0.3,2.4,1,4.5,1.9,6.3s1.9,3.3,3,4.5c1.1,1.2,2.2,2,3.3,2.5
		s1.9,0.7,2.6,0.6c0.1,0,0.5-0.1,1-0.3c0.6-0.2,1.2-0.4,1.9-0.7c0.7-0.3,1.3-0.5,1.9-0.7c0.6-0.2,1-0.3,1.2-0.3
		c1.2-0.4,2.5-0.7,3.9-1s2.4-0.4,2.9-0.5c0.9-0.1,1.6,0.2,2.2,0.8c0.6,0.7,1,1.6,1.1,2.8c0.1,0.6,0,1.4-0.4,2.7
		c-0.3,1.3-0.4,2.3-0.3,3.2c0.1,0.9,0.4,2,1,3.3c0.5,1.3,1.1,2.7,1.6,4c0.6,1.4,1.1,2.7,1.6,3.8c0.5,1.2,0.8,2.1,0.9,2.8
		c0.2,1.5,0,3.1-0.7,4.8s-1.4,2.6-2.2,2.7c-0.9,0.1-1.5-0.3-1.8-1.2c-0.4-0.9-0.7-1.9-1-3c-0.3-1.1-0.7-2.1-1.2-3
		c-0.5-0.9-1.2-1.2-2.2-1.1c-0.9,0.1-1.4,0.5-1.5,1.2s-0.1,1.4,0,2.1s0.1,1.4,0,2.1c-0.1,0.7-0.4,1.1-1.1,1.2
		c-0.5,0.1-1-0.1-1.4-0.6c-0.4-0.5-0.8-1.1-1.2-1.7c-0.4-0.7-0.8-1.2-1.2-1.7c-0.4-0.5-0.8-0.7-1.3-0.7c-0.5,0.1-1.1,0.1-1.8-0.1
		c-0.6-0.1-1.2-0.2-1.8-0.1c-1.4,0.2-2,0.8-1.9,1.9c0.1,0.7,0.4,1.6,1,2.9c0.6,1.2,1.1,3.7,1.6,7.4c0.2,1.2,0,2.8-0.5,4.7
		c-0.5,2-0.7,3.4-0.6,4.2c0.2,1.3,1,2.6,2.6,3.7c1.5,1.2,4.1,1.5,7.6,1c0.5-0.1,1.1-0.2,1.7-0.3c0.6-0.1,1.3-0.3,2-0.4
		c1.2-0.2,2.7-0.2,4.5,0s3.2,0.2,4.3,0.1c0.3-0.1,0.7-0.1,1-0.2s0.8-0.2,1.2-0.2c1.2-0.2,2.4,0.2,3.7,1.1
		C482.4,139.1,483.1,140.1,483.3,141.3z"/>
</g>
<g class="st0">
	<path class="st1" d="M537.3,36c2.5-0.2,4.6-0.6,6.2-1.2c1.6-0.6,3.1-0.9,4.4-1c4.9-0.4,9,0.6,12.1,3.1c3.1,2.5,5.4,5.6,6.8,9.4
		c1.3,3.9,2.6,6.7,3.9,8.6c2.2,3.2,3.7,6.1,4.7,8.5c1,2.5,1.5,4.1,1.6,5c0.2,2.5-0.3,4.5-1.6,5.8s-2.2,2.3-2.8,2.8
		c-1.1,1-1.9,2-2.3,3.2c-0.4,1.1-0.7,2.4-0.8,3.7c-0.1,1.3-0.2,2.7-0.4,4.1c-0.2,1.4-0.5,2.8-1,4.2c-0.5,1.1-1.1,2.2-2,3.2
		c-0.8,1-1.7,2.1-2.5,3.1s-1.6,2.2-2.2,3.3c-0.6,1.2-0.9,2.4-0.8,3.9c0,0.6,0,1.2-0.2,2c-0.2,0.8-0.7,1.2-1.5,1.3
		c-0.5,0.1-0.9-0.2-1.2-0.9c-0.2-0.6-0.8-1.7-1.8-3.2c-0.4-0.5-1.1-0.9-2.2-1.1s-2.2-0.4-3.5-0.4c-1.3-0.1-2.5-0.1-3.7,0
		c-1.2,0.1-2.1,0.1-2.8,0.2c-2.6,0.2-3.9,1.3-3.7,3.3c0.1,0.7,0.3,1.6,0.7,2.9c0.4,1.3,0.6,2.3,0.7,3.1c0.1,0.9,0.1,1.9,0,3.2
		c-0.1,1.3-0.1,2.5-0.3,3.8c-0.1,1.2-0.2,2.4-0.3,3.5s-0.1,2,0,2.7c0,0.6,0.3,1.3,0.8,2.2c0.5,0.9,1,1.8,1.6,2.8
		c0.6,0.9,1.1,1.9,1.6,2.8c0.5,0.9,0.8,1.7,0.9,2.3c0.1,1.3-0.2,2.5-1,3.6c-0.8,1.1-1.2,2-1.1,2.9c0.1,1,0.4,1.9,0.9,2.6
		c0.5,0.7,0.8,1.4,0.8,2.1c0.1,0.9-0.1,1.6-0.5,2.3s-0.9,1.3-1.4,2c-0.5,0.7-1,1.4-1.4,2.1c-0.4,0.7-0.6,1.5-0.5,2.4
		c0.2,1.9,0.4,3.5,0.8,4.8c0.4,1.4,0.6,2.7,0.8,4c0.1,0.7-0.3,1.1-1,1.5c-0.7,0.3-1.2,0.5-1.7,0.6c-0.9,0.1-1.7-0.1-2.5-0.6
		c-0.8-0.5-1.3-1.2-1.3-2c-0.2-1.9,0.1-3.7,0.8-5.4c0.7-1.8,0.9-3.7,0.8-5.8c-0.1-1.2-0.6-1.9-1.5-2.2c-0.9-0.2-1.8-0.3-2.7-0.3
		c-1.3,0.1-2.2,0.5-2.6,1.3c-0.4,0.8-0.7,1.6-0.8,2.4c-0.1,0.8-0.2,1.6-0.2,2.2c0,0.7-0.4,1-1.1,1.1c-0.7,0.1-1.2-0.3-1.6-1.2
		s-0.8-1.8-1.1-3c-0.3-1.1-0.5-2.2-0.7-3.3s-0.2-1.9-0.3-2.5c-0.2-1.8-0.2-3.1,0-4.1c0.1-0.9,0.1-2.3,0-4.1
		c-0.1-0.7-0.3-1.5-0.7-2.4c-0.4-1-0.9-2-1.4-3.1c-0.5-1.1-1-2.2-1.5-3.4c-0.4-1.1-0.7-2.2-0.8-3.2c0-0.6-0.1-1,0-1.5
		c0-0.4,0.2-1,0.4-1.7c0.9-2.5,1.3-5.2,1.4-8c0-2.8-0.1-5.7-0.3-8.5l-0.4-5.1c-0.1-1.2-0.8-2.8-2-4.6c-1.2-1.9-1.9-3.9-2.1-6.1
		c0-0.1,0.1-0.6,0.2-1.5c0.1-0.9,0.3-1.9,0.5-3c0.2-1.1,0.3-2.2,0.5-3.3c0.1-1.1,0.2-2,0.1-2.7c0-2.2,0-4.5,0-6.8
		c0-2.3-0.1-4.4-0.3-6.3c0-0.6-0.3-1.3-0.8-2.4c-0.5-1.1-1-2.2-1.6-3.3c-0.6-1.2-1.1-2.4-1.6-3.6s-0.8-2.3-0.8-3.2
		c-0.1-1.2,0.2-2.6,0.9-4c0.7-1.5,1-3,0.8-4.5c0-0.5-0.4-1.3-1-2.4c-0.6-1-1-2-1.1-2.7c-0.2-1.9,0.5-3.4,1.9-4.7
		c1.4-1.3,3.2-2,5.4-2.2c2.4-0.2,4.9,0,7.5,0.5C531.2,36.1,534.1,36.3,537.3,36z M552.2,71.3c-0.3-3.5-0.7-5.7-1.1-6.7
		c-0.4-1-1.1-1.4-1.9-1.3c-0.7,0.1-1.2,0.4-1.5,1c-0.3,0.6-0.6,1.3-0.9,2.1s-0.5,1.4-0.8,2.1s-0.7,1-1.2,1c-0.4,0-0.9-0.2-1.3-0.8
		c-0.4-0.6-0.7-1.1-0.7-1.7c-0.1-1.5-0.1-3.3,0.1-5.4c0.2-2.1,0.3-3.7,0.2-4.9c-0.1-1.5-0.8-2.4-2-2.7c-1.2-0.3-2.6-0.4-4.2-0.2
		c-2,0.2-3.1,0.6-3.5,1.3c-0.3,0.7-0.4,1.6-0.3,2.7c0.2,2,0.6,3.4,1.3,4.3c0.7,0.9,1.4,1.6,2.2,2c0.8,0.5,1.5,0.9,2.2,1.1
		s1,0.8,1,1.6c0.1,0.9-0.3,1.8-1.2,2.8c-0.9,1-1.2,1.9-1.2,2.8c0.1,0.7,0.2,1.2,0.6,1.8c0.3,0.5,0.5,1.1,0.5,1.6
		c0.1,0.9-0.2,2.1-0.9,3.6s-1,2.6-1,3.4c0,0.2,0.1,0.6,0.3,1.2c0.2,0.6,0.5,1.2,1,1.7c0.5,0.5,1.2,0.9,2,1.3c0.9,0.4,2,0.5,3.6,0.4
		c1.3-0.1,2.6-0.7,3.7-1.7s2.2-2.3,2.9-3.8s1.3-3.2,1.7-5C552.2,74.7,552.4,73,552.2,71.3z"/>
</g>
<g class="st0">
	<path class="st1" d="M588.9,29.6c1,0.2,2.3,0.5,4,1.2s3.3,0.9,4.9,0.8c2.3-0.1,4.1-0.6,5.4-1.4c1.3-0.8,2.6-1.2,4.1-1.3
		c1.5-0.1,2.5,0.4,2.7,1.3c0.3,1,0.8,2.7,1.6,5.2l1.8,5.4c0.3,1.1,0.6,2.2,0.9,3.3s0.5,2.2,0.7,3c0,0.8,0,1.8-0.1,3.2
		s-0.2,2.4-0.1,3.3c0.3,4.3,0.8,8.3,1.7,12c0,0.2,0.3,1.2,1,3.1c0.7,1.8,1.4,4.1,2.2,6.9s1.6,5.7,2.3,8.8c0.7,3.1,1.2,6,1.3,8.6
		c0.1,2.3,0.5,4.3,0.9,5.9s1,3.1,1.5,4.5c0.5,1.3,1,2.7,1.5,4.1c0.5,1.3,0.8,2.8,0.8,4.5c0.1,1.2,0.3,3,0.7,5.3
		c0.4,2.3,1.2,5.1,2.4,8.5c1,3,1.8,5.5,2.4,7.3c0.7,1.8,1.1,3.4,1.4,4.7s0.5,2.4,0.7,3.4c0.2,0.9,0.3,2,0.4,3.2c0.3,4.5-1,6.9-3.7,7
		c-1.8,0.1-2.7-0.8-2.8-2.6c0-0.6,0-1.2,0.1-1.8c0.1-0.7,0.1-1.3,0.1-1.8c-0.1-1.3-0.6-1.9-1.6-1.9c-0.7,0-1.1,0.4-1.3,1.2
		c-0.2,0.8-0.4,1.6-0.4,2.5s-0.2,1.7-0.3,2.5c-0.1,0.8-0.5,1.2-1.2,1.2c-0.5,0-1-0.3-1.4-1.1s-0.7-1.6-1-2.5
		c-0.3-0.9-0.6-1.8-0.9-2.5s-0.7-1.1-1.1-1.1c-0.7,0.3-0.9,1.3-0.8,3c0,0.6,0.2,1.4,0.4,2.5c0.2,1.1,0.4,2.1,0.4,3
		c0.1,1.1-0.1,1.9-0.4,2.4c-0.4,0.5-0.8,0.8-1.4,0.8c-0.8,0.1-1.4-0.4-1.9-1.4c-0.5-1-0.9-2.2-1.1-3.6c-0.2-1.4-0.5-2.9-0.6-4.6
		c-0.2-1.6-0.3-3.2-0.4-4.6c-0.2-1.9-0.7-3.9-1.4-6c-0.7-2.2-1.2-4.5-1.3-7c-0.2-2.6-0.5-4.8-1.1-6.6c-0.6-1.7-1.5-2.6-2.7-2.5
		c-0.5,0-1,0.4-1.2,1.2c-0.3,0.8-0.5,1.7-0.7,2.6c-0.2,0.9-0.4,1.8-0.8,2.6c-0.3,0.8-0.8,1.2-1.5,1.2c-0.5,0-1.2-0.2-1.8-0.8
		c-0.6-0.6-1.3-1.2-1.9-1.9c-0.7-0.7-1.2-1.4-1.8-2s-1-0.8-1.3-0.8c-0.8,0.1-1.1,0.7-1,2.1c0.1,1.2,0.3,2,0.6,2.4
		c0.3,0.4,0.6,1.2,0.6,2.4c0,0.7-0.5,1.3-1.5,1.9c-1.1,0.6-1.6,1.5-1.5,2.6c0,0.7,0.3,1.5,0.7,2.4c0.4,1,0.7,1.9,0.8,2.9
		c0.1,1.4-0.2,2.3-0.8,2.7s-1.3,0.7-2.1,1.1c-0.8,0.4-1.4,1-2,1.9s-0.8,2.6-0.7,5.2c0.1,1.3,0.1,2.5,0,3.6c-0.1,1.1-0.8,1.7-2,1.8
		c-1.1,0.1-1.8-0.3-2.2-1.2c-0.4-0.9-0.7-1.8-0.9-2.8c-0.2-1-0.5-2-0.8-2.9c-0.3-0.9-0.8-1.3-1.6-1.2c-0.3,0-0.7,0.3-1,0.7
		c-0.4,0.5-0.7,0.9-1,1.5c-0.3,0.5-0.6,1-1,1.5c-0.4,0.5-0.7,0.7-1,0.7c-1.2,0.1-1.8-0.6-1.9-1.9c0-0.8,0-1.4,0-2
		c0.1-0.6,0.2-1.2,0.3-2.1c0.1-0.8,0.2-1.9,0.2-3.1s0-2.8-0.1-4.8c-0.1-2.1-0.2-4.2-0.4-6.4c-0.1-2.2-0.1-4.1,0.2-5.6l1-7.3
		l2.7-15.2c0.3-1.7,0.5-3,0.4-4c0-0.6-0.2-0.9-0.5-1.2s-0.5-0.8-0.5-1.5c0-0.9,0-1.9,0.2-3.2c0.2-1.2,0.5-2.6,1-4.2
		c0.3-1.7,0.6-3.2,0.7-4.5c0.1-1.3,0.2-2.9,0.3-4.6c0.1-1.7,0.2-3.8,0.4-6.4s0.5-6,1-10.3c0.3-2.8,0.4-6,0.5-9.6
		c0.1-3.7,0.2-7.1,0.4-10.5s0.6-6.1,1.2-8.4C586.5,30.9,587.5,29.6,588.9,29.6z M599,81.3c-0.5,0-1,0.5-1.2,1.3s-0.5,1.8-0.7,3
		c-0.2,1.2-0.3,2.4-0.3,3.8c0,1.3,0,2.5,0,3.5c0.1,1.2,0.3,2.1,0.7,2.7c0.4,0.6,0.6,1.2,0.8,1.7c0,0.3-0.2,0.8-0.5,1.4
		c-0.3,0.6-0.5,1.6-0.4,2.8c0.1,1.3,1.8,1.9,5.2,1.7c1.9-0.1,3.2-0.4,3.8-0.9c0.7-0.5,1-1,1-1.6c0-0.6-0.2-1.3-0.5-2.1
		c-0.3-0.9-0.5-1.9-0.5-3.1c-0.2-2.8-0.3-4.9-0.5-6.6c-0.2-1.7-0.3-2.9-0.5-3.7c-0.2-0.8-0.4-1.3-0.6-1.5c-0.2-0.2-0.3-0.3-0.4-0.3
		c-0.4,0-0.7,0.3-0.8,1s-0.2,1.3-0.2,2c-0.1,0.7-0.2,1.4-0.4,2s-0.5,0.9-1.1,1c-0.5,0-0.9-0.4-1.2-1.2c-0.2-0.8-0.3-1.7-0.4-2.8
		c-0.1-1-0.2-2-0.3-2.8C599.7,81.7,599.4,81.3,599,81.3z"/>
</g>
<g class="st0">
	<path class="st1" d="M662.1,71c-0.2,0-0.5,0-0.8-0.1c-0.3,0-0.6-0.1-0.8-0.1c-0.5,0-1.2,0.2-1.9,0.6c-0.7,0.3-1,1.1-1,2.3
		c0,1.4,0.3,2.8,0.8,4.3s0.8,2.9,0.8,4.4c0.1,4,0.1,6.8-0.2,8.7c-0.3,1.8-0.4,3-0.4,3.6c0,0.7,0.2,1.6,0.5,2.7
		c0.3,1.1,0.6,2.4,1,3.7s0.6,2.7,1,4c0.3,1.4,0.5,2.6,0.5,3.7c0,1.3-0.2,3-0.6,5.1c-0.4,2.1-0.6,4.3-0.5,6.5c0,0.9,0.1,1.9,0.2,3.2
		s0.2,2.2,0.2,2.7c0,1.4,0,3-0.3,4.5c-0.2,1.6-0.3,2.8-0.3,3.7c0,0.3,0.1,0.8,0.4,1.3s0.5,1.1,0.8,1.6c0.3,0.5,0.6,1.1,0.8,1.5
		c0.2,0.5,0.4,0.8,0.4,1.1c0,1-0.3,1.6-1.1,1.9c-0.8,0.2-1.6,0.4-2.5,0.5c-0.9,0.1-1.7,0.2-2.5,0.3c-0.8,0.1-1.1,0.6-1.1,1.4
		c0,0.4,0.1,1.1,0.2,2c0.1,0.9,0.3,1.8,0.4,2.8c0.1,1,0.3,1.9,0.4,2.7c0.1,0.8,0.2,1.4,0.2,1.7c0,0.4,0,1-0.1,1.6
		c-0.1,0.7-0.3,1.3-0.5,2s-0.6,1.2-0.9,1.7c-0.4,0.4-0.9,0.7-1.5,0.7c-0.8,0-1.2-1.4-1.3-4.2c0-0.9,0-2.2,0-4c0-1.8,0-3.1,0-4
		c-0.1-2.6-0.5-3.9-1.1-3.9s-1.1,0.5-1.4,1.4s-0.5,1.9-0.7,3s-0.5,2.1-0.7,3c-0.2,0.9-0.7,1.3-1.4,1.4c-1.1,0-1.7-0.6-1.7-1.9
		c0-1.3,0-2.6,0-3.7s0.1-1.9,0.1-2.1c0-0.6-0.2-1.1-0.6-1.6c-0.4-0.5-1.1-1.3-2.2-2.5c-1.5-1.8-2.4-3.3-2.8-4.4s-0.6-2.4-0.6-3.7
		c0-0.2,0.2-1.7,0.8-4.4c0.5-2.7,0.7-5.7,0.6-8.8c-0.1-3.5,0.1-6.4,0.5-8.7c0.5-2.3,0.7-4,0.7-5.2c0-0.8-0.2-1.4-0.6-2
		s-0.8-1.1-1.2-1.7c-0.4-0.6-0.8-1.3-1.2-2s-0.6-1.7-0.7-2.9c0-1.3,0.1-2.6,0.5-3.9s0.8-2.6,1.3-3.9c0.5-1.3,0.9-2.7,1.3-4
		c0.4-1.3,0.6-2.8,0.5-4.3c-0.1-4.1-0.4-7.4-0.8-9.9c-0.4-2.5-0.6-4.1-0.7-4.6c0-0.3,0-0.8,0.1-1.5c0.1-0.7,0.2-1.4,0.2-2.2
		c0-0.8,0.1-1.5,0.2-2.2c0.1-0.7,0.1-1.3,0.1-1.7c-0.2-0.5-0.4-1.2-0.6-2c-0.1-0.8-0.8-2.1-2.1-3.8c-0.8-1.1-1.3-1.7-1.5-1.9
		s-0.3-0.9-0.3-2c0-1.2,0.3-2.8,1.1-4.7s1.1-3.5,1.1-4.7c-0.3-1.5-0.6-2.8-0.9-3.9c-0.3-1.1-0.5-2.1-0.5-3.1
		c-0.1-2.3,1.1-3.5,3.5-3.6c0.7,0,1.7,0.2,3.2,0.6c1.4,0.5,2.7,0.6,3.7,0.6c0.9,0,1.7-0.2,2.5-0.7s1.6-0.6,2.5-0.7
		c0.8,0,1.7,0.1,2.7,0.4s2,0.7,2.8,1.3c0.9,0.6,1.7,1.4,2.3,2.3s1,2.1,1,3.4c0.1,2-0.3,4-1.1,5.9c-0.8,2-1.2,3.9-1.1,5.7
		c0,1.2,0.3,2.8,0.7,4.8c0.4,2,0.8,4,1.4,6.1c0.5,2.1,1,4.1,1.4,6.1c0.4,2,0.6,3.6,0.7,4.8C662.9,70.3,662.7,71,662.1,71z"/>
</g>
<g class="st0">
	<path class="st1" d="M717.3,122.4c2.1,0,3.5,0.4,4.2,1.2c0.7,0.8,1.1,1.7,1.1,2.7c0,0.9-0.3,1.9-1,3.1c-0.7,1.2-1,1.9-1,2.2
		c0,0.7,0.2,1.5,0.7,2.6c0.5,1,0.7,1.8,0.7,2.4c0,1.2-0.9,2.3-2.8,3.2c-1.9,0.8-3.2,1.7-3.9,2.7s-1.1,1.7-1.1,2.2
		c0,0.9,0.2,1.8,0.7,2.9c0.5,1,0.7,2.3,0.7,3.7c0,0.9-0.2,1.5-0.7,2c-0.5,0.4-1,0.7-1.6,0.7s-1-0.1-1.4-0.4
		c-0.4-0.3-0.6-0.8-0.6-1.6c0-0.6,0-1.2,0.1-2.1c0.1-0.8,0.1-1.7,0.1-2.6c0-1.3-0.3-2.7-0.7-4c-0.5-1.4-1.5-2-3-2
		c-0.7,0-1,0.6-1.1,1.8c-0.1,1.2-0.2,2.4-0.2,3.9c0,1.4-0.1,2.7-0.2,3.9c-0.1,1.2-0.4,1.7-1,1.8c-0.9,0-1.4-0.5-1.6-1.5
		c-0.2-1-0.4-2.1-0.5-3.3c-0.2-1.2-0.5-2.3-1-3.3c-0.5-1-1.5-1.5-3.1-1.4c-0.5,0-1.2,0.2-1.8,0.7c-0.7,0.4-1.2,0.7-1.6,0.7
		c-0.9,0-1.9-0.4-3.1-1.1c-1.2-0.8-2.1-1.1-2.7-1.1c-2,0-3.7,0.4-5.1,1.1c-1.4,0.7-2.1,2-2.1,3.9c0,0.3,0.1,0.9,0.2,1.8
		s0.2,1.5,0.2,1.8c0,1.2-0.5,1.8-1.6,1.8c-1,0-1.6-0.8-1.9-2.4c-0.3-1.6-0.6-3.3-0.8-5.2c-0.1-0.6-0.6-1.3-1.5-2.2
		c-0.9-0.9-1.5-1.8-1.7-2.7c-0.2-0.9-0.4-2-0.6-3.5c-0.2-1.4-0.3-2.7-0.3-3.8l-0.2-11.1c0-3.2-0.4-6.2-1.1-9.1
		c-0.7-2.9-1.1-5.6-1.1-8c0-1,0.1-2.1,0.5-3.3c0.3-1.2,0.7-2.4,1.1-3.6c0.4-1.2,0.8-2.3,1.2-3.4c0.4-1.1,0.5-2.1,0.5-3
		c0.1-0.9,0.1-1.7,0.1-2.4s0-1.5,0-2.2c0-1.7-0.1-3.2-0.2-4.8s-0.1-2.9-0.1-4.1c0-0.9,0.1-1.9,0.4-3s0.5-2.3,0.8-3.5
		c0.3-1.2,0.5-2.4,0.8-3.6c0.3-1.2,0.4-2.2,0.4-3.2c0-1.7-0.3-3.1-0.7-4.3c-0.5-1.2-0.9-2.3-1.5-3.4s-1-2-1.4-3c-0.4-1-0.6-2-0.6-3
		c0-0.5,0.2-2.1,0.8-4.6c0.5-2.5,0.8-5.2,0.7-8.1c0-0.9-0.3-2.1-1-3.7c-0.6-1.6-0.9-2.7-1-3.4c0-3.5,1.5-5.3,4.7-5.3
		c1.3,0,3,0.5,4.9,1.5c1.9,1,4,1.5,6.2,1.5c1.9,0,3.5,0.3,5,0.9c1.4,0.6,2.2,2.1,2.2,4.3c0,0.5-0.2,1.5-0.6,2.7s-0.6,2.3-0.6,3.1
		c0,1,0.2,2.2,0.5,3.8s0.5,2.8,0.5,3.8c0,0.8-0.2,1.8-0.8,3s-0.8,2.3-0.8,3.2c0,0.3,0.2,0.8,0.5,1.5c0.3,0.7,0.7,1.3,1.2,2
		s0.8,1.5,1.2,2.2c0.3,0.8,0.5,1.4,0.5,2c0,1.1-0.6,2.3-1.8,3.6s-1.8,2.5-1.8,3.7c0,0.7,0.2,1.7,0.5,3.1c0.3,1.4,0.5,2.2,0.5,2.5
		c0,1.2-0.3,2.3-1,3.4c-0.7,1.1-1,2.3-1,3.9c0,0.1,0.1,0.6,0.2,1.4s0.3,1.7,0.5,2.7s0.3,2,0.5,3c0.1,1,0.2,1.8,0.2,2.3
		c0,1.8-0.1,3.9-0.5,6.5s-0.5,4.8-0.5,6.5c0,1.9,0.2,3.3,0.6,4.4c0.4,1.1,0.6,2.1,0.6,3.1c0,0.9,0,1.6,0,2.1c0,0.6-0.1,1.4,0,2.5
		c0,2.4,0.7,4.3,2,5.8c1.3,1.4,3,2.1,5.2,2.1c0.9,0,2.1-0.2,3.8-0.7c1.6-0.5,3-0.7,4-0.7c0.7,0,1.2,0,1.6,0.1
		c0.4,0.1,0.8,0.1,1.4,0.1c0.9,0,1.7-0.1,2.6-0.1C715.9,122.4,716.6,122.4,717.3,122.4z"/>
</g>
<g class="st0">
	<path class="st1" d="M785,24.7c0.8,0,1.9,0.3,3.4,0.8s3,1,4.7,1.7c1.7,0.6,3.4,1.4,5.1,2.1c1.7,0.8,3.3,1.4,4.7,2
		c1.5,0.6,3,1.7,4.4,3.3s2.7,3.5,3.8,5.7c1.1,2.2,2,4.5,2.6,6.8c0.6,2.4,0.9,4.6,0.9,6.7c0,1.2-0.2,2.9-0.6,5.1s-0.6,3.9-0.7,5.3
		c0,1.9,0,3.2,0.3,3.9c0.2,0.7,0.4,1.5,0.3,2.4c0,0.8-0.2,1.5-0.6,2.1c-0.3,0.7-1,1-1.8,0.9c-0.3,0-0.7-0.2-1-0.7
		c-0.3-0.4-0.6-0.9-1-1.5c-0.3-0.6-0.6-1.1-0.9-1.5c-0.3-0.4-0.5-0.7-0.6-0.7c-0.3,0-0.7,0.2-1.2,0.5s-0.8,0.6-1,0.6
		c-0.4,0-1-0.4-1.5-1.3s-1-1.3-1.4-1.3c-1,0-1.6,0.4-1.8,1.3s-0.3,1.9-0.3,3c0,1.1-0.1,2.1-0.3,3c-0.2,0.9-0.8,1.4-1.8,1.3
		c-0.7,0-1.1-0.2-1.3-0.6c-0.2-0.4-0.4-0.9-0.5-1.4c-0.1-0.6-0.1-1.1-0.1-1.7c0-0.6-0.1-1.2-0.4-1.8c-0.6-1.2-1.3-2.3-2-3.2
		c-0.7-0.9-1-2.8-0.9-5.6c0-0.4,0-0.9,0.1-1.4s0.1-1.2,0.1-2.1c0.1-3.8,0.1-7-0.1-9.4c-0.2-2.4-0.8-3.7-1.8-3.7
		c-0.7,0-1.3,0.7-1.8,2c-0.5,1.4-0.8,3.1-0.9,5.2c0,1.1,0.1,2.5,0.5,4.1s0.5,3,0.5,4.2c0,0.9-0.2,1.7-0.5,2.3
		c-0.3,0.7-0.9,1-1.8,0.9c-0.7,0-1.2-0.4-1.5-1s-0.6-1.5-0.8-2.3c-0.2-0.9-0.3-1.7-0.3-2.6c0-0.8,0-1.4,0-1.7c0-0.9,0.1-1.8,0.2-2.8
		c0.1-1,0.2-1.9,0.2-2.8c0.1-2.2-0.5-3.3-1.7-3.3c-0.7,0-1.2,0.2-1.8,0.8c-0.5,0.5-0.8,1.1-0.8,1.8c0,1.2,0.4,2.5,1.2,3.8
		c0.8,1.3,1.2,2.3,1.2,3c0,0.9-0.3,1.6-0.7,2.1c-0.5,0.5-1,0.8-1.5,0.8s-1-0.1-1.4-0.4s-0.8-0.4-1.4-0.4c-0.5,0-0.9,0.2-1,0.8
		c-0.1,0.5-0.2,1-0.2,1.5c0,1.3,0,2.3,0.2,3c0.2,0.7,0.3,1.2,0.5,1.7s0.4,0.9,0.5,1.3c0.2,0.4,0.2,1,0.2,1.7c0,0.9-0.2,1.9-0.5,3
		s-0.6,2.2-0.9,3.3c-0.3,1.1-0.6,2.2-0.9,3.2c-0.3,1-0.5,1.9-0.5,2.7c0,0.9,0.2,1.8,0.6,2.7c0.4,0.9,1.2,2.3,2.4,3.9
		c1.2,1.8,1.7,3.8,1.6,6c-0.1,2.9,0,4.9,0.2,6.3c0.2,1.3,0.3,2.2,0.3,2.5c0,0.7-0.3,1.4-0.8,2.3s-1.5,1.6-2.8,2.1
		c-1,0.3-1.6,0.6-1.9,1s-0.4,0.8-0.5,1.2c0,0.6,0.3,1.2,1.1,2.1c0.7,0.8,1.1,1.7,1.1,2.6c0,0.7-0.4,1.3-1,1.9
		c-0.6,0.9-0.9,1.8-1,2.7s-0.1,1.9-0.2,2.9c0,1.5,0.3,2.6,1,3.2c0.7,0.6,1.5,0.9,2.4,1c0.3,0,0.9-0.1,1.8-0.3
		c0.9-0.2,1.6-0.3,2.2-0.3c0.5,0,1.2,0.3,1.9,0.7c0.7,0.5,1.3,0.7,1.9,0.7c1.5-0.1,2.8-0.9,3.8-2.4c1-1.6,1.8-3.4,2.4-5.6
		s1.1-4.4,1.3-6.7c0.3-2.2,0.5-4.1,0.5-5.7c0-1.2,0-2.1-0.1-2.7c-0.1-0.6-0.1-1.3-0.1-2.1c0-1.7,0.6-2.5,1.6-2.4
		c0.8,0,1.5,0.3,2.2,0.9s1.3,0.9,1.9,0.9c0.7,0,1.2-0.2,1.8-0.6c0.5-0.4,1-0.6,1.6-0.6c0.7,0,1.3,0.2,1.8,0.6c0.5,0.3,1.2,0.5,2,0.6
		c0.5,0,1.1-0.2,1.8-0.6s1.1-0.6,1.4-0.6c1.4,0.3,2.5,0.9,3.1,2c0.6,1.1,0.9,2.4,0.9,3.9c0,1.1-0.3,2.2-0.7,3.2
		c-0.4,1-0.8,2.1-1.2,3.1s-0.8,2.1-1.2,3.3s-0.7,2.4-0.7,3.7c0,0.9,0,1.8,0.1,2.8s0.1,2.2,0.1,3.5c-0.1,2.5-0.9,4.8-2.6,6.9
		c-1.7,2-4.3,4.7-8.1,8c-0.8,0.8-2,1.5-3.7,2.2c-1.7,0.7-3,1.7-3.9,2.9c-0.2,0.2-0.4,0.6-0.6,1.2s-0.4,1.2-0.5,1.9
		c-0.2,0.7-0.4,1.2-0.7,1.7c-0.3,0.5-0.6,0.7-0.9,0.7s-0.7-0.4-1.1-1s-0.9-1.4-1.3-2.3c-0.5-0.8-1-1.6-1.5-2.3c-0.5-0.7-1-1-1.5-1
		c-0.9,0-1.4,0.4-1.7,1.3c-0.2,0.9-0.5,1.8-0.7,2.8c-0.2,1-0.4,1.9-0.7,2.8s-1,1.3-2.1,1.3c-0.5,0-0.9-0.6-1-1.7
		c-0.1-1.1-0.3-2.3-0.4-3.6s-0.3-2.5-0.6-3.6s-0.9-1.7-1.9-1.7c-0.7,0-1,0.2-1.2,0.8c-0.1,0.6-0.2,1.2-0.3,1.9
		c-0.1,0.7-0.2,1.3-0.3,1.9c-0.1,0.5-0.5,0.8-1,0.8c-0.4,0-0.8-0.4-1-1.1s-0.5-1.6-0.8-2.5c-0.2-0.9-0.5-1.8-0.8-2.7
		c-0.3-0.8-0.7-1.4-1.3-1.6c-0.4-0.2-0.9-0.4-1.3-0.5c-0.4-0.1-0.8-0.4-1.1-0.7c-0.5-0.4-1-1.2-1.3-2.2c-0.4-1-0.7-2-1-3
		c-0.3-1-0.5-1.9-0.8-2.7s-0.4-1.2-0.6-1.2c-0.2,0-0.4,0.3-0.4,0.9c-0.1,0.6-0.4,0.9-0.9,0.9c-1,0-1.4-1.6-1.3-4.8
		c0-1.2,0.2-2.1,0.5-2.6c0.3-0.5,0.5-1.2,0.5-2.1c0-1-0.2-1.6-0.7-1.8c-0.5-0.2-0.7-0.7-0.7-1.6c0-0.9,0.2-1.8,0.6-2.7
		c0.4-0.9,0.5-1.6,0.5-1.9c0-1.3-0.1-2-0.4-2c-0.3,0-0.6,0.2-0.8,0.5c-0.2,0.3-0.4,0.5-0.8,0.5c-0.5,0-0.8-0.4-0.8-1.2
		c0-1,0.2-1.9,0.4-2.7c0.2-0.8,0.5-1.7,0.7-2.8s0.5-2.3,0.8-3.7c0.3-1.4,0.4-3.2,0.5-5.4c0.2-5.8,0.2-12.4,0.1-19.8
		s-0.1-15,0.2-22.9c0.3-11.7,3.7-18.8,10-21.5c2.7-1,4.8-2,6.5-2.9c1.7-0.9,3-1.6,4.1-2.3c1.1-0.6,1.9-1.1,2.5-1.5
		C783.8,24.9,784.4,24.7,785,24.7z"/>
</g>
<g class="st0">
	<path class="st1" d="M850.9,27.7c2.4,0.1,5,0.7,7.8,1.6c2.8,0.9,5.6,2.1,8.3,3.5c2.7,1.4,5.2,2.9,7.5,4.6s4,3.3,5.2,5
		c1.6,2.3,2.8,5,3.5,8.1c0.7,3.1,0.9,7.5,0.5,13.3c-0.2,4.2-0.6,7.9-1.1,11.3c-0.5,3.3-1,6.4-1.5,9.2c-0.6,2.8-1.1,5.6-1.5,8.2
		c-0.4,2.6-0.7,5.3-0.9,8l-0.4,6.1c-0.2,3.6-0.5,6.6-0.9,8.9s-0.8,4.2-1.2,5.7c-0.4,1.5-0.9,2.8-1.4,3.7c-0.5,1-0.9,1.9-1.3,2.9
		c-0.4,1-0.7,2.1-1,3.3c-0.3,1.2-0.5,2.9-0.6,4.8c-0.4,5.9-1.1,10.5-2.1,13.8c-1,3.3-2.2,4.9-3.3,4.8c-0.5,0-1-0.4-1.3-1
		c-0.3-0.6-0.5-1.3-0.8-2.1c-0.2-0.8-0.5-1.5-0.8-2.1c-0.3-0.6-0.7-0.9-1.1-1c-1.1-0.1-1.8,0.7-2.1,2.3c-0.3,1.6-0.5,3.3-0.7,5.2
		c-0.1,1.9-0.4,3.6-0.7,5.2s-1.1,2.3-2.2,2.3c-0.5,0-1.1-0.3-1.6-0.9c-0.5-0.6-0.8-2.1-0.9-4.7c-0.1-2.5-0.1-4.4-0.2-5.6
		c-0.1-1.2-0.6-1.9-1.6-1.9c-0.9-0.1-1.5,0.3-2,1c-0.4,0.7-1,1-1.6,1c-0.7,0-1.3-0.6-2-1.8s-1.6-1.8-2.8-1.8c-0.9-0.1-1.5,0.4-2,1.4
		c-0.5,1-0.9,2-1.3,3.1c-0.4,1.1-0.8,2.1-1.2,3.1c-0.4,0.9-0.9,1.4-1.6,1.3c-1-0.2-1.7-0.6-2.1-1.2c-0.4-0.6-0.7-1.5-1-2.5
		c-0.3-1.1-0.5-2.4-0.8-3.9s-0.6-3.2-1.2-5.1c-0.5-2-1-3.6-1.5-4.9c-0.5-1.2-0.9-2.2-1.3-2.8s-0.8-1-1.1-1.2c-0.3-0.2-0.6-0.3-1-0.3
		c-1-0.1-1.7,0.3-2.1,1.2c-0.4,0.9-0.6,1.7-0.7,2.6c0,0.6,0,1,0,1.5c0,0.4,0,0.8,0,1c-0.1,1.2-0.8,1.8-2.1,1.7c-0.5,0-1-0.8-1.5-2.4
		s-0.9-3.5-1.2-5.8s-0.6-4.6-0.7-7.1c-0.1-2.4-0.1-4.5,0-6.3c0.1-1.4,0.3-3,0.7-4.8c0.4-1.8,0.8-3.6,1.3-5.4c0.5-1.8,0.9-3.4,1.3-5
		s0.6-2.8,0.6-3.8c0.1-1.1-0.1-2.4-0.5-3.8c-0.4-1.5-0.9-3-1.5-4.7s-1-3.4-1.4-5.2c-0.4-1.8-0.5-3.6-0.4-5.3c0.1-1,0.3-2.6,0.9-4.7
		s1.1-4.4,1.7-6.8c0.6-2.3,1.2-4.5,1.8-6.6c0.6-2.1,0.9-3.6,0.9-4.6c0.1-1.2,0-2.3-0.4-3.2c-0.3-0.9-0.4-2.3-0.3-4.2
		c0.1-1,0.3-2.1,0.6-3.3s0.7-2.4,1.1-3.6s0.8-2.2,1.1-3.1c0.3-0.9,0.6-1.5,0.7-1.9c0.8-2.5,2.3-4.7,4.5-6.5s4.5-3.4,7-4.5
		c2.4-1.2,4.7-2,6.8-2.6C848.8,27.9,850.2,27.7,850.9,27.7z M849.4,52.4c-1-0.1-1.7,0.5-2.3,1.8c-0.5,1.2-0.8,2.3-0.9,3.3
		c-0.1,2.3,0,4.5,0.3,6.5s0.4,3.9,0.3,5.8c-0.1,1.8-0.2,3.2-0.3,4.3c-0.1,1.1-0.3,2-0.4,2.7c-0.2,0.7-0.3,1.3-0.4,1.9
		c-0.1,0.6-0.2,1.1-0.2,1.6c0,0.9,0,2.1,0.1,3.6c0.1,1.6,0.3,3.2,0.5,4.8c0.2,1.7,0.4,3.2,0.5,4.7c0.1,1.4,0.2,2.5,0.1,3.2
		c-0.2,2.4-0.5,4.6-0.9,6.5c-0.5,1.9-0.9,3.7-1.5,5.4c-0.5,1.7-1,3.3-1.5,4.9s-0.7,3.2-0.8,4.8c-0.1,1,0.3,2.3,1.1,3.9
		c0.8,1.8,1.4,3.2,1.8,4.3c0.4,1.1,0.8,1.9,1.2,2.6s0.8,1,1.2,1.2s1.1,0.3,2,0.4c1.9,0.1,3.5-0.4,4.9-1.6c1.4-1.2,2.2-2.7,2.3-4.6
		c0-0.4,0-1.2-0.1-2.2s-0.1-1.8-0.1-2.3c0-0.3,0.1-1,0.2-1.9c0.1-0.9,0.2-2.1,0.3-3.5c0.1-1.4,0.2-3.3,0.2-5.7
		c0-2.4,0.1-4.2,0.2-5.4c0-0.8,0.1-1.4,0.1-2.1c0-0.6,0.1-1.2,0.3-1.7s0.3-1.2,0.5-1.9c0.2-0.7,0.5-1.6,0.9-2.7
		c0.8-1.9,1.2-3.9,1.3-5.9c0.2-3.3,0-6.6-0.5-9.9c-0.5-3.3-0.6-7.5-0.3-12.6c0.1-2.2,0.5-4.2,1.1-5.9s1-3.5,1.1-5.4
		c0.1-1.2-0.1-2.3-0.5-3.3s-1.3-1.6-2.6-1.7c-0.4,0-0.8,0.4-1.2,1.3c-0.4,0.9-0.8,1.9-1.2,3c-0.4,1.1-0.8,2.1-1.3,3
		s-0.9,1.3-1.3,1.3s-0.8-0.4-1-1c-0.2-0.7-0.5-1.4-0.8-2.2c-0.3-0.8-0.6-1.5-1-2.2C850.6,52.8,850,52.5,849.4,52.4z"/>
</g>
<g class="st0">
	<path class="st1" d="M950.5,37.6c1.2,0.1,2.3,0.6,3.3,1.5s2.5,1.4,4.3,1.6c2.2,0.2,4.1,0.2,5.6,0s2.8-0.3,3.8-0.2
		c0.3,0,0.8,0.1,1.4,0.2c0.6,0.1,1.2,0.4,1.8,0.8s1,0.9,1.4,1.6c0.4,0.7,0.5,1.7,0.4,2.9c-0.1,0.5-0.2,1.1-0.3,1.5
		c-0.2,0.5-0.3,1-0.5,1.6c-0.2,0.6-0.3,1.3-0.5,2.2c-0.2,0.9-0.4,2-0.5,3.4c-0.1,0.9,0,1.9,0.3,3.2s0.6,2.6,0.9,4.1s0.6,3,0.9,4.5
		c0.2,1.5,0.3,2.9,0.2,4.2c-0.1,1.2-0.5,2.2-1,3.1c-0.5,0.8-1.1,1.7-1.7,2.6c-0.6,0.9-1.2,1.9-1.7,3c-0.5,1.1-0.9,2.5-1.1,4.1
		c-0.3,3.2-0.6,5.6-1,7.1s-0.5,3-0.7,4.2c-0.1,1,0,2.2,0.1,3.6s0.4,2.8,0.7,4.3c0.3,1.5,0.5,2.9,0.7,4.4c0.2,1.5,0.2,2.7,0.1,3.8
		c-0.1,0.9-0.3,1.6-0.6,2.2s-0.7,1.1-1,1.6c-0.3,0.5-0.7,1.1-1,1.7c-0.3,0.6-0.5,1.4-0.6,2.3c-0.2,2.1-0.3,3.8-0.3,5.2
		c0,1.4,0.1,2.6,0.2,3.8c0.1,1.1,0.2,2.2,0.3,3.2s0,2.1-0.1,3.3c-0.1,1.2-0.7,2.3-1.6,3.4s-1.5,2.7-1.7,4.9
		c-0.1,0.9,0.2,1.7,0.8,2.4c0.6,0.7,0.8,2,0.6,3.9c-0.1,1.2-0.3,2.5-0.6,3.8s-0.7,2.6-1.3,3.7c-0.5,1.1-1.2,2-1.9,2.6
		c-0.7,0.6-1.6,0.9-2.7,0.8c-0.7-0.1-1.3-0.4-2-1s-1.3-1.3-1.9-2.1c-0.6-0.8-1.2-1.5-1.8-2.1c-0.6-0.6-1.1-0.9-1.6-1
		c-0.9-0.1-1.5,0.1-1.9,0.6c-0.4,0.5-0.6,1-0.7,1.5c0,0.6,0.1,1.1,0.2,1.8c0.1,0.6,0.1,1.9-0.1,3.9c-0.3,2.7-0.5,4.8-0.6,6.3
		c-0.2,1.5-0.3,2.6-0.6,3.3c-0.2,0.7-0.5,1.1-0.8,1.2s-0.7,0.2-1.3,0.1c-1-0.1-1.6-1-2-2.6s-0.4-3.2-0.3-4.8c0.2-1.5,0.5-3,0.9-4.4
		c0.5-1.4,0.7-2.4,0.8-3.1c0.1-1.1,0-2.1-0.4-2.9c-0.7-1.9-1.1-3.3-1.2-4c-0.1-0.7-0.1-1.8,0.1-3.1s0.6-2.8,1.3-4.3
		c0.8-1.6,1.2-3,1.3-4.2c0.2-2.3,0.3-4,0.2-5.1c-0.1-1.1-0.3-2-0.5-2.7c-0.2-0.7-0.4-1.3-0.6-1.8c-0.2-0.5-0.2-1.3-0.1-2.2
		c0.3-2.9,1-5.9,2-8.8c1-2.9,1.7-6.1,2.1-9.7c0.1-1.2,0.2-2.7,0.4-4.4s0.2-3.4,0.2-5c0-1.6-0.1-3-0.4-4.2c-0.3-1.2-0.7-1.8-1.2-1.9
		c-0.9-0.1-1.4,0.7-1.6,2.4c-0.2,1.7-0.5,4.2-1.1,7.6c-0.4,2.9-1,5.7-1.9,8.3c-0.9,2.6-1.8,5-2.7,7.4c-0.9,2.3-1.7,4.6-2.4,6.8
		c-0.7,2.2-1.2,4.3-1.4,6.4c-0.2,1.8-0.6,3.5-1.3,5.2c-0.7,1.7-1.4,3.3-2.2,4.9c-0.8,1.6-1.5,3.1-2.1,4.6c-0.7,1.5-1,2.9-1.2,4.2
		c-0.1,0.9,0,1.9,0.3,3.2c0.3,1.2,0.4,2.8,0.2,4.7c-0.1,1.2-0.5,2.4-1,3.6c-0.6,1.2-1.4,1.8-2.5,1.7c-1.1-0.1-1.6-0.9-1.4-2.5
		c0.1-1.2,0.3-2.4,0.6-3.4c0.3-1.1,0.4-1.9,0.5-2.4c0.3-3.1-0.5-4.7-2.3-4.9c-0.3,0-0.8,0.1-1.5,0.4c-0.6,0.3-1.2,0.5-1.8,0.4
		c-0.5-0.1-1-0.4-1.2-1c-0.3-0.6-0.4-1.4-0.5-2.4c-0.1-0.9-0.1-1.9-0.1-2.8c0-0.9,0-1.7,0.1-2.4c0.1-0.8,0.2-1.8,0.4-3
		c0.2-1.2,0.4-2.5,0.6-3.8c0.2-1.2,0.4-2.4,0.6-3.3s0.2-1.6,0.3-1.8c0.1-2.5-0.1-4.4-0.8-5.7s-1.5-2.4-2.4-3.3s-1.7-1.9-2.3-3
		c-0.7-1.1-0.9-2.6-0.7-4.7c0.1-1.3,0.3-2.8,0.6-4.5c0.3-1.7,0.6-3.3,0.9-5c0.3-1.6,0.6-3.1,0.9-4.3c0.3-1.2,0.5-2.1,0.5-2.7
		c0.1-1.2,0-2.1-0.2-2.7c-0.3-0.6-1-0.9-2.2-1.1c-0.9,0.2-1.7,0.6-2.3,1.1c-0.6,0.5-1.2,1.2-1.6,2.2c-0.5,0.9-0.8,2.3-1,4.1
		c0,0.4-0.1,1-0.1,1.8c0,0.8,0,1.6,0,2.4c0,0.8,0,1.6,0,2.3c0,0.7,0,1.2-0.1,1.6c-0.2,1.5-0.4,3.1-0.6,4.6c-0.3,1.5-0.5,3.2-0.7,5.1
		c-0.7,6.7-0.8,11.9-0.3,15.6s0.6,6.4,0.4,8.1c-0.2,1.9-0.6,3.3-1.3,4.3c-0.7,1-1.8,1.4-3.4,1.2c-0.3,0-0.7-0.1-1.1-0.3
		c-0.4-0.2-0.8-0.2-1-0.3c-1.5-0.1-2.4,1-2.7,3.5c-0.2,1.5-0.2,3.2-0.2,4.9c0,1.7,0,3.3-0.2,4.9c-0.3,2.8-0.9,5.3-1.9,7.4
		c-1,2.1-2,3-3.1,2.9c-0.3,0-0.5-0.6-0.6-1.6s0-2.3,0.2-4l0.3-2.8c0.1-1.1,0.3-2.5,0.6-4.1c0.3-1.6,0.5-2.9,0.5-3.8
		c0.3-2.7,0.4-4.4,0.3-5.1c-0.1-0.7-0.3-1-0.5-1c-0.2,0-0.7,0.3-1.5,0.8s-1.4,0.9-2,0.8c-1.2-0.1-1.7-0.9-1.6-2.5
		c0.3-3.4,1-6.6,2-9.6c1-3,1.7-5.8,1.9-8.3c0.4-3.7,0.3-7.2-0.1-10.4s-0.7-5.3-0.8-6.5c-0.6-2.2-0.7-4.3-0.5-6.3
		c0.1-1.3,0.5-2.9,1.1-4.9s0.9-3.6,1.1-4.9c0.1-0.7,0.1-1.6,0.1-2.9c0-1.3,0-2.7,0-4.2c0-1.5,0-3,0-4.6c0-1.5,0.1-2.8,0.2-3.8
		c0.1-0.8,0.3-2,0.8-3.6s0.9-3.3,1.3-5.2c0.5-1.8,0.9-3.7,1.4-5.7c0.5-1.9,0.8-3.7,0.9-5.2c0-0.4,0-1-0.1-1.8
		c-0.1-0.8-0.2-1.6-0.2-2.5s-0.2-1.8-0.2-2.7c-0.1-0.9-0.1-1.6,0-2.2c0.1-1.3,0.5-2.6,1.1-3.8c0.6-1.2,1-3,1.3-5.4
		c0.1-0.7-0.1-1.6-0.6-2.7c-0.4-1.2-0.6-2-0.6-2.5c0.2-2.3,1-3.7,2.2-4.1c1.3-0.4,2.7-0.6,4.2-0.4c0.7,0.1,1.8,0.2,3.5,0.3
		s3.3,0.5,5.1,0.9c1.8,0.5,3.5,1,5.1,1.8c1.6,0.7,2.8,1.7,3.6,2.8c0.9,1.3,1.7,3.2,2.4,5.8c0.7,2.6,1.4,5.4,1.9,8.4
		c0.5,3,0.9,6.1,1.1,9.3c0.2,3.2,0.2,6.1,0,8.7c-0.3,2.8-0.5,5.8-0.7,8.9c-0.2,3.1-0.3,5.9-0.3,8.3c0,2.5,0.2,4.6,0.5,6.2
		s0.8,2.5,1.4,2.5c1.3,0.1,2.3-0.5,2.8-1.9c0.6-1.4,1.1-4.3,1.5-8.7c0.3-2.8,0.3-4.6,0.2-5.4c-0.2-0.7-0.2-1.4-0.1-1.9
		c0.1-0.7,0.3-1.5,0.8-2.7s1.5-2.5,3.1-4.2c0.5-0.6,1-1.7,1.5-3.2s1-3.1,1.4-4.8s0.8-3.3,1.1-5c0.3-1.6,0.6-2.9,0.9-3.9
		c0.2-0.7,0.5-1.4,0.9-2.2c0.4-0.8,0.8-1.6,1.2-2.5c0.4-0.9,0.8-1.7,1.2-2.5c0.3-0.8,0.6-1.5,0.6-2.2c0.1-1,0-1.9-0.2-2.8
		c-0.2-0.8-0.3-1.7-0.2-2.4c0.1-1.2,0.7-2.3,1.8-3.2C947.7,37.8,949,37.4,950.5,37.6z"/>
</g>
<g class="st0">
	<path class="st1" d="M1011.6,47.8c2.5,0.4,4.6,0.4,6.3,0.2c1.7-0.2,3.2-0.2,4.5,0c4.9,0.7,8.6,2.6,11.1,5.8c2.5,3.1,4,6.7,4.6,10.7
		c0.4,4.1,1,7.2,1.8,9.3c1.4,3.6,2.2,6.8,2.7,9.4c0.4,2.6,0.5,4.4,0.4,5.2c-0.4,2.5-1.3,4.3-2.8,5.3c-1.5,1.1-2.7,1.8-3.4,2.1
		c-1.3,0.7-2.3,1.6-2.9,2.6c-0.7,1-1.2,2.2-1.6,3.4c-0.4,1.3-0.8,2.6-1.3,3.9c-0.5,1.3-1.1,2.6-2,3.8c-0.7,1-1.6,1.9-2.6,2.7
		c-1.1,0.8-2.1,1.6-3.2,2.5s-2,1.8-2.9,2.8c-0.9,1-1.4,2.2-1.6,3.6c-0.1,0.6-0.3,1.2-0.6,1.9c-0.3,0.7-0.9,1-1.8,0.9
		c-0.5-0.1-0.8-0.5-0.9-1.1s-0.4-1.8-1.1-3.5c-0.2-0.6-0.9-1.1-1.8-1.6c-1-0.5-2.1-0.9-3.3-1.2c-1.2-0.3-2.4-0.6-3.6-0.9
		s-2.1-0.4-2.8-0.5c-2.6-0.4-4.1,0.4-4.3,2.4c-0.1,0.7-0.1,1.7,0,3c0.1,1.3,0.1,2.4,0,3.2c-0.1,0.9-0.4,1.9-0.7,3.2
		s-0.7,2.4-1.1,3.6c-0.4,1.2-0.7,2.3-1.1,3.4s-0.5,1.9-0.6,2.6c-0.1,0.6,0,1.3,0.2,2.3s0.5,2,0.9,3.1c0.3,1.1,0.7,2.1,1,3.1
		c0.3,1,0.4,1.8,0.3,2.5c-0.2,1.3-0.8,2.4-1.8,3.2s-1.6,1.7-1.7,2.6c-0.1,1,0,1.9,0.3,2.7c0.3,0.8,0.4,1.6,0.3,2.2
		c-0.1,0.9-0.5,1.6-1,2.1c-0.6,0.5-1.2,1.1-1.8,1.7s-1.2,1.1-1.8,1.7c-0.6,0.6-0.9,1.3-1.1,2.2c-0.3,1.9-0.4,3.5-0.3,4.9
		c0.1,1.4,0,2.8-0.2,4.1c-0.1,0.6-0.5,1.1-1.3,1.2c-0.8,0.2-1.3,0.2-1.8,0.2c-0.9-0.1-1.7-0.5-2.3-1.2c-0.7-0.7-1-1.4-0.8-2.3
		c0.3-1.9,0.9-3.6,2-5.1s1.7-3.4,2-5.5c0.2-1.2-0.2-2-1-2.5c-0.8-0.4-1.7-0.7-2.5-0.9c-1.3-0.2-2.3,0-2.8,0.7
		c-0.6,0.6-1,1.4-1.3,2.1c-0.3,0.8-0.5,1.5-0.7,2.1c-0.2,0.6-0.6,0.9-1.3,0.8c-0.7-0.1-1.1-0.6-1.3-1.5s-0.3-2-0.4-3.1
		c0-1.2,0-2.3,0.1-3.4c0.1-1.1,0.2-1.9,0.3-2.5c0.2-1.7,0.5-3.1,0.9-3.9c0.3-0.9,0.7-2.2,0.9-4c0.1-0.6,0-1.5-0.1-2.5
		s-0.4-2.1-0.7-3.4s-0.5-2.4-0.7-3.6c-0.2-1.2-0.2-2.3,0-3.3c0.1-0.5,0.2-1,0.3-1.5c0.1-0.4,0.4-0.9,0.8-1.6
		c1.4-2.2,2.5-4.7,3.2-7.5c0.7-2.7,1.2-5.5,1.6-8.3l0.7-5.1c0.2-1.2-0.1-2.8-0.9-5s-1-4.2-0.7-6.4c0-0.1,0.2-0.6,0.5-1.4
		c0.3-0.8,0.7-1.8,1.2-2.8s0.8-2.1,1.2-3.2c0.4-1.1,0.6-1.9,0.7-2.6c0.5-2.1,1-4.3,1.5-6.6c0.5-2.3,0.9-4.3,1.1-6.2
		c0.1-0.5,0-1.4-0.2-2.5c-0.2-1.1-0.5-2.3-0.8-3.6c-0.3-1.3-0.6-2.6-0.8-3.9c-0.2-1.3-0.2-2.4-0.1-3.3c0.2-1.2,0.8-2.5,1.8-3.7
		c1-1.3,1.6-2.7,1.9-4.2c0.1-0.5-0.1-1.4-0.5-2.6c-0.4-1.2-0.5-2.1-0.4-2.9c0.3-1.8,1.2-3.2,2.9-4.2s3.6-1.2,5.8-0.9
		c2.4,0.3,4.8,1.1,7.2,2.2C1005.6,46.5,1008.4,47.3,1011.6,47.8z M1018.1,85.6c0.5-3.5,0.7-5.7,0.5-6.8s-0.7-1.6-1.6-1.7
		c-0.7-0.1-1.2,0.1-1.7,0.7c-0.5,0.6-0.9,1.2-1.3,1.8c-0.4,0.7-0.8,1.3-1.3,1.8c-0.4,0.6-0.9,0.8-1.4,0.7c-0.4-0.1-0.8-0.4-1.1-1.1
		s-0.4-1.2-0.3-1.8c0.2-1.5,0.7-3.3,1.3-5.2c0.7-2,1.1-3.5,1.3-4.7c0.2-1.5-0.2-2.6-1.3-3.1c-1.1-0.5-2.5-0.9-4.1-1.2
		c-2-0.3-3.2-0.1-3.7,0.5c-0.5,0.6-0.8,1.4-1,2.5c-0.3,2-0.2,3.4,0.3,4.5c0.5,1,1,1.8,1.7,2.5c0.7,0.7,1.3,1.2,1.8,1.6
		c0.5,0.4,0.8,1,0.7,1.8c-0.1,0.9-0.7,1.7-1.8,2.4c-1,0.7-1.6,1.5-1.8,2.4c-0.1,0.7,0,1.3,0.2,1.9c0.2,0.6,0.2,1.2,0.2,1.7
		c-0.1,0.9-0.7,2-1.7,3.2c-1,1.3-1.6,2.3-1.7,3.1c0,0.2,0,0.6,0,1.2c0,0.6,0.2,1.2,0.6,1.8c0.3,0.6,0.9,1.2,1.7,1.7
		c0.8,0.6,1.9,0.9,3.4,1.2c1.3,0.2,2.7-0.1,4-0.8c1.4-0.7,2.6-1.8,3.7-3.1c1.1-1.3,2-2.8,2.8-4.5
		C1017.4,88.9,1017.9,87.2,1018.1,85.6z"/>
</g>
<g class="st0">
	<path class="st1" d="M1076.9,54.2c2.4,0.4,4.9,1.3,7.6,2.6c2.7,1.3,5.3,2.8,7.8,4.5c2.5,1.7,4.8,3.5,6.9,5.5c2,1.9,3.6,3.8,4.6,5.6
		c1.3,2.5,2.2,5.3,2.5,8.4c0.3,3.1-0.1,7.6-1.1,13.3c-0.8,4.1-1.6,7.8-2.5,11s-1.8,6.2-2.7,9c-0.9,2.7-1.7,5.4-2.5,7.9
		c-0.8,2.5-1.4,5.2-1.9,7.9l-1.1,6c-0.7,3.6-1.3,6.5-1.9,8.7c-0.6,2.2-1.3,4.1-1.9,5.5c-0.6,1.5-1.2,2.6-1.8,3.5s-1.2,1.8-1.7,2.7
		s-1,2-1.4,3.2c-0.4,1.2-0.8,2.8-1.2,4.7c-1.1,5.8-2.3,10.3-3.8,13.5s-2.7,4.6-3.9,4.4c-0.5-0.1-0.9-0.5-1.1-1.1
		c-0.2-0.7-0.4-1.4-0.5-2.2c-0.1-0.8-0.3-1.5-0.5-2.2c-0.2-0.7-0.5-1-1-1.1c-1.1-0.2-1.9,0.5-2.4,2c-0.5,1.5-0.9,3.2-1.3,5.1
		s-0.8,3.5-1.3,5c-0.6,1.5-1.4,2.2-2.5,2c-0.5-0.1-1-0.5-1.5-1.1s-0.5-2.2-0.3-4.8c0.2-2.5,0.4-4.4,0.5-5.6c0.1-1.2-0.4-1.9-1.4-2.1
		c-0.9-0.2-1.6,0.1-2.1,0.7c-0.5,0.6-1.1,0.9-1.7,0.8s-1.2-0.8-1.7-2c-0.5-1.2-1.3-1.9-2.5-2.1c-0.9-0.2-1.6,0.2-2.1,1.1
		c-0.6,0.9-1.1,1.9-1.6,3c-0.5,1.1-1.1,2-1.5,2.9s-1.1,1.2-1.7,1.1c-0.9-0.3-1.6-0.8-1.9-1.4c-0.3-0.7-0.6-1.6-0.7-2.6
		c-0.1-1.1-0.2-2.4-0.3-3.9s-0.2-3.3-0.5-5.2c-0.3-2.1-0.6-3.7-0.9-5c-0.3-1.3-0.6-2.3-1-2.9c-0.3-0.7-0.6-1.1-0.9-1.4
		c-0.3-0.2-0.6-0.4-0.9-0.4c-1-0.2-1.7,0.1-2.2,0.9s-0.8,1.6-1,2.5c-0.1,0.5-0.2,1-0.2,1.5c0,0.4-0.1,0.8-0.1,1
		c-0.2,1.2-1,1.7-2.3,1.4c-0.5-0.1-0.9-1-1.2-2.6s-0.4-3.6-0.5-5.9c-0.1-2.3,0-4.7,0.1-7.1c0.2-2.4,0.4-4.5,0.7-6.2
		c0.3-1.4,0.7-3,1.3-4.7c0.6-1.7,1.3-3.5,2-5.2c0.7-1.7,1.3-3.3,1.9-4.8c0.6-1.5,0.9-2.7,1.1-3.7c0.2-1.1,0.2-2.4,0-3.9
		c-0.2-1.5-0.5-3.1-0.9-4.9s-0.6-3.5-0.8-5.3c-0.2-1.8-0.1-3.6,0.2-5.3c0.2-1,0.7-2.5,1.4-4.6c0.8-2.1,1.6-4.2,2.6-6.5
		c0.9-2.2,1.8-4.3,2.6-6.3c0.8-2,1.3-3.4,1.5-4.4c0.2-1.2,0.2-2.2,0-3.2c-0.2-0.9-0.2-2.3,0.2-4.2c0.2-1,0.5-2.1,1-3.2
		s1-2.3,1.6-3.4c0.5-1.1,1-2.1,1.5-2.9c0.4-0.9,0.8-1.5,0.9-1.8c1.1-2.4,2.9-4.3,5.3-5.9c2.4-1.6,4.9-2.8,7.5-3.7
		c2.6-0.9,4.9-1.4,7.1-1.7C1074.8,54.1,1076.2,54,1076.9,54.2z M1072.4,78.5c-1-0.2-1.8,0.3-2.5,1.5c-0.7,1.2-1.1,2.2-1.3,3.2
		c-0.4,2.3-0.6,4.4-0.5,6.4s-0.1,4-0.4,5.8c-0.3,1.7-0.6,3.1-0.9,4.2c-0.3,1.1-0.5,1.9-0.7,2.6s-0.4,1.3-0.6,1.8
		c-0.2,0.5-0.3,1.1-0.4,1.6c-0.2,0.9-0.3,2.1-0.3,3.6c-0.1,1.6-0.1,3.2-0.1,4.9c0,1.7,0,3.2,0,4.7c-0.1,1.4-0.1,2.5-0.2,3.1
		c-0.4,2.4-1,4.5-1.7,6.3s-1.4,3.6-2.1,5.1c-0.8,1.6-1.4,3.1-2,4.7c-0.6,1.5-1.1,3.1-1.4,4.7c-0.2,1,0,2.3,0.6,4
		c0.5,1.9,1,3.4,1.3,4.5c0.3,1.1,0.6,2,0.9,2.7c0.3,0.7,0.7,1.1,1.1,1.4c0.4,0.2,1,0.4,1.9,0.6c1.8,0.3,3.5,0,5.1-1s2.5-2.4,2.8-4.3
		c0.1-0.4,0.1-1.1,0.2-2.2c0-1,0.1-1.8,0.2-2.3c0.1-0.3,0.2-0.9,0.4-1.9c0.2-0.9,0.5-2.1,0.7-3.5s0.6-3.3,0.9-5.6
		c0.3-2.3,0.6-4.1,0.8-5.3c0.1-0.8,0.3-1.4,0.4-2c0.1-0.6,0.3-1.2,0.5-1.7s0.5-1.1,0.8-1.8s0.7-1.5,1.2-2.5c1-1.8,1.7-3.7,2.1-5.7
		c0.6-3.2,0.8-6.6,0.8-9.9s0.3-7.6,1.2-12.5c0.4-2.2,1-4.1,1.8-5.7c0.8-1.6,1.4-3.4,1.7-5.2c0.2-1.2,0.2-2.3-0.1-3.4s-1.1-1.7-2.4-2
		c-0.4-0.1-0.9,0.3-1.4,1.2c-0.5,0.9-1,1.8-1.5,2.8s-1.1,2-1.6,2.8c-0.6,0.8-1,1.2-1.5,1.2c-0.4-0.1-0.7-0.5-0.9-1.2
		c-0.2-0.7-0.3-1.5-0.5-2.3c-0.2-0.8-0.4-1.6-0.8-2.3C1073.5,79.1,1073,78.6,1072.4,78.5z"/>
</g>
<g class="st0">
	<path class="st1" d="M1163.9,159.4c-0.2,0.8-0.5,1.4-1.1,2c-0.5,0.6-1.2,1.2-1.9,1.8c-1.2,1.2-2.1,2.7-2.7,4.5s-1.1,3.5-1.4,5
		c-0.7,2.9-1.2,5-1.4,6.5c-0.2,1.4-0.4,2.5-0.4,3.2c-0.1,0.7-0.1,1.3-0.1,1.7c0,0.4-0.1,1.1-0.3,2c-0.2,0.9-0.6,1.8-1.2,2.7
		c-0.6,0.9-1.7,2.2-3.4,3.7c-0.7,0.6-1.1,1.2-1.3,1.7c-0.2,0.6-0.2,1.8-0.3,3.6s-0.1,3.1-0.3,3.9c-0.2,1-0.7,1.6-1.4,1.8
		c-0.7,0.2-1.4,0.3-2.1,0.1c-1.7-0.4-2.3-1.6-1.8-3.7c0.1-0.4,0.3-1,0.5-1.7s0.4-1.2,0.4-1.5c0.7-2.8,0.9-4.8,0.7-5.9
		s-0.6-1.8-1.1-2c-0.5-0.1-1,0-1.4,0.4s-0.7,0.9-1,1.4s-0.6,1-0.9,1.5c-0.3,0.4-0.7,0.6-1,0.5c-0.5-0.1-0.9-0.7-1.1-1.6
		c-0.2-1-0.4-2.1-0.5-3.4c-0.1-1.3-0.2-2.7-0.3-4.1s-0.2-2.6-0.6-3.6c-0.8-2.1-1.4-3.7-2.1-4.9s-0.7-2.9-0.1-5.1
		c0.2-1,0.5-1.8,0.8-2.5c0.3-0.7,0.7-1.4,1-2.1s0.7-1.3,1-2.1s0.7-1.6,0.9-2.8c0.4-1.6-0.1-2.6-1.3-2.9c-2.4-0.6-4.1,1.4-5.1,5.7
		c-0.6,2.5-1.5,4.1-2.6,5s-2,1.2-2.6,1.1c-0.9-0.2-1-1.4-0.5-3.7c0.6-2.5,1.4-5,2.4-7.6c1-2.6,1.9-5.5,2.7-8.7
		c0.6-2.4,1-4.8,1.3-7.4c0.3-2.6,0.5-5,0.5-7.2s-0.2-4.1-0.5-5.6c-0.4-1.5-1-2.4-1.8-2.6c-0.6-0.2-1.3,0.2-2.1,0.9s-1.3,1.9-1.7,3.4
		c-0.3,1.4-0.5,2.9-0.5,4.4c0,1.5-0.2,2.9-0.5,4.2c-0.2,1-0.6,1.9-1,2.9c-0.5,1-0.8,2.1-1.1,3.4c-0.2,0.9-0.3,2.2-0.4,4.1
		c-0.1,1.9-0.3,3.6-0.7,5.4c-0.3,1.2-0.9,2.2-2,3c-1,0.8-1.7,1.8-2,3c-0.3,1.2-0.3,2.7-0.2,4.4c0.1,1.8,0.1,3.3-0.2,4.4
		c-0.6,2.5-0.8,4.1-0.7,4.9c0.2,0.8,0.1,1.7-0.2,2.8c-0.4,1.6-1.2,2.9-2.6,4c-1.3,1-2,1.8-2.1,2.2c-0.3,1.2-0.5,2.3-0.6,3.2
		s-0.2,1.8-0.4,2.3c-0.4,1.6-1.3,2.2-2.7,1.9c-1.1-0.2-1.4-1.6-1.1-4c0.3-1.7,0.3-3.2-0.1-4.3c-0.3-1.2-0.8-2.1-1.5-2.7
		s-1.2-1.1-1.9-1.5c-0.6-0.3-1.1-0.5-1.4-0.6c-0.5-0.1-1.2-0.1-2,0s-1.3,0.7-1.5,1.5c-0.1,0.5-0.1,1.5,0,2.8s0.1,2.4-0.1,3.1
		c-0.5,2-1.1,3.2-1.8,3.6c-0.7,0.4-1.2,0.6-1.4,0.5c-0.4-0.1-0.8-0.6-1-1.4s-0.5-1.8-0.6-2.9c-0.1-1.1-0.2-2.2-0.1-3.4
		s0.2-2.2,0.4-3.2c0.5-1.9,0.9-3.4,1.2-4.3s0.6-1.8,0.8-2.5c0.2-1,0.4-1.9,0.5-2.9c0.1-0.9,0.3-1.9,0.5-2.9c0.6-2.4,1.5-4.5,2.9-6.4
		c1.4-1.9,2.3-4.2,3-6.8c0.2-0.8,0.3-2.2,0.4-4.4s0.3-4.2,0.8-6c0.3-1.2,0.8-2.2,1.4-3.2c0.7-1,1.4-1.9,2.3-2.9c0.8-1,1.6-2,2.3-3.1
		s1.2-2.2,1.5-3.5c0.2-1,0.4-2.1,0.4-3.5c0-1.3,0-2.6-0.1-3.8c-0.1-1.2-0.2-2.3-0.2-3.4c0-1,0-1.7,0.1-2c0.1-0.5,0.5-1.4,1-2.5
		s1.2-2.3,1.9-3.6c0.7-1.3,1.3-2.6,1.9-3.9c0.6-1.3,1-2.4,1.2-3.4c0.4-1.8,0.4-3.7-0.1-5.6s-0.5-3.9,0-5.9c0.2-0.9,0.6-1.7,1.1-2.6
		c0.5-0.9,1-1.8,1.6-2.6s1.1-1.6,1.5-2.2c0.4-0.6,0.7-1.1,0.8-1.4c0.4-1.6,0.6-3.4,0.8-5.4s0.4-3.7,0.7-5.1c0.5-2.1,1.8-3.8,3.9-4.8
		c2.1-1.1,5.1-1.2,9.2-0.2c5.5,1.3,7.8,3.4,7.2,6.3c-0.3,1.2-0.6,2.2-1.1,3.1c-0.4,0.9-0.8,1.8-1,2.9c-0.4,1.7-0.6,3.2-0.4,4.3
		c0.1,1.2,0.4,2.3,0.8,3.6s0.9,2.7,1.5,4.3c0.6,1.6,1.3,3.8,2,6.6c0.4,1.3,0.5,2.9,0.3,4.7c-0.1,1.8-0.4,3.5-0.6,5.2
		c-0.3,1.7-0.6,3.3-1,4.8c-0.4,1.5-0.5,2.6-0.4,3.3c0,0.6,0.2,1.6,0.7,3.1c0.5,1.5,0.6,3,0.2,4.5c-0.1,0.5-0.4,1-0.7,1.4
		c-0.3,0.4-0.5,0.9-0.7,1.3c-0.6,2.4-0.8,4.1-0.7,5.4s0.8,2,1.9,2.2c1.5,0.4,2.4-0.3,2.8-1.9c0.4-1.5,0.9-2.8,1.6-3.8
		c0.7-1,1.3-2.4,1.7-4.3c0.1-0.3,0.1-1,0.1-1.9s0-2.1,0.1-3.5c0-1.3,0.1-2.8,0.3-4.4c0.2-1.6,0.4-3.2,0.8-4.7
		c1.1-4.6,2.2-8.1,3.4-10.5c1.2-2.4,2-4.5,2.4-6.3c0.2-0.9,0.3-1.9,0.2-3c-0.1-1.1-0.1-2.3-0.2-3.4c-0.1-1.1-0.1-2.3-0.2-3.4
		c-0.1-1.1,0-2,0.2-2.8c0.3-1.3,1-2.3,2-3c1-0.7,2.2-1.2,3.7-1.5c1.4-0.3,3-0.4,4.6-0.2s3.2,0.3,4.8,0.7c2.8,0.7,4.7,2.2,5.7,4.7
		c1,2.4,1.1,5.3,0.3,8.6c-0.1,0.3-0.3,0.9-0.8,1.8c-0.4,0.9-0.9,1.7-1.5,2.6c-0.6,0.9-1.1,1.8-1.5,2.7c-0.4,0.9-0.7,1.6-0.8,2
		c-0.4,1.5-0.5,3-0.4,4.5c0.1,1.5,0.3,3,0.5,4.6c0.2,1.6,0.4,3.2,0.5,4.7c0.1,1.6-0.1,3.1-0.4,4.7c-0.4,1.8-1.3,3.2-2.6,4.1
		c-1.3,0.9-2.6,1.8-3.9,2.7c-0.8,0.7-1.7,1.9-2.6,3.7c-0.9,1.8-1.4,3.1-1.7,4.1c-0.1,0.5-0.2,1.4-0.2,2.7c0,1.2-0.1,2.6-0.1,4
		c-0.1,1.5-0.1,2.9-0.2,4.3s-0.2,2.4-0.3,3.1c-0.2,0.8-0.4,1.4-0.6,1.9c-0.2,0.5-0.4,1.2-0.7,2.1c0,0.1,0,0.5,0.1,1.2
		s0.2,1.5,0.3,2.5s0.2,1.9,0.3,2.8C1164,158.3,1164,158.9,1163.9,159.4z"/>
</g>
<g class="st0">
	<path class="st1" d="M1216,195.2c-0.2,0.8-0.8,1.8-1.6,2.7c-0.8,1-1.3,1.8-1.5,2.6c-0.1,0.4-0.3,1.1-0.4,2c-0.2,0.9-0.4,2-0.8,3.1
		c-0.5,1.8-1.6,2.4-3.2,2c-0.3-0.1-0.8-0.3-1.4-0.7c-0.6-0.4-1.3-0.8-2.1-1.2c-0.7-0.4-1.5-0.9-2.2-1.3c-0.7-0.4-1.3-0.7-1.8-0.8
		c-0.9-0.3-1.8-0.2-2.7,0.2c-0.8,0.4-1.4,1.1-1.7,2.1c-0.2,1.4-0.2,2.6,0.1,3.6c0.2,0.9,0,2.4-0.6,4.6c-0.2,0.6-0.4,1.1-0.6,1.3
		s-0.7,0.2-1.5,0c-0.6-0.2-1-1-1.2-2.3c-0.2-1.4-0.3-2.9-0.4-4.5c-0.1-1.6-0.2-3.1-0.4-4.5c-0.2-1.4-0.7-2.2-1.4-2.4
		c-1.2-0.4-2.3-0.1-3.3,0.8c-1.1,0.9-1.7,1.6-1.8,2.1c-0.2,0.6-0.2,1.3-0.1,1.9c0.2,0.6,0.2,1.2,0,1.7c-0.4,1.5-0.9,2.4-1.5,2.7
		c-0.6,0.3-1.1,0.4-1.8,0.2c-1.3-0.4-2-1.2-2.3-2.3c-0.3-1.2-0.4-2.4-0.4-3.8s0-2.6,0-3.7c0-1.1-0.3-1.7-1-1.9
		c-0.2-0.1-0.7,0.2-1.5,0.9c-0.8,0.6-1.5,0.8-2.2,0.6c-0.5-0.2-1.2-0.8-1.9-1.9c-0.8-1.1-1.4-1.7-1.9-1.9c-0.3-0.1-0.8-0.1-1.4,0.1
		s-1.1,0.2-1.4,0.1c-0.7-0.2-1.2-0.7-1.2-1.3s-0.1-1.4,0.1-2.2s0.3-1.6,0.6-2.4c0.3-0.8,0.4-1.3,0.4-1.7l0.9-3
		c0.1-0.4,0.3-1,0.7-1.9c0.3-0.8,0.5-1.5,0.7-2l1-3.5c0.4-1.3,0.9-2.8,1.6-4.7c0.7-1.9,1.4-3.8,2.2-5.8s1.5-3.9,2.2-5.8
		s1.2-3.4,1.6-4.7c0.3-0.9,0.7-1.9,1.2-3c0.5-1,1.1-2,1.6-2.9s1-1.6,1.4-2.2c0.4-0.6,0.7-1,0.7-1.2c0.4-1.5-0.1-2.4-1.7-2.9
		c-0.3-0.1-0.7-0.1-1.2-0.1c-0.5,0-0.9,0-1.2-0.1c-0.6-0.2-0.9-0.6-0.9-1.3c0-0.7,0.1-1.3,0.3-1.8c0.1-0.4,0.3-0.8,0.5-1.2
		c0.2-0.4,0.5-0.9,1.1-1.6c1.4-1.4,2.6-3.1,3.5-5.1c0.9-2,1.6-3.9,2.2-5.7c0.8-2.7,1.9-5,3.2-6.9s2.2-3.8,2.8-5.8
		c0.1-0.3,0.2-0.8,0.2-1.4c0-0.6,0-1.3,0-2.1s0.1-1.6,0.1-2.5s0.2-1.5,0.4-2.1c0.2-0.8,0.6-1.8,1-2.8c0.4-1,0.7-1.9,1-2.6
		c0.2-0.6,0.3-1.5,0.4-2.7c0.1-1.2,0.2-2.2,0.5-3c0.1-0.4,0.3-0.9,0.7-1.3c0.3-0.5,0.5-0.9,0.7-1.3c0.2-0.5,0.1-1.3-0.2-2.3
		c-0.3-1-0.3-1.8-0.1-2.4c0.4-1.3,1.2-2,2.5-2.3s2.8-0.1,4.6,0.4c0.3,0.1,0.8,0.3,1.4,0.5c0.6,0.2,1.2,0.4,1.7,0.6
		c1.5,0.4,2.6,0.5,3.4,0.2s1.7-0.2,2.9,0.1c0.7,0.2,1.4,0.7,2,1.4c0.6,0.7,1.2,1.1,1.7,1.3c0.5,0.2,1,0.1,1.5-0.1
		c0.5-0.2,1.1-0.2,2,0.1c1.2,0.3,2.3,1.1,3.3,2.4c1.1,1.2,2.2,2,3.3,2.4c0.8,0.2,1.8,0.2,2.7-0.1s2-0.3,3.2,0c0.8,0.2,1.4,0.6,1.8,1
		c0.3,0.4,0.8,0.7,1.3,0.8c0.5,0.2,1.1,0.1,1.8-0.1s1.5-0.1,2.7,0.2c0.5,0.2,0.8,0.9,0.8,2.1c0,1.3-0.4,3.4-1.3,6.3
		c-0.3,1.1-0.7,2.7-1.1,4.8s-0.8,4.5-1.2,7c-0.4,2.5-0.9,5-1.4,7.4c-0.5,2.4-1,4.3-1.4,5.7c-0.6,2-2,2.7-4.1,2.1
		c-1.5-0.4-2-1.4-1.5-3c0.1-0.3,0.3-0.8,0.5-1.4c0.2-0.6,0.5-1.2,0.7-1.9c0.2-0.6,0.4-1.2,0.6-1.7c0.2-0.5,0.3-0.8,0.4-0.9
		c0.8-2.7,1.4-5.2,1.8-7.3c0.4-2.1,0.3-3.3-0.2-3.4c-0.7-0.2-1.3,0.2-1.8,1.3c-0.4,1.1-0.9,2.2-1.3,3.5s-0.9,2.4-1.5,3.4
		c-0.5,1-1.2,1.4-1.9,1.2c-0.9-0.3-1.4-0.9-1.4-1.8c0.1-1.9,0.2-3.3,0.2-4.2c0-0.8,0-1.5-0.1-2c-0.8-1.1-1.6-2-2.4-2.9
		c-0.8-0.9-1.6-1.4-2.6-1.7c-0.8-0.2-1.6-0.2-2.2,0c-0.7,0.3-1.2,0.6-1.8,0.9s-1,0.7-1.4,1c-0.4,0.3-0.9,0.4-1.3,0.3
		c-0.5-0.2-0.9-0.3-1.1-0.5s-0.5-0.3-0.8-0.4c-1.8-0.5-3.2-0.1-4.2,1.4c-1,1.5-1.9,3.4-2.6,5.8c-0.7,2.3-1,4.5-0.9,6.5
		c0.1,2,0.4,3.8,0.9,5.3c0.5,1.5,1.2,2.8,1.9,3.7c0.8,0.9,1.5,1.5,2.1,1.7c0.1,0,0.5,0.1,1.1,0.1c0.6,0.1,1.3,0.1,2,0.2
		c0.7,0.1,1.4,0.1,2,0.2c0.6,0.1,1,0.1,1.2,0.2c1.2,0.1,2.6,0.4,4,0.8c1.4,0.4,2.4,0.6,2.8,0.8c0.8,0.2,1.4,0.8,1.6,1.7
		c0.2,0.9,0.2,1.9-0.1,3.1c-0.2,0.5-0.7,1.3-1.5,2.3s-1.4,1.9-1.6,2.8s-0.4,2-0.5,3.4s-0.1,2.9-0.2,4.3s-0.1,2.9-0.1,4.2
		c-0.1,1.3-0.2,2.3-0.3,2.9c-0.4,1.5-1.3,2.8-2.7,4.1c-1.4,1.3-2.4,1.8-3.1,1.6c-0.8-0.2-1.2-0.9-1.2-1.8c0.1-1,0.2-2,0.3-3.2
		c0.2-1.1,0.2-2.2,0.2-3.2s-0.5-1.6-1.5-1.9c-0.8-0.2-1.5-0.1-1.9,0.5c-0.4,0.6-0.7,1.2-0.9,1.9c-0.2,0.7-0.5,1.3-0.8,1.9
		c-0.3,0.6-0.8,0.8-1.5,0.6c-0.5-0.2-0.9-0.6-1-1.2s-0.3-1.3-0.4-2.1s-0.2-1.5-0.4-2.1c-0.2-0.6-0.4-1-0.9-1.1
		c-0.5-0.2-1.1-0.4-1.6-0.8c-0.5-0.4-1-0.7-1.6-0.8c-1.4-0.4-2.2-0.1-2.5,1c-0.2,0.6-0.3,1.6-0.3,3c0,1.4-0.6,3.9-1.6,7.4
		c-0.3,1.2-1.2,2.5-2.4,4.1c-1.3,1.6-2,2.8-2.3,3.6c-0.4,1.3-0.1,2.8,0.8,4.5s3.1,3.1,6.4,4.1c0.5,0.2,1.1,0.3,1.7,0.4
		c0.6,0.1,1.3,0.3,2,0.5c1.2,0.4,2.5,1,4.1,1.9c1.6,0.9,2.9,1.6,3.9,1.9c0.3,0.1,0.7,0.2,1.1,0.2c0.4,0.1,0.8,0.1,1.2,0.3
		c1.2,0.4,2.1,1.2,2.8,2.6C1216.2,192.8,1216.4,194,1216,195.2z"/>
</g>
<g class="st0">
	<path class="st1" d="M1286.4,201.1c-0.3,0.7-0.7,1.3-1.3,1.9c-0.6,0.5-1.3,1.1-2.1,1.6c-1.3,1-2.4,2.4-3.3,4.1s-1.6,3.3-2.1,4.8
		c-1.1,2.8-1.8,4.8-2.2,6.2c-0.4,1.4-0.7,2.4-0.8,3.1c-0.2,0.7-0.2,1.3-0.3,1.6c0,0.4-0.2,1.1-0.6,2c-0.3,0.8-0.8,1.7-1.5,2.5
		c-0.7,0.9-2,1.9-3.9,3.2c-0.8,0.5-1.3,1-1.5,1.5c-0.2,0.6-0.5,1.8-0.7,3.5c-0.3,1.7-0.5,3-0.9,3.8c-0.4,0.9-0.9,1.4-1.7,1.6
		s-1.4,0.1-2.1-0.2c-1.6-0.6-2.1-1.9-1.3-3.9c0.2-0.4,0.4-0.9,0.7-1.6c0.3-0.6,0.5-1.1,0.6-1.4c1-2.7,1.5-4.6,1.4-5.8
		s-0.3-1.9-0.9-2.1c-0.5-0.2-1-0.1-1.4,0.2s-0.8,0.8-1.2,1.3c-0.4,0.5-0.8,0.9-1.1,1.3s-0.7,0.5-1,0.4c-0.5-0.2-0.8-0.8-0.9-1.8
		c-0.1-1-0.1-2.1-0.1-3.5c0-1.3,0.1-2.7,0.3-4.1s0.1-2.6-0.1-3.6c-0.5-2.2-0.9-3.9-1.4-5.1c-0.5-1.2-0.3-2.9,0.6-5.1
		c0.4-0.9,0.8-1.7,1.2-2.4c0.4-0.6,0.8-1.3,1.3-1.9c0.4-0.6,0.8-1.2,1.3-1.9c0.4-0.7,0.9-1.6,1.3-2.7c0.6-1.5,0.3-2.5-0.9-3
		c-2.2-0.9-4.2,0.8-5.8,5c-0.9,2.4-2,3.9-3.3,4.6c-1.3,0.7-2.2,0.9-2.7,0.7c-0.8-0.3-0.8-1.6,0-3.7c0.9-2.4,2-4.7,3.4-7.2
		s2.6-5.2,3.8-8.2c0.9-2.2,1.6-4.6,2.3-7.1c0.7-2.5,1.2-4.8,1.5-7c0.3-2.2,0.4-4,0.2-5.6c-0.2-1.5-0.7-2.5-1.5-2.8
		c-0.6-0.2-1.3,0-2.2,0.6c-0.8,0.7-1.6,1.7-2.1,3.1c-0.5,1.3-0.9,2.8-1.1,4.2c-0.2,1.5-0.6,2.9-1.1,4.1c-0.4,0.9-0.8,1.8-1.4,2.7
		c-0.6,0.9-1.1,1.9-1.6,3.2c-0.3,0.8-0.6,2.1-0.9,4s-0.8,3.6-1.4,5.2c-0.4,1.1-1.2,2-2.4,2.7c-1.1,0.7-1.9,1.6-2.4,2.7
		c-0.4,1.1-0.7,2.6-0.8,4.4c-0.1,1.8-0.4,3.2-0.8,4.4c-0.9,2.4-1.3,3.9-1.3,4.7c0.1,0.8-0.1,1.7-0.5,2.7c-0.6,1.5-1.6,2.7-3.1,3.6
		c-1.4,0.9-2.2,1.5-2.4,1.9c-0.4,1.1-0.8,2.2-1,3.1c-0.3,1-0.5,1.7-0.7,2.2c-0.6,1.5-1.6,2-2.9,1.5c-1-0.4-1.2-1.8-0.5-4.1
		c0.5-1.7,0.7-3.1,0.5-4.3c-0.2-1.2-0.6-2.1-1.1-2.9c-0.5-0.7-1.1-1.3-1.6-1.7c-0.6-0.4-1-0.6-1.3-0.8c-0.5-0.2-1.2-0.3-1.9-0.2
		c-0.8,0.1-1.3,0.5-1.7,1.3c-0.2,0.5-0.3,1.4-0.4,2.8c-0.1,1.3-0.2,2.4-0.5,3.1c-0.8,1.9-1.5,3.1-2.3,3.4c-0.8,0.3-1.2,0.4-1.4,0.3
		c-0.4-0.2-0.7-0.6-0.8-1.5c-0.2-0.8-0.2-1.8-0.2-2.9s0.1-2.2,0.3-3.4c0.2-1.1,0.5-2.2,0.8-3.1c0.7-1.8,1.3-3.2,1.8-4.1
		s0.8-1.7,1.1-2.4c0.4-0.9,0.7-1.8,0.9-2.8c0.2-0.9,0.5-1.8,0.9-2.7c0.9-2.2,2.1-4.2,3.7-6s2.9-3.8,3.8-6.3c0.3-0.7,0.6-2.1,1-4.3
		c0.4-2.1,0.9-4.1,1.6-5.8c0.4-1.1,1.1-2.1,1.9-3c0.8-0.9,1.7-1.7,2.7-2.6c1-0.9,1.9-1.8,2.7-2.7s1.5-2.1,2-3.3
		c0.4-0.9,0.6-2,0.9-3.4s0.4-2.6,0.4-3.8c0.1-1.2,0.1-2.3,0.2-3.4s0.2-1.7,0.3-2c0.2-0.5,0.6-1.3,1.3-2.3s1.5-2.1,2.3-3.3
		c0.9-1.2,1.7-2.4,2.4-3.6c0.8-1.2,1.3-2.2,1.7-3.1c0.7-1.7,0.9-3.6,0.7-5.6c-0.2-2,0-3.9,0.8-5.9c0.3-0.8,0.8-1.6,1.4-2.5
		s1.3-1.6,2-2.3s1.3-1.4,1.8-1.9c0.5-0.6,0.8-1,0.9-1.3c0.6-1.5,1.1-3.3,1.5-5.2s0.9-3.6,1.4-4.9c0.8-2.1,2.3-3.5,4.5-4.3
		c2.2-0.8,5.2-0.4,9.1,1.1c5.2,2,7.3,4.4,6.2,7.2c-0.4,1.1-0.9,2.1-1.5,2.9c-0.5,0.8-1,1.7-1.4,2.7c-0.6,1.6-1,3-1,4.2
		c0,1.2,0.1,2.4,0.3,3.6c0.2,1.3,0.5,2.7,0.9,4.4c0.4,1.7,0.8,3.9,1.1,6.8c0.2,1.4,0.1,2.9-0.3,4.6c-0.4,1.7-0.8,3.4-1.3,5
		c-0.5,1.6-1,3.1-1.6,4.6c-0.6,1.4-0.8,2.5-0.9,3.2c-0.1,0.6,0,1.6,0.3,3.1s0.2,3-0.4,4.4c-0.2,0.5-0.5,1-0.9,1.3
		c-0.4,0.4-0.7,0.8-0.8,1.2c-0.9,2.2-1.3,4-1.4,5.2c-0.1,1.2,0.5,2,1.6,2.5c1.4,0.6,2.4,0.1,3-1.5c0.6-1.4,1.2-2.6,2.1-3.5
		c0.8-0.9,1.6-2.2,2.2-4c0.1-0.3,0.2-0.9,0.4-1.9c0.1-0.9,0.3-2.1,0.5-3.4c0.2-1.3,0.5-2.8,0.9-4.3s0.8-3.1,1.4-4.5
		c1.7-4.4,3.3-7.7,4.8-9.9s2.6-4.1,3.2-5.9c0.3-0.8,0.5-1.8,0.6-2.9s0.2-2.3,0.3-3.4c0.1-1.1,0.2-2.3,0.2-3.3s0.2-2,0.5-2.7
		c0.5-1.2,1.3-2.1,2.4-2.7c1.1-0.6,2.4-0.9,3.8-1s3,0,4.6,0.4s3.2,0.8,4.6,1.3c2.7,1,4.3,2.8,5,5.4c0.7,2.5,0.4,5.4-0.8,8.6
		c-0.1,0.3-0.4,0.9-1,1.6s-1.1,1.6-1.8,2.4c-0.7,0.8-1.3,1.6-1.8,2.5c-0.6,0.8-0.9,1.5-1.1,1.9c-0.6,1.4-0.9,2.9-1,4.4
		c-0.1,1.5-0.2,3-0.1,4.6s0,3.2-0.2,4.7c-0.1,1.5-0.5,3.1-1.1,4.6c-0.7,1.7-1.7,3-3.1,3.7s-2.8,1.4-4.3,2.1
		c-0.9,0.6-1.9,1.7-3.1,3.3c-1.1,1.6-1.8,2.9-2.2,3.8c-0.2,0.5-0.4,1.4-0.6,2.6c-0.2,1.2-0.4,2.6-0.7,4s-0.5,2.8-0.8,4.2
		s-0.5,2.4-0.7,3c-0.3,0.7-0.6,1.3-0.9,1.8c-0.3,0.5-0.6,1.1-0.9,1.9c0,0.1-0.1,0.5,0,1.2s0,1.5,0,2.5c0,0.9-0.1,1.9-0.1,2.8
		C1286.7,200,1286.6,200.7,1286.4,201.1z"/>
</g>
<g class="st0">
	<path class="st1" d="M1370.9,152.1c1,0.5,1.7,1.3,2.1,2.4c0.4,1.1,0.6,2.4,0.4,3.7c-0.1,1.4-0.4,2.7-0.8,4
		c-0.4,1.4-0.8,2.5-1.2,3.3c-0.3,0.6-0.8,1.3-1.6,2.2c-0.7,0.9-1.5,1.7-2.3,2.6s-1.5,1.8-2.3,2.8c-0.8,1-1.4,1.8-1.7,2.5
		c-0.8,1.7-1.3,2.8-1.4,3.4c-0.1,0.6-0.2,1.2-0.5,1.7c-0.8,1.7-1.8,2.2-3,1.6c-1-0.5-1.4-1.3-1.1-2.5s0.6-2.4,1.1-3.7s1-2.4,1.4-3.5
		s0.4-1.7-0.1-2c-0.4-0.2-0.8-0.2-1.2,0.1c-0.4,0.3-0.9,0.6-1.3,0.9c-0.4,0.3-0.8,0.6-1.3,0.9c-0.4,0.3-0.8,0.3-1.1,0.2
		c-0.5-0.2-0.8-0.6-1-1.1c-0.2-0.5-0.3-1.1-0.5-1.7c-0.2-0.6-0.4-1.2-0.7-1.7c-0.3-0.6-0.7-1-1.3-1.3c-1.7-0.8-3.1-0.8-4.2,0.2
		c-1.2,0.9-2.5,2.9-4,5.8c-0.4,0.8-0.7,1.7-1,2.7s-0.5,1.8-0.8,2.3c-1.1,2.2-2.3,4.1-3.4,5.6s-2,2.8-2.6,4.1
		c-0.9,1.9-1.6,3.5-1.9,4.9c-0.3,1.4-0.7,2.9-0.9,4.4c-0.3,1.5-0.7,3.2-1.2,4.9c-0.5,1.8-1.4,3.9-2.7,6.5c-0.9,1.9-1.9,3.4-3,4.8
		c-1,1.3-2,2.5-3,3.7c-0.9,1.1-1.9,2.2-2.8,3.4c-0.9,1.1-1.8,2.4-2.5,3.9c-1.1,2.2-1.7,4-1.9,5.4c-0.2,1.4-0.7,3-1.4,4.5
		c-0.2,0.5-0.6,1-1.1,1.6c-0.5,0.6-0.8,1.1-1.1,1.6c-0.4,0.8-0.6,2-0.7,3.6c-0.1,1.6-0.3,2.9-0.8,3.8c-0.6,1-1.5,1.6-2.5,1.6
		c-1.1,0-2.2,0.1-3.4,0.2c-1.2,0.1-2.5,0.5-3.8,1.1c-1.3,0.6-2.5,2-3.6,4.2c-1,2.1-1.7,4.1-2,6.1c-0.3,2-1,4.2-2.3,6.7
		c-0.4,0.8-1.1,1.3-2.1,1.5s-2.2,0-3.6-0.7c-2.3-1.2-3.1-2.7-2.1-4.6c0.7-1.4,1.6-2.5,2.7-3.5c1.1-0.9,1.9-2,2.6-3.3s1.3-2.6,2-4.1
		c0.7-1.4,1.2-2.8,1.7-4.1c0.5-1.3,0.7-2.4,0.8-3.4c0.1-1-0.3-1.6-0.9-2c-0.3-0.1-0.6-0.1-0.9,0c-0.3,0.1-0.6,0.4-1,0.6
		c-0.3,0.3-0.6,0.5-1,0.6c-0.3,0.1-0.7,0.1-1.1-0.1c-0.6-0.3-0.8-1.1-0.7-2.4c0.2-1.3,0.4-2.7,0.9-4.3s1-3.2,1.6-4.8
		s1.1-2.8,1.5-3.6c1.1-2.2,2.6-4.6,4.2-6.9c1.7-2.4,3.4-4.6,5-6.7c1.7-2.1,3.2-4,4.5-5.6c1.3-1.7,2.2-2.9,2.7-3.8
		c0.8-1.7,1.5-3,1.9-4.1c0.4-1.1,0.8-2,1.1-2.7c0.3-0.7,0.5-1.3,0.6-1.8s0.3-1,0.6-1.6c0.4-0.8,1.1-2,2-3.5c0.9-1.6,2-3.3,3.2-5.1
		c1.2-1.9,2.4-3.7,3.6-5.6c1.2-1.9,2.3-3.6,3.4-5.2c1.6-2.4,3.3-4.8,5.2-7.3c1.9-2.5,3.2-4.4,3.8-5.8c0.7-1.5,0.7-2.6-0.2-3.4
		c-0.9-0.8-1.7-1.3-2.4-1.7c-1.1-0.5-2.1-0.4-3.1,0.4c-1,0.8-1.9,1.7-2.8,2.7c-0.9,1-1.9,1.9-2.8,2.7c-1,0.8-1.9,1-2.9,0.5
		c-0.9-0.4-1.2-1.3-1.1-2.5c0.2-1.2,0.4-2.5,0.6-3.8c0.2-1.4,0.3-2.7,0.3-4c-0.1-1.3-0.7-2.3-1.9-2.9c-0.8-0.4-1.4-1.1-1.9-2
		c-0.5-0.9-0.5-1.8-0.1-2.7c0.3-0.6,1.1-1.3,2.3-2.1c1.2-0.8,2.1-1.6,2.6-2.5c0.2-0.4,0.4-1,0.6-1.7s0.4-1.5,0.6-2.3
		s0.4-1.5,0.5-2.1s0.3-1.1,0.4-1.4c0.6-1.2,1.5-1.4,2.8-0.8s2.3,1.6,3,2.9s1.8,2.3,3.2,3c1.4,0.7,2.7,1.1,4,1.4
		c1.3,0.2,2.5,0.4,3.7,0.6c1.2,0.1,2.2,0.3,3.3,0.4c1.1,0.1,2,0.4,2.9,0.8c1.7,0.8,3,1.6,4,2.4c1,0.7,1.9,1.5,2.8,2.3
		c0.9,0.8,1.9,1.5,3,2.3c1.1,0.8,2.5,1.6,4.3,2.5c2.2,1.1,4.1,1.6,5.9,1.7C1368.4,151.2,1369.8,151.5,1370.9,152.1z"/>
</g>
<g class="st0">
	<path class="st1" d="M1385.1,256.7c-0.5,1.3-1,2.6-1.7,3.9s-1.3,2.5-2,3.5c-0.6,0.8-1.2,1.6-1.9,2.3c-0.7,0.7-1.7,1.4-2.9,2.2
		c-1.9,1.2-3.7,2.6-5.4,4.2s-3.2,3.2-4.5,4.7c-1.3,1.6-2.5,3-3.5,4.4s-1.8,2.5-2.3,3.3c-0.2,0.4-0.6,1-1.2,1.9
		c-0.5,0.9-1.2,1.8-1.8,2.8c-0.3,0.5-0.7,0.8-1.3,1.1c-0.5,0.3-1.2,0.2-1.9-0.3c-0.7-0.5-1.1-1-1.1-1.6c0-0.6,0.2-1.2,0.6-1.7
		c2.3-3.4,3.4-5.9,3.3-7.5c-0.1-1.6-1.2-3.1-3.3-4.5c-1.8-1.2-3.8-1.1-5.9,0.3c-2.1,1.4-5,4.9-8.8,10.5c-0.7,1-1.3,2-2,3.1
		c-0.7,1.1-1.3,2.1-2,3.1s-1.3,1.7-1.8,2.1c-0.5,0.4-1.2,0.3-1.9-0.2c-0.8-0.6-1.1-1.5-0.8-2.7c0.3-1.2,0.9-2.7,1.8-4.3
		c0.9-1.6,1.9-3.3,3.1-5s2.3-3.4,3.2-5c0.9-1.6,1.6-3,1.9-4.2s0.1-2.1-0.8-2.7c-1.6-1-3-0.5-4.4,1.6c-0.4,0.5-0.8,1.4-1.4,2.5
		c-0.5,1.1-1,1.9-1.3,2.3c-0.7,1-1.5,1.2-2.4,0.6c-1.1-0.7-1.6-1.5-1.6-2.2s0.2-1.4,0.7-2c1.3-1.9,2.2-3.5,2.7-4.6
		c0.5-1.2,0.8-2.2,0.8-3.1s-0.1-1.7-0.3-2.6c-0.2-0.9-0.3-1.9-0.4-3.2c-0.1-1.2-0.1-2.3,0.2-3.4c0.3-1.1,0-2-0.8-2.5
		c-0.3-0.2-0.7-0.2-1.1,0c-0.5,0.2-1,0.5-1.4,0.8s-0.9,0.6-1.4,0.9s-0.8,0.2-1.2,0c-1-0.7-1.4-1.9-1.3-3.6c0.1-1.7,0.6-3.6,1.4-5.7
		c0.8-2.1,1.8-4.2,3.1-6.4c1.2-2.2,2.3-4,3.4-5.6c1.9-2.8,4.4-4.3,7.4-4.4c3-0.1,5.6,0.5,7.8,2c1.6,1.1,2.5,2.2,2.9,3.6
		c0.4,1.4,0.3,3.1-0.4,5.3c-1.4,4.5-1.7,7.9-0.9,10.4c0.9,2.4,2.1,4.2,3.6,5.2c2,1.4,4.1,1.4,6.2,0.2c2.1-1.2,3.9-2.9,5.4-5.1
		c1.2-1.7,1.4-3.9,0.8-6.4c-0.7-2.7-1.1-4.9-1.2-6.7c-0.1-1.7-0.1-3.2,0.1-4.5c0.2-1.3,0.3-2.6,0.6-3.8s0.4-2.8,0.4-4.6
		c0-0.9-0.2-1.9-0.5-2.9s-0.6-2.1-0.9-3.3s-0.6-2.5-0.8-4c-0.2-1.5-0.2-3.1,0-4.8c0-1,0.3-2.2,0.8-3.4c0.5-1.2,1-2.4,1.4-3.5
		s0.7-2.1,0.8-3c0.1-0.9-0.1-1.5-0.6-1.9c-0.5-0.3-1-0.3-1.7,0s-1.4,0.7-2,1.1c-0.7,0.4-1.4,0.8-2.1,1.1c-0.7,0.3-1.3,0.3-1.7,0
		c-0.8-0.6-1-1.6-0.5-3.1c0.5-1.5,1.2-3,2.2-4.5c0.7-1,1.6-1.9,2.8-2.9c1.2-0.9,2.6-2.5,4.2-4.9c0.9-1.4,2.2-3.1,3.8-5.2
		s3.1-3.9,4.7-5.4c0.7-0.7,1.8-1.3,3.3-1.8c1.5-0.5,3.1-0.9,4.9-1.3c1.8-0.3,3.5-0.6,5.2-0.7s3-0.2,4.1-0.1c0.2,0,1.2,0.2,2.8,0.5
		c1.6,0.3,3.4,0.7,5.4,1.1c1.9,0.4,3.7,0.8,5.4,1.2c1.7,0.4,2.7,0.7,3,1c0.1,0.2,0.4,0.4,0.7,0.7c4.1,3.3,6.8,7.6,8.2,12.9
		c0.3,1.4,0.5,3.1,0.6,5.1s0.1,4.1-0.1,6.3s-0.6,4.3-1.2,6.4s-1.3,3.9-2.3,5.3c-1.1,1.6-2.4,3.1-3.8,4.4c-1.4,1.3-2.6,2.6-3.4,3.9
		c-1.7,2.5-3.2,4.4-4.4,6c-1.3,1.5-2.3,2.1-2.9,1.6c-1.1-0.7-1.3-2-0.6-3.7c0.7-1.7,1.6-3.5,2.7-5.4c1.1-1.9,2-3.6,2.8-5.3
		c0.8-1.7,0.8-2.8,0-3.3c-1.1-0.7-2.1-0.8-3.1-0.3s-1.9,1.2-2.7,2.1c-0.8,0.8-1.6,1.6-2.3,2.3c-0.7,0.7-1.4,0.9-1.9,0.5
		c-1.3-0.9-1.6-2.1-1-3.7s1.4-3.3,2.4-5c1-1.8,1.9-3.4,2.6-4.9c0.7-1.5,0.6-2.6-0.3-3.2c-0.6-0.4-1.1-0.4-1.6-0.1
		c-0.5,0.3-1,0.9-1.5,1.6c-0.2,0.3-0.4,0.6-0.6,1s-0.4,0.7-0.6,1c-1.2,1.8-2.6,2.2-4,1.2c-0.5-0.3-0.8-0.8-1-1.5
		c-0.2-0.7-0.1-1.3,0.3-2c0.7-1.1,1.4-1.9,1.9-2.3c0.5-0.4,1.2-1.3,2-2.5c0.7-1.1,1-1.9,0.8-2.5c-0.2-0.6-0.5-1.1-1-1.4
		c-0.6-0.4-1.2-0.4-2.1,0s-1.7,0.9-2.6,1.7s-1.8,1.7-2.6,2.7s-1.7,2-2.3,3c-2.3,3.5-3.2,7.6-2.6,12.6c0.6,4.9,2.1,9.8,4.4,14.5
		c0.7,1.4,1,2.7,1.1,4.1s0.1,2.6,0,3.8c-0.1,1.2-0.2,2.3-0.4,3.2c-0.2,0.9-0.2,1.6-0.1,2.1c0.1,1.1,0.3,2.2,0.8,3.2
		c0.5,1.1,0.9,2.2,1.2,3.4c0.3,1.2,0.4,2.5,0.2,3.8s-0.8,2.7-1.8,4.3c-0.7,1-1.3,1.9-1.8,2.7
		C1385.6,255.7,1385.2,256.3,1385.1,256.7z"/>
</g>
</svg>
