<svg xmlns="http://www.w3.org/2000/svg" width="26.66" height="26.66"><g transform="translate(-61 -674)"><rect data-name="Rectangle 2021" width="26.66" height="26.66" rx="7" transform="translate(61 674)" fill="#efeeef"/><path data-name="Path 9977" d="M80.399 686.527a.4.4 0 0 0-.4-.306 1.373 1.373 0 0 1-.94-2.39.345.345 0 0 0 .038-.469 6.153 6.153 0 0 0-.985-.995.346.346 0 0 0-.473.038 1.433 1.433 0 0 1-1.551.348 1.381 1.381 0 0 1-.842-1.353.345.345 0 0 0-.305-.359 6.208 6.208 0 0 0-1.4 0 .346.346 0 0 0-.308.356 1.383 1.383 0 0 1-.851 1.323 1.437 1.437 0 0 1-1.539-.35.347.347 0 0 0-.469-.039 6.176 6.176 0 0 0-1.006.994.346.346 0 0 0 .037.473 1.378 1.378 0 0 1 .348 1.551 1.437 1.437 0 0 1-1.354.84.338.338 0 0 0-.359.305 6.229 6.229 0 0 0 0 1.414.411.411 0 0 0 .408.306 1.364 1.364 0 0 1 1.279.852 1.383 1.383 0 0 1-.349 1.534.346.346 0 0 0-.038.469 6.175 6.175 0 0 0 .984 1 .346.346 0 0 0 .475-.039 1.431 1.431 0 0 1 1.55-.349 1.379 1.379 0 0 1 .841 1.35.345.345 0 0 0 .305.363 6.188 6.188 0 0 0 1.4 0 .346.346 0 0 0 .308-.356 1.382 1.382 0 0 1 .851-1.326 1.435 1.435 0 0 1 1.54.35.347.347 0 0 0 .469.039 6.19 6.19 0 0 0 1.006-.995.345.345 0 0 0-.037-.473 1.378 1.378 0 0 1-.348-1.551 1.392 1.392 0 0 1 1.272-.843h.077a.346.346 0 0 0 .364-.3 6.223 6.223 0 0 0 .002-1.412zm-6.172 2.773a2.074 2.074 0 1 1 2.072-2.069 2.076 2.076 0 0 1-2.072 2.069z" fill="#182433" fill-rule="evenodd"/></g></svg>